SplineFontDB: 1.0
FontName: THNiramitAS-BoldItalic
FullName: THNiramitAS-BoldItalic
FamilyName: TH Niramit AS
Weight: Bold
Copyright: Copyright (c) 2006 by Department of Intellectual Property (DIP), Ministry of Commerce and Software Industry Promotion Agency (Public Organization) (SIPA). All rights reserved.
Version: 1.1
ItalicAngle: -12
UnderlinePosition: -35
UnderlineWidth: 30
Ascent: 800
Descent: 200
Order2: 1
XUID: [1021 375 425136265 7719273]
FSType: 0
OS2Version: 3
OS2_WeightWidthSlopeOnly: 0
OS2_UseTypoMetrics: 1
CreationTime: 1157457558
ModificationTime: 1174462349
PfmFamily: 17
TTFWeight: 700
TTFWidth: 5
LineGap: 60
VLineGap: 0
Panose: 2 0 5 6 0 0 0 2 0 4
OS2TypoAscent: 0
OS2TypoAOffset: 1
OS2TypoDescent: 0
OS2TypoDOffset: 1
OS2TypoLinegap: 0
OS2WinAscent: 15
OS2WinAOffset: 1
OS2WinDescent: 1
OS2WinDOffset: 1
HheadAscent: -105
HheadAOffset: 1
HheadDescent: 299
HheadDOffset: 1
OS2SubXSize: 700
OS2SubYSize: 650
OS2SubXOff: 0
OS2SubYOff: 140
OS2SupXSize: 700
OS2SupYSize: 650
OS2SupXOff: 0
OS2SupYOff: 477
OS2StrikeYSize: 30
OS2StrikeYPos: 250
OS2FamilyClass: 773
OS2Vendor: 'IPTH'
ScriptLang: 2
 1 latn 1 dflt 
 0 
ChainSub: coverage 0 0 'liga' 0 0 0 1
 1 0 1
  Coverage: 64 uni0E48.alt2 uni0E49.alt2 uni0E4A.alt2 uni0E4B.alt2 uni0E4C.alt2
  FCoverage: 7 uni0E33
 1
  SeqLookup: 0 'L027'
EndFPST
ChainSub: coverage 0 0 'liga' 0 0 0 1
 1 1 0
  Coverage: 7 uni0E47
  BCoverage: 12 uni0E2C.alt1
 1
  SeqLookup: 0 'L026'
EndFPST
ChainSub: coverage 0 0 'liga' 0 0 0 1
 1 0 1
  Coverage: 7 uni0E2C
  FCoverage: 39 uni0E34 uni0E35 uni0E36 uni0E37 uni0E47
 1
  SeqLookup: 0 'L026'
EndFPST
ChainSub: coverage 0 0 'liga' 0 0 0 1
 1 0 1
  Coverage: 15 uni0E0E uni0E0F
  FCoverage: 38 uni0E38.alt1 uni0E39.alt1 uni0E3A.alt1
 1
  SeqLookup: 0 'L026'
EndFPST
ChainSub: coverage 0 0 'liga' 0 0 0 1
 1 1 0
  Coverage: 5 a b c
  BCoverage: 23 uni0E1B uni0E1D uni0E1F
 1
  SeqLookup: 0 'L026'
EndFPST
ChainSub: coverage 0 0 'liga' 0 0 0 1
 1 0 1
  Coverage: 5 a b c

StartChar: .notdef
Encoding: 65536 -1 0
Width: 500
Flags: W
Fore
409 35 m 1,0,-1
 542 660 l 1,1,-1
 237 660 l 1,2,-1
 104 35 l 1,3,-1
 409 35 l 1,0,-1
436 0 m 1,4,-1
 63 0 l 1,5,-1
 210 695 l 1,6,-1
 583 695 l 1,7,-1
 436 0 l 1,4,-1
EndSplineSet
EndChar
StartChar: numbersign
Encoding: 35 35 4
Width: 403
Flags: W
Fore
436 300 m 1,0,-1
 371 300 l 1,1,-1
 332 193 l 1,2,-1
 400 193 l 1,3,-1
 380 144 l 1,4,-1
 313 144 l 1,5,-1
 257 -5 l 1,6,-1
 209 -4 l 1,7,-1
 263 144 l 1,8,-1
 171 144 l 1,9,-1
 115 -5 l 1,10,-1
 67 -4 l 1,11,-1
 121 144 l 1,12,-1
 51 144 l 1,13,-1
 69 193 l 1,14,-1
 140 193 l 1,15,-1
 179 300 l 1,16,-1
 107 300 l 1,17,-1
 125 349 l 1,18,-1
 198 349 l 1,19,-1
 246 478 l 1,20,-1
 296 477 l 1,21,-1
 248 349 l 1,22,-1
 340 349 l 1,23,-1
 387 476 l 1,24,-1
 437 477 l 1,25,-1
 390 349 l 1,26,-1
 456 349 l 1,27,-1
 436 300 l 1,0,-1
229 300 m 1,28,-1
 190 193 l 1,29,-1
 282 193 l 1,30,-1
 321 300 l 1,31,-1
 229 300 l 1,28,-1
EndSplineSet
EndChar
StartChar: dollar
Encoding: 36 36 5
Width: 387
Flags: W
Fore
389 118 m 0,0,1
 382 87 382 87 365.5 62.5 c 128,-1,2
 349 38 349 38 325.5 20 c 128,-1,3
 302 2 302 2 274 -8.5 c 128,-1,4
 246 -19 246 -19 217 -21 c 1,5,-1
 207 -68 l 1,6,-1
 161 -68 l 1,7,-1
 171 -21 l 1,8,9
 129 -17 129 -17 93 4 c 128,-1,10
 57 25 57 25 34 65 c 1,11,-1
 102 116 l 1,12,13
 111 94 111 94 130 73.5 c 128,-1,14
 149 53 149 53 186 48 c 1,15,-1
 218 199 l 1,16,17
 193 210 193 210 177.5 217.5 c 128,-1,18
 162 225 162 225 158 227 c 0,19,20
 142 236 142 236 129.5 253 c 128,-1,21
 117 270 117 270 111.5 292.5 c 128,-1,22
 106 315 106 315 111 341.5 c 128,-1,23
 116 368 116 368 135 395 c 0,24,25
 159 429 159 429 195 448.5 c 128,-1,26
 231 468 231 468 276 472 c 1,27,-1
 284 512 l 1,28,-1
 330 512 l 1,29,-1
 322 471 l 1,30,31
 351 467 351 467 378 454.5 c 128,-1,32
 405 442 405 442 429 418 c 1,33,-1
 379 357 l 1,34,35
 365 376 365 376 346.5 386 c 128,-1,36
 328 396 328 396 307 401 c 1,37,-1
 277 261 l 1,38,39
 299 249 299 249 322 238.5 c 128,-1,40
 345 228 345 228 362.5 213 c 128,-1,41
 380 198 380 198 388 176 c 128,-1,42
 396 154 396 154 389 118 c 0,0,1
261 404 m 1,43,44
 235 401 235 401 211.5 383 c 128,-1,45
 188 365 188 365 181 343 c 0,46,47
 177 327 177 327 180.5 317 c 128,-1,48
 184 307 184 307 192 300.5 c 128,-1,49
 200 294 200 294 211.5 289.5 c 128,-1,50
 223 285 223 285 235 279 c 1,51,-1
 261 404 l 1,43,44
318 114 m 0,52,53
 320 125 320 125 315.5 135 c 128,-1,54
 311 145 311 145 302.5 153 c 128,-1,55
 294 161 294 161 283 168 c 128,-1,56
 272 175 272 175 260 180 c 1,57,-1
 232 50 l 1,58,59
 258 55 258 55 284.5 70 c 128,-1,60
 311 85 311 85 318 114 c 0,52,53
EndSplineSet
EndChar
StartChar: percent
Encoding: 37 37 6
Width: 567
Flags: W
Fore
309 347 m 0,0,1
 304 323 304 323 293 300 c 128,-1,2
 282 277 282 277 265.5 258.5 c 128,-1,3
 249 240 249 240 228 229 c 128,-1,4
 207 218 207 218 183 218 c 0,5,6
 158 218 158 218 142 229.5 c 128,-1,7
 126 241 126 241 117.5 259.5 c 128,-1,8
 109 278 109 278 107.5 301 c 128,-1,9
 106 324 106 324 111 347 c 0,10,11
 115 368 115 368 126 391 c 128,-1,12
 137 414 137 414 153.5 433 c 128,-1,13
 170 452 170 452 191 464 c 128,-1,14
 212 476 212 476 238 476 c 0,15,16
 263 476 263 476 279 464.5 c 128,-1,17
 295 453 295 453 303 434.5 c 128,-1,18
 311 416 311 416 312.5 393 c 128,-1,19
 314 370 314 370 309 347 c 0,0,1
258 347 m 0,20,21
 260 357 260 357 260.5 370 c 128,-1,22
 261 383 261 383 258 394.5 c 128,-1,23
 255 406 255 406 247.5 414 c 128,-1,24
 240 422 240 422 226 422 c 0,25,26
 209 422 209 422 197.5 412 c 128,-1,27
 186 402 186 402 178.5 389.5 c 128,-1,28
 171 377 171 377 167 364.5 c 128,-1,29
 163 352 163 352 162 347 c 0,30,31
 160 337 160 337 159.5 324 c 128,-1,32
 159 311 159 311 162 299.5 c 128,-1,33
 165 288 165 288 172.5 280 c 128,-1,34
 180 272 180 272 194 272 c 0,35,36
 207 272 207 272 218 279.5 c 128,-1,37
 229 287 229 287 237 298 c 128,-1,38
 245 309 245 309 250.5 322.5 c 128,-1,39
 256 336 256 336 258 347 c 0,20,21
120 -22 m 1,40,-1
 491 506 l 1,41,-1
 551 506 l 1,42,-1
 180 -22 l 1,43,-1
 120 -22 l 1,40,-1
555 128 m 0,44,45
 550 104 550 104 538.5 81 c 128,-1,46
 527 58 527 58 510.5 39.5 c 128,-1,47
 494 21 494 21 473 10 c 128,-1,48
 452 -1 452 -1 428 -1 c 0,49,50
 403 -1 403 -1 387 10.5 c 128,-1,51
 371 22 371 22 363 40.5 c 128,-1,52
 355 59 355 59 353.5 82 c 128,-1,53
 352 105 352 105 357 128 c 0,54,55
 361 149 361 149 372 172 c 128,-1,56
 383 195 383 195 399 214 c 128,-1,57
 415 233 415 233 436 245 c 128,-1,58
 457 257 457 257 483 257 c 0,59,60
 508 257 508 257 524 245.5 c 128,-1,61
 540 234 540 234 548.5 215.5 c 128,-1,62
 557 197 557 197 558.5 174 c 128,-1,63
 560 151 560 151 555 128 c 0,44,45
504 128 m 0,64,65
 506 138 506 138 506.5 151 c 128,-1,66
 507 164 507 164 504 175.5 c 128,-1,67
 501 187 501 187 493.5 195 c 128,-1,68
 486 203 486 203 472 203 c 0,69,70
 455 203 455 203 443.5 193 c 128,-1,71
 432 183 432 183 424.5 170.5 c 128,-1,72
 417 158 417 158 413 145.5 c 128,-1,73
 409 133 409 133 408 128 c 0,74,75
 406 118 406 118 405 105 c 128,-1,76
 404 92 404 92 407 80.5 c 128,-1,77
 410 69 410 69 418 61 c 128,-1,78
 426 53 426 53 440 53 c 0,79,80
 453 53 453 53 464 60.5 c 128,-1,81
 475 68 475 68 483 79 c 128,-1,82
 491 90 491 90 496 103.5 c 128,-1,83
 501 117 501 117 504 128 c 0,64,65
EndSplineSet
EndChar
StartChar: ampersand
Encoding: 38 38 7
Width: 469
Flags: W
Fore
358 1 m 1,0,-1
 329 49 l 1,1,2
 265 -9 265 -9 196 -9 c 0,3,4
 163 -9 163 -9 135.5 1.5 c 128,-1,5
 108 12 108 12 89.5 31.5 c 128,-1,6
 71 51 71 51 64 78 c 128,-1,7
 57 105 57 105 64 139 c 0,8,9
 70 165 70 165 82.5 186 c 128,-1,10
 95 207 95 207 112 224 c 128,-1,11
 129 241 129 241 148.5 255 c 128,-1,12
 168 269 168 269 187 281 c 1,13,14
 175 303 175 303 166 329.5 c 128,-1,15
 157 356 157 356 164 388 c 0,16,17
 174 433 174 433 209.5 459 c 128,-1,18
 245 485 245 485 289 485 c 0,19,20
 334 485 334 485 358.5 460 c 128,-1,21
 383 435 383 435 373 390 c 0,22,23
 369 370 369 370 359.5 352.5 c 128,-1,24
 350 335 350 335 337.5 320.5 c 128,-1,25
 325 306 325 306 311 294 c 128,-1,26
 297 282 297 282 283 272 c 1,27,-1
 352 165 l 1,28,29
 363 180 363 180 373 203.5 c 128,-1,30
 383 227 383 227 390 258 c 1,31,-1
 455 258 l 1,32,33
 444 212 444 212 427 179.5 c 128,-1,34
 410 147 410 147 385 111 c 1,35,-1
 453 1 l 1,36,-1
 358 1 l 1,0,-1
307 394 m 0,37,38
 310 408 310 408 302.5 417 c 128,-1,39
 295 426 295 426 281 426 c 0,40,41
 269 426 269 426 256 419 c 128,-1,42
 243 412 243 412 239 394 c 0,43,44
 236 380 236 380 240 364 c 128,-1,45
 244 348 244 348 254 329 c 1,46,47
 273 344 273 344 288 359 c 128,-1,48
 303 374 303 374 307 394 c 0,37,38
219 228 m 1,49,50
 194 211 194 211 179 197.5 c 128,-1,51
 164 184 164 184 155 174 c 128,-1,52
 146 164 146 164 143 157.5 c 128,-1,53
 140 151 140 151 139 148 c 0,54,55
 131 110 131 110 151 86 c 128,-1,56
 171 62 171 62 208 62 c 0,57,58
 231 62 231 62 251.5 71.5 c 128,-1,59
 272 81 272 81 297 103 c 1,60,-1
 219 228 l 1,49,50
EndSplineSet
EndChar
StartChar: quotesingle
Encoding: 39 39 8
Width: 183
Flags: W
Fore
180 307 m 1,0,-1
 136 307 l 1,1,-1
 144 393 l 1,2,-1
 160 469 l 1,3,-1
 223 469 l 1,4,-1
 207 393 l 1,5,-1
 180 307 l 1,0,-1
EndSplineSet
EndChar
StartChar: parenleft
Encoding: 40 40 9
Width: 244
Flags: W
Fore
131 -74 m 1,0,1
 96 -5 96 -5 86.5 63.5 c 128,-1,2
 77 132 77 132 91 201 c 0,3,4
 106 269 106 269 142.5 334.5 c 128,-1,5
 179 400 179 400 249 480 c 1,6,-1
 297 480 l 1,7,8
 179 340 179 340 149 199 c 0,9,10
 134 127 134 127 141.5 59.5 c 128,-1,11
 149 -8 149 -8 181 -74 c 1,12,-1
 131 -74 l 1,0,1
EndSplineSet
EndChar
StartChar: parenright
Encoding: 41 41 10
Width: 245
Flags: W
Fore
242 201 m 0,0,1
 213 64 213 64 86 -74 c 1,2,-1
 36 -74 l 1,3,4
 154 56 154 56 184 199 c 0,5,6
 214 340 214 340 156 480 c 1,7,-1
 204 480 l 1,8,9
 239 400 239 400 248 334.5 c 128,-1,10
 257 269 257 269 242 201 c 0,0,1
EndSplineSet
EndChar
StartChar: asterisk
Encoding: 42 42 11
Width: 367
Flags: W
Fore
388 356 m 1,0,1
 389 348 389 348 385 340 c 128,-1,2
 381 332 381 332 374.5 325.5 c 128,-1,3
 368 319 368 319 360 315.5 c 128,-1,4
 352 312 352 312 343 313 c 1,5,-1
 289 328 l 1,6,-1
 318 282 l 2,7,8
 323 274 323 274 322 266 c 128,-1,9
 321 258 321 258 315.5 250.5 c 128,-1,10
 310 243 310 243 302.5 237 c 128,-1,11
 295 231 295 231 286 228 c 0,12,13
 274 224 274 224 261.5 229.5 c 128,-1,14
 249 235 249 235 248 248 c 2,15,-1
 248 306 l 1,16,17
 236 288 236 288 225 267.5 c 128,-1,18
 214 247 214 247 210 242 c 0,19,20
 201 229 201 229 186.5 226.5 c 128,-1,21
 172 224 172 224 161 231 c 0,22,23
 150 237 150 237 149.5 251.5 c 128,-1,24
 149 266 149 266 157 277 c 0,25,26
 159 279 159 279 165 284.5 c 128,-1,27
 171 290 171 290 179.5 297 c 128,-1,28
 188 304 188 304 197 311.5 c 128,-1,29
 206 319 206 319 213 327 c 1,30,-1
 153 313 l 2,31,32
 139 308 139 308 129 316.5 c 128,-1,33
 119 325 119 325 118 338 c 0,34,35
 117 347 117 347 121 355.5 c 128,-1,36
 125 364 125 364 131.5 370.5 c 128,-1,37
 138 377 138 377 146.5 380.5 c 128,-1,38
 155 384 155 384 164 383 c 0,39,40
 172 381 172 381 182 379 c 128,-1,41
 192 377 192 377 200 375 c 0,42,43
 220 369 l 1,44,-1
 189 415 l 2,45,46
 184 422 184 422 185.5 430.5 c 128,-1,47
 187 439 187 439 192 446.5 c 128,-1,48
 197 454 197 454 204.5 460.5 c 128,-1,49
 212 467 212 467 221 469 c 0,50,51
 235 473 235 473 246 466.5 c 128,-1,52
 257 460 257 460 259 449 c 2,53,-1
 263 387 l 1,54,55
 269 396 269 396 274 406.5 c 128,-1,56
 279 417 279 417 283.5 427 c 128,-1,57
 288 437 288 437 291.5 444.5 c 128,-1,58
 295 452 295 452 297 454 c 0,59,60
 305 464 305 464 320 468.5 c 128,-1,61
 335 473 335 473 346 465 c 0,62,63
 357 459 357 459 358 445 c 128,-1,64
 359 431 359 431 351 419 c 0,65,66
 349 417 349 417 343 411.5 c 128,-1,67
 337 406 337 406 329.5 399 c 128,-1,68
 322 392 322 392 313.5 384 c 128,-1,69
 305 376 305 376 298 369 c 1,70,-1
 354 384 l 2,71,72
 368 388 368 388 379 379 c 128,-1,73
 390 370 390 370 388 356 c 1,0,1
EndSplineSet
EndChar
StartChar: plus
Encoding: 43 43 12
Width: 400
Flags: W
Fore
195 140 m 1,0,-1
 75 140 l 1,1,-1
 90 208 l 1,2,-1
 210 208 l 1,3,-1
 235 328 l 1,4,-1
 303 328 l 1,5,-1
 278 208 l 1,6,-1
 398 208 l 1,7,-1
 383 140 l 1,8,-1
 263 140 l 1,9,-1
 238 20 l 1,10,-1
 170 20 l 1,11,-1
 195 140 l 1,0,-1
EndSplineSet
EndChar
StartChar: comma
Encoding: 44 44 13
Width: 244
Flags: W
Fore
181 42 m 0,0,1
 172 -3 172 -3 141.5 -38.5 c 128,-1,2
 111 -74 111 -74 66 -106 c 1,3,-1
 33 -81 l 1,4,5
 41 -77 41 -77 53 -67.5 c 128,-1,6
 65 -58 65 -58 77 -47 c 128,-1,7
 89 -36 89 -36 99.5 -24.5 c 128,-1,8
 110 -13 110 -13 114 -5 c 1,9,10
 92 -5 92 -5 80.5 10.5 c 128,-1,11
 69 26 69 26 73 47 c 0,12,13
 78 68 78 68 97 84 c 128,-1,14
 116 100 116 100 138 100 c 0,15,16
 161 100 161 100 174 84 c 128,-1,17
 187 68 187 68 181 42 c 0,0,1
EndSplineSet
EndChar
StartChar: hyphen
Encoding: 45 45 14
Width: 400
Flags: W
Fore
75 140 m 1,0,-1
 90 208 l 1,1,-1
 398 208 l 1,2,-1
 383 140 l 1,3,-1
 75 140 l 1,0,-1
EndSplineSet
EndChar
StartChar: period
Encoding: 46 46 15
Width: 206
Flags: W
Fore
162 48 m 256,0,1
 157 27 157 27 140.5 13.5 c 128,-1,2
 124 0 124 0 103 0 c 256,3,4
 82 0 82 0 70.5 13.5 c 128,-1,5
 59 27 59 27 64 48 c 256,6,7
 69 69 69 69 85.5 83.5 c 128,-1,8
 102 98 102 98 123 98 c 256,9,10
 144 98 144 98 155.5 83.5 c 128,-1,11
 167 69 167 69 162 48 c 256,0,1
EndSplineSet
EndChar
StartChar: slash
Encoding: 47 47 16
Width: 195
Flags: W
Fore
-26 -63 m 1,0,-1
 258 514 l 1,1,-1
 318 514 l 1,2,-1
 33 -63 l 1,3,-1
 -26 -63 l 1,0,-1
EndSplineSet
EndChar
StartChar: zero
Encoding: 48 48 17
Width: 400
Flags: W
Fore
421 240 m 0,0,1
 410 191 410 191 392 146 c 128,-1,2
 374 101 374 101 346.5 67 c 128,-1,3
 319 33 319 33 282 13 c 128,-1,4
 245 -7 245 -7 197 -7 c 256,5,6
 149 -7 149 -7 120.5 13 c 128,-1,7
 92 33 92 33 79 67 c 128,-1,8
 66 101 66 101 66.5 146 c 128,-1,9
 67 191 67 191 78 240 c 0,10,11
 95 322 95 322 125 370.5 c 128,-1,12
 155 419 155 419 188 445 c 128,-1,13
 221 471 221 471 251.5 479 c 128,-1,14
 282 487 282 487 302 487 c 0,15,16
 350 487 350 487 378.5 467 c 128,-1,17
 407 447 407 447 419.5 413 c 128,-1,18
 432 379 432 379 431.5 334 c 128,-1,19
 431 289 431 289 421 240 c 0,0,1
363 240 m 0,20,21
 370 277 370 277 372.5 310.5 c 128,-1,22
 375 344 375 344 368 369.5 c 128,-1,23
 361 395 361 395 342.5 410.5 c 128,-1,24
 324 426 324 426 290 426 c 256,25,26
 256 426 256 426 231 410.5 c 128,-1,27
 206 395 206 395 187.5 369.5 c 128,-1,28
 169 344 169 344 156.5 310 c 128,-1,29
 144 276 144 276 137 240 c 0,30,31
 129 203 129 203 127 169.5 c 128,-1,32
 125 136 125 136 132 110.5 c 128,-1,33
 139 85 139 85 158 70 c 128,-1,34
 177 55 177 55 211 55 c 0,35,36
 246 55 246 55 271.5 72 c 128,-1,37
 297 89 297 89 315 116 c 128,-1,38
 333 143 333 143 344.5 175.5 c 128,-1,39
 356 208 356 208 363 240 c 0,20,21
EndSplineSet
EndChar
StartChar: one
Encoding: 49 49 18
Width: 295
Flags: W
Fore
325 448 m 1,0,1
 324 440 324 440 316 432.5 c 128,-1,2
 308 425 308 425 300 422 c 1,3,4
 300 420 300 420 296 401 c 128,-1,5
 292 382 292 382 285.5 352 c 128,-1,6
 279 322 279 322 271 284 c 128,-1,7
 263 246 263 246 255 207 c 0,8,9
 236 115 236 115 211 0 c 1,10,-1
 151 0 l 1,11,12
 170 96 170 96 187 174 c 0,13,14
 201 240 l 128,-1,15
 208 273 208 273 214 300.5 c 128,-1,16
 220 328 220 328 224 348 c 128,-1,17
 228 368 228 368 230 375 c 1,18,19
 221 369 221 369 208 359.5 c 128,-1,20
 195 350 195 350 183 342 c 0,21,22
 169 332 169 332 154 322 c 1,23,-1
 118 362 l 1,24,-1
 275 474 l 1,25,-1
 275 475 l 1,26,27
 293 485 293 485 306.5 480.5 c 128,-1,28
 320 476 320 476 325 450 c 1,29,-1
 325 448 l 1,30,-1
 325 448 l 1,0,1
EndSplineSet
EndChar
StartChar: two
Encoding: 50 50 19
Width: 389
Flags: W
Fore
326 0 m 1,0,-1
 58 0 l 2,1,2
 38 -2 38 -2 33 7 c 128,-1,3
 28 16 28 16 35 33 c 0,4,5
 40 47 40 47 45 54.5 c 128,-1,6
 50 62 50 62 62 61 c 1,7,8
 73 74 73 74 89 88 c 128,-1,9
 105 102 105 102 121 115 c 128,-1,10
 137 128 137 128 152 139 c 128,-1,11
 167 150 167 150 176 157 c 0,12,13
 206 178 206 178 234 200.5 c 128,-1,14
 262 223 262 223 285 246.5 c 128,-1,15
 308 270 308 270 323 293.5 c 128,-1,16
 338 317 338 317 343 339 c 0,17,18
 349 373 349 373 338 392.5 c 128,-1,19
 327 412 327 412 306.5 419.5 c 128,-1,20
 286 427 286 427 261 422.5 c 128,-1,21
 236 418 236 418 215.5 404 c 128,-1,22
 195 390 195 390 182.5 367 c 128,-1,23
 170 344 170 344 175 314 c 1,24,-1
 116 300 l 1,25,26
 117 342 117 342 128 374.5 c 128,-1,27
 139 407 139 407 165 432 c 0,28,29
 202 466 202 466 248 477 c 128,-1,30
 294 488 294 488 332.5 476 c 128,-1,31
 371 464 371 464 392.5 429.5 c 128,-1,32
 414 395 414 395 402 338 c 0,33,34
 395 305 395 305 375 274 c 128,-1,35
 355 243 355 243 327.5 214.5 c 128,-1,36
 300 186 300 186 268.5 161 c 128,-1,37
 237 136 237 136 208 115 c 0,38,39
 188 101 188 101 169.5 86.5 c 128,-1,40
 151 72 151 72 138 61 c 1,41,-1
 301 61 l 1,42,43
 306 67 306 67 316.5 80 c 128,-1,44
 327 93 327 93 330 98 c 1,45,46
 331 97.5 l 130,-1,47
 332 97 332 97 336.5 94.5 c 128,-1,48
 341 92 341 92 350 86.5 c 128,-1,49
 359 81 359 81 375 72 c 1,50,-1
 326 0 l 1,0,-1
EndSplineSet
EndChar
StartChar: three
Encoding: 51 51 20
Width: 398
Flags: W
Fore
402 165 m 0,0,1
 395 133 395 133 378.5 102 c 128,-1,2
 362 71 362 71 337.5 46.5 c 128,-1,3
 313 22 313 22 281.5 6.5 c 128,-1,4
 250 -9 250 -9 213 -9 c 0,5,6
 173 -9 173 -9 145 -1 c 128,-1,7
 117 7 117 7 97.5 25 c 128,-1,8
 78 43 78 43 67 71.5 c 128,-1,9
 56 100 56 100 51 140 c 1,10,-1
 111 157 l 1,11,12
 114 100 114 100 139.5 70.5 c 128,-1,13
 165 41 165 41 220 44 c 0,14,15
 255 46 255 46 281 66.5 c 128,-1,16
 307 87 307 87 322 115 c 128,-1,17
 337 143 337 143 340 173.5 c 128,-1,18
 343 204 343 204 333 227 c 128,-1,19
 323 250 323 250 299 259.5 c 128,-1,20
 275 269 275 269 235 256 c 1,21,22
 227 250 227 250 213 236 c 0,23,24
 202 227 202 227 192 229 c 128,-1,25
 182 231 182 231 176 238.5 c 128,-1,26
 170 246 170 246 169.5 256.5 c 128,-1,27
 169 267 169 267 177 276 c 0,28,29
 210 309 210 309 240 337 c 0,30,31
 265 361 265 361 289.5 384.5 c 128,-1,32
 314 408 314 408 325 418 c 1,33,-1
 199 418 l 1,34,35
 197 414 197 414 192.5 405.5 c 128,-1,36
 188 397 188 397 182.5 387.5 c 128,-1,37
 177 378 177 378 172.5 369.5 c 128,-1,38
 168 361 168 361 165 357 c 1,39,40
 135 374 135 374 127.5 378 c 128,-1,41
 120 382 120 382 120 383 c 1,42,-1
 168 478 l 1,43,-1
 419 478 l 1,44,45
 433 480 433 480 437 470 c 128,-1,46
 441 460 441 460 433 446 c 1,47,48
 427 429 427 429 422 423.5 c 128,-1,49
 417 418 417 418 403 418 c 1,50,51
 401 416 401 416 387 403 c 128,-1,52
 373 390 373 390 356 373 c 128,-1,53
 339 356 339 356 321.5 339.5 c 128,-1,54
 304 323 304 323 295 315 c 1,55,56
 323 316 323 316 346 306.5 c 128,-1,57
 369 297 369 297 384 277.5 c 128,-1,58
 399 258 399 258 404 230 c 128,-1,59
 409 202 409 202 402 165 c 0,0,1
EndSplineSet
EndChar
StartChar: four
Encoding: 52 52 21
Width: 375
Flags: W
Fore
313 94 m 1,0,1
 311 88 311 88 308 72.5 c 128,-1,2
 305 57 305 57 302 41 c 0,3,4
 298 22 298 22 294 0 c 1,5,-1
 234 0 l 1,6,7
 238 22 238 22 242 41 c 0,8,9
 245 57 245 57 248 72.5 c 128,-1,10
 251 88 251 88 253 94 c 1,11,-1
 58 94 l 2,12,13
 44 95 44 95 39 111 c 128,-1,14
 34 127 34 127 45 141 c 2,15,-1
 354 473 l 2,16,17
 363 483 363 483 373 482 c 256,18,19
 383 481 383 481 388 472 c 128,-1,20
 393 463 393 463 394 455 c 0,21,22
 394 447 394 447 392.5 442.5 c 128,-1,23
 391 438 391 438 385 430 c 1,24,25
 385 429 385 429 380.5 409.5 c 128,-1,26
 376 390 376 390 370 361 c 128,-1,27
 364 332 364 332 356.5 298 c 128,-1,28
 349 264 349 264 342.5 233.5 c 128,-1,29
 336 203 336 203 331.5 181 c 128,-1,30
 327 159 327 159 326 155 c 1,31,-1
 387 155 l 1,32,-1
 374 94 l 1,33,-1
 313 94 l 1,0,1
266 155 m 1,34,35
 267 161 267 161 272.5 186 c 128,-1,36
 278 211 278 211 285 241.5 c 128,-1,37
 292 272 292 272 298 302 c 128,-1,38
 304 332 304 332 307 348 c 1,39,40
 295 335 295 335 269.5 306.5 c 128,-1,41
 244 278 244 278 216.5 247.5 c 128,-1,42
 189 217 189 217 165 190.5 c 128,-1,43
 141 164 141 164 132 155 c 1,44,-1
 266 155 l 1,34,35
EndSplineSet
EndChar
StartChar: five
Encoding: 53 53 22
Width: 398
Flags: W
Fore
389 121 m 0,0,1
 370 76 370 76 329 41.5 c 128,-1,2
 288 7 288 7 242 -4 c 0,3,4
 223 -8 223 -8 201 -9 c 128,-1,5
 179 -10 179 -10 155.5 -3.5 c 128,-1,6
 132 3 132 3 107.5 18.5 c 128,-1,7
 83 34 83 34 60 63 c 1,8,-1
 109 107 l 1,9,10
 127 87 127 87 142 74.5 c 128,-1,11
 157 62 157 62 172 55.5 c 128,-1,12
 187 49 187 49 202.5 48.5 c 128,-1,13
 218 48 218 48 237 53 c 0,14,15
 276 62 276 62 305.5 94 c 128,-1,16
 335 126 335 126 347 162.5 c 128,-1,17
 359 199 359 199 348.5 232 c 128,-1,18
 338 265 338 265 296 277 c 0,19,20
 254 290 254 290 209.5 270.5 c 128,-1,21
 165 251 165 251 137 197 c 1,22,23
 115 206 115 206 105 210.5 c 128,-1,24
 95 215 95 215 89 218 c 1,25,-1
 94 226 l 2,26,27
 98 235 98 235 107 260.5 c 128,-1,28
 116 286 116 286 126.5 316.5 c 128,-1,29
 137 347 137 347 147.5 378 c 128,-1,30
 158 409 158 409 165 429 c 1,31,32
 162 434 162 434 162.5 442 c 128,-1,33
 163 450 163 450 167 457 c 0,34,35
 174 471 174 471 181 474.5 c 128,-1,36
 188 478 188 478 199 478 c 2,37,-1
 452 478 l 1,38,-1
 439 418 l 1,39,-1
 221 418 l 1,40,41
 215 400 215 400 205.5 370.5 c 128,-1,42
 196 341 196 341 186 314 c 1,43,44
 259 353 259 353 327 335 c 0,45,46
 363 325 363 325 382.5 302.5 c 128,-1,47
 402 280 402 280 408 250 c 128,-1,48
 414 220 414 220 408.5 186.5 c 128,-1,49
 403 153 403 153 389 121 c 0,0,1
EndSplineSet
EndChar
StartChar: six
Encoding: 54 54 23
Width: 393
Flags: W
Fore
385 349 m 1,0,1
 386 387 386 387 366.5 407 c 128,-1,2
 347 427 347 427 320 430 c 0,3,4
 281 435 281 435 251.5 420 c 128,-1,5
 222 405 222 405 200.5 379.5 c 128,-1,6
 179 354 179 354 164 322 c 128,-1,7
 149 290 149 290 140 261 c 1,8,9
 172 297 172 297 215 314.5 c 128,-1,10
 258 332 258 332 300 327 c 0,11,12
 349 321 349 321 375.5 289 c 128,-1,13
 402 257 402 257 406 214 c 128,-1,14
 410 171 410 171 392 124 c 128,-1,15
 374 77 374 77 335 42 c 256,16,17
 296 7 296 7 253 -4 c 128,-1,18
 210 -15 210 -15 171.5 -5.5 c 128,-1,19
 133 4 133 4 105 31.5 c 128,-1,20
 77 59 77 59 68 102 c 0,21,22
 62 136 62 136 67 181 c 128,-1,23
 72 226 72 226 87 271.5 c 128,-1,24
 102 317 102 317 125.5 358.5 c 128,-1,25
 149 400 149 400 180 428 c 0,26,27
 218 463 218 463 263.5 477.5 c 128,-1,28
 309 492 309 492 357 481 c 0,29,30
 395 473 395 473 418 442 c 128,-1,31
 441 411 441 411 439 364 c 1,32,-1
 385 349 l 1,0,1
303 82 m 0,33,34
 322 99 322 99 333.5 126 c 128,-1,35
 345 153 345 153 346.5 180.5 c 128,-1,36
 348 208 348 208 338.5 230.5 c 128,-1,37
 329 253 329 253 305 262 c 0,38,39
 276 272 276 272 244.5 265.5 c 128,-1,40
 213 259 213 259 187 239 c 128,-1,41
 161 219 161 219 144.5 188 c 128,-1,42
 128 157 128 157 131 119 c 0,43,44
 132 91 132 91 149.5 73 c 128,-1,45
 167 55 167 55 192.5 49 c 128,-1,46
 218 43 218 43 247.5 51 c 128,-1,47
 277 59 277 59 303 82 c 0,33,34
EndSplineSet
EndChar
StartChar: seven
Encoding: 55 55 24
Width: 389
Flags: W
Fore
463 456 m 0,0,1
 462 449 462 449 455 434.5 c 128,-1,2
 448 420 448 420 437 417 c 1,3,4
 434 407 434 407 432 400 c 128,-1,5
 430 393 430 393 426.5 386 c 128,-1,6
 423 379 423 379 416 370.5 c 128,-1,7
 409 362 409 362 397 349 c 0,8,9
 325 275 325 275 271.5 184.5 c 128,-1,10
 218 94 218 94 190 0 c 1,11,-1
 131 0 l 1,12,13
 149 54 149 54 173.5 108 c 128,-1,14
 198 162 198 162 227 212 c 128,-1,15
 256 262 256 262 289 306 c 128,-1,16
 322 350 322 350 356 385 c 0,17,18
 363 392 363 392 366.5 396 c 128,-1,19
 370 400 370 400 372.5 403 c 128,-1,20
 375 406 375 406 376 409.5 c 128,-1,21
 377 413 377 413 379 418 c 1,22,-1
 184 418 l 1,23,24
 184 413 184 413 183.5 406 c 128,-1,25
 183 399 183 399 183 392 c 0,26,27
 182 384 182 384 182 375 c 1,28,-1
 121 356 l 1,29,30
 121 371 121 371 121.5 386 c 128,-1,31
 122 401 122 401 123 414 c 128,-1,32
 124 427 124 427 124.5 436 c 128,-1,33
 125 445 125 445 126 447 c 2,34,35
 128 461 128 461 138.5 469.5 c 128,-1,36
 149 478 149 478 162 478 c 2,37,-1
 447 478 l 1,38,39
 467 475 467 475 463 456 c 0,0,1
EndSplineSet
EndChar
StartChar: eight
Encoding: 56 56 25
Width: 396
Flags: W
Fore
397 149 m 0,0,1
 388 107 388 107 368 76.5 c 128,-1,2
 348 46 348 46 321 26 c 128,-1,3
 294 6 294 6 261 -3.5 c 128,-1,4
 228 -13 228 -13 194 -13 c 256,5,6
 160 -13 160 -13 131 -2.5 c 128,-1,7
 102 8 102 8 83 28.5 c 128,-1,8
 64 49 64 49 56.5 79.5 c 128,-1,9
 49 110 49 110 57 149 c 0,10,11
 66 191 66 191 95.5 226.5 c 128,-1,12
 125 262 125 262 167 283 c 1,13,14
 152 299 152 299 145.5 321.5 c 128,-1,15
 139 344 139 344 144 370 c 0,16,17
 150 396 150 396 164.5 418 c 128,-1,18
 179 440 179 440 200 456 c 128,-1,19
 221 472 221 472 247 481 c 128,-1,20
 273 490 273 490 301 490 c 0,21,22
 335 490 335 490 357 479 c 128,-1,23
 379 468 379 468 391 451 c 128,-1,24
 403 434 403 434 406 412.5 c 128,-1,25
 409 391 409 391 405 370 c 0,26,27
 400 344 400 344 384 322 c 128,-1,28
 368 300 368 300 347 284 c 1,29,30
 381 265 381 265 393 226.5 c 128,-1,31
 405 188 405 188 397 149 c 0,0,1
342 370 m 0,32,33
 348 397 348 397 330 412.5 c 128,-1,34
 312 428 312 428 287 428 c 0,35,36
 276 428 276 428 263 423.5 c 128,-1,37
 250 419 250 419 239 411.5 c 128,-1,38
 228 404 228 404 219.5 393.5 c 128,-1,39
 211 383 211 383 208 370 c 0,40,41
 205 356 205 356 208.5 345 c 128,-1,42
 212 334 212 334 220 326.5 c 128,-1,43
 228 319 228 319 239 314.5 c 128,-1,44
 250 310 250 310 262 310 c 0,45,46
 291 310 291 310 314 327 c 128,-1,47
 337 344 337 344 342 370 c 0,32,33
335 149 m 0,48,49
 339 170 339 170 334.5 188 c 128,-1,50
 330 206 330 206 318 219.5 c 128,-1,51
 306 233 306 233 288.5 241 c 128,-1,52
 271 249 271 249 249 249 c 0,53,54
 226 249 226 249 205 241 c 128,-1,55
 184 233 184 233 166.5 219.5 c 128,-1,56
 149 206 149 206 136.5 188 c 128,-1,57
 124 170 124 170 120 149 c 0,58,59
 115 126 115 126 119.5 106.5 c 128,-1,60
 124 87 124 87 135.5 73 c 128,-1,61
 147 59 147 59 164.5 50.5 c 128,-1,62
 182 42 182 42 205 42 c 0,63,64
 252 42 252 42 288.5 71.5 c 128,-1,65
 325 101 325 101 335 149 c 0,48,49
EndSplineSet
EndChar
StartChar: nine
Encoding: 57 57 26
Width: 368
Flags: W
Fore
407 407 m 0,0,1
 417 374 417 374 412 325.5 c 128,-1,2
 407 277 407 277 393 227.5 c 128,-1,3
 379 178 379 178 359.5 134.5 c 128,-1,4
 340 91 340 91 321 67 c 0,5,6
 253 -16 253 -16 150 -6 c 0,7,8
 107 -1 107 -1 78.5 25 c 128,-1,9
 50 51 50 51 47 97 c 1,10,-1
 105 127 l 1,11,12
 106 95 106 95 123.5 73.5 c 128,-1,13
 141 52 141 52 169 49 c 0,14,15
 201 46 201 46 226.5 57.5 c 128,-1,16
 252 69 252 69 271 90 c 128,-1,17
 290 111 290 111 303.5 138 c 128,-1,18
 317 165 317 165 325 192 c 1,19,20
 277 154 277 154 231 149 c 128,-1,21
 185 144 185 144 150.5 163.5 c 128,-1,22
 116 183 116 183 99 224 c 128,-1,23
 82 265 82 265 94 321 c 0,24,25
 101 356 101 356 119.5 387.5 c 128,-1,26
 138 419 138 419 164.5 442 c 128,-1,27
 191 465 191 465 224 477.5 c 128,-1,28
 257 490 257 490 293 488 c 0,29,30
 383 485 383 485 407 407 c 0,0,1
349 364 m 0,31,32
 348 373 348 373 344.5 384 c 128,-1,33
 341 395 341 395 333 405 c 128,-1,34
 325 415 325 415 311.5 422 c 128,-1,35
 298 429 298 429 278 429 c 0,36,37
 234 430 234 430 203 404 c 128,-1,38
 172 378 172 378 159 342.5 c 128,-1,39
 146 307 146 307 153 271 c 128,-1,40
 160 235 160 235 191 218 c 0,41,42
 222 202 222 202 252.5 211 c 128,-1,43
 283 220 283 220 306 243 c 128,-1,44
 329 266 329 266 341.5 299 c 128,-1,45
 354 332 354 332 349 364 c 0,31,32
EndSplineSet
EndChar
StartChar: colon
Encoding: 58 58 27
Width: 220
Flags: W
Fore
168 46 m 256,0,1
 163 25 163 25 146.5 11.5 c 128,-1,2
 130 -2 130 -2 109 -2 c 256,3,4
 88 -2 88 -2 76.5 11.5 c 128,-1,5
 65 25 65 25 70 46 c 256,6,7
 75 67 75 67 92 81.5 c 128,-1,8
 109 96 109 96 130 96 c 256,9,10
 151 96 151 96 162 81.5 c 128,-1,11
 173 67 173 67 168 46 c 256,0,1
219 284 m 256,12,13
 214 263 214 263 197.5 249.5 c 128,-1,14
 181 236 181 236 160 236 c 256,15,16
 139 236 139 236 127.5 249.5 c 128,-1,17
 116 263 116 263 121 284 c 256,18,19
 126 305 126 305 142.5 319.5 c 128,-1,20
 159 334 159 334 180 334 c 256,21,22
 201 334 201 334 212.5 319.5 c 128,-1,23
 224 305 224 305 219 284 c 256,12,13
EndSplineSet
EndChar
StartChar: semicolon
Encoding: 59 59 28
Width: 233
Flags: W
Fore
179 42 m 0,0,1
 170 -3 170 -3 139.5 -38.5 c 128,-1,2
 109 -74 109 -74 64 -106 c 1,3,-1
 31 -81 l 1,4,5
 39 -77 39 -77 51 -67.5 c 128,-1,6
 63 -58 63 -58 75 -47 c 128,-1,7
 87 -36 87 -36 97.5 -24.5 c 128,-1,8
 108 -13 108 -13 112 -5 c 1,9,10
 90 -5 90 -5 78.5 10.5 c 128,-1,11
 67 26 67 26 71 47 c 0,12,13
 76 68 76 68 95 84 c 128,-1,14
 114 100 114 100 136 100 c 0,15,16
 159 100 159 100 172 84 c 128,-1,17
 185 68 185 68 179 42 c 0,0,1
219 284 m 256,18,19
 214 263 214 263 197.5 249.5 c 128,-1,20
 181 236 181 236 160 236 c 256,21,22
 139 236 139 236 127.5 249.5 c 128,-1,23
 116 263 116 263 121 284 c 256,24,25
 126 305 126 305 142.5 319.5 c 128,-1,26
 159 334 159 334 180 334 c 256,27,28
 201 334 201 334 212.5 319.5 c 128,-1,29
 224 305 224 305 219 284 c 256,18,19
EndSplineSet
EndChar
StartChar: less
Encoding: 60 60 29
Width: 390
Flags: W
Fore
77 208 m 1,0,-1
 426 334 l 1,1,-1
 412 266 l 1,2,-1
 156 173 l 1,3,-1
 373 82 l 1,4,-1
 358 14 l 1,5,-1
 62 140 l 1,6,-1
 77 208 l 1,0,-1
EndSplineSet
EndChar
StartChar: equal
Encoding: 61 61 30
Width: 453
Flags: W
Fore
104 208 m 1,0,-1
 118 276 l 1,1,-1
 442 276 l 1,2,-1
 428 208 l 1,3,-1
 104 208 l 1,0,-1
75 73 m 1,4,-1
 89 141 l 1,5,-1
 413 141 l 1,6,-1
 399 73 l 1,7,-1
 75 73 l 1,4,-1
EndSplineSet
EndChar
StartChar: greater
Encoding: 62 62 31
Width: 385
Flags: W
Fore
384 140 m 1,0,-1
 34 14 l 1,1,-1
 49 82 l 1,2,-1
 304 173 l 1,3,-1
 88 266 l 1,4,-1
 102 334 l 1,5,-1
 399 208 l 1,6,-1
 384 140 l 1,0,-1
EndSplineSet
EndChar
StartChar: question
Encoding: 63 63 32
Width: 363
Flags: W
Fore
382 438 m 0,0,1
 395 412 395 412 393.5 387 c 128,-1,2
 392 362 392 362 381 339 c 128,-1,3
 370 316 370 316 352 295 c 128,-1,4
 334 274 334 274 315 257 c 0,5,6
 288 231 288 231 265.5 206.5 c 128,-1,7
 243 182 243 182 236 150 c 2,8,-1
 227 108 l 1,9,-1
 157 108 l 1,10,-1
 166 150 l 2,11,12
 175 193 175 193 203.5 224.5 c 128,-1,13
 232 256 232 256 262 283 c 0,14,15
 299 317 299 317 315.5 342.5 c 128,-1,16
 332 368 332 368 322 397 c 0,17,18
 317 414 317 414 301.5 421 c 128,-1,19
 286 428 286 428 257 426 c 0,20,21
 246 425 246 425 233.5 420 c 128,-1,22
 221 415 221 415 209 407 c 128,-1,23
 197 399 197 399 186.5 389 c 128,-1,24
 176 379 176 379 170 367 c 1,25,-1
 130 397 l 1,26,27
 149 431 149 431 180.5 453.5 c 128,-1,28
 212 476 212 476 253 481 c 0,29,30
 293 487 293 487 329.5 477 c 128,-1,31
 366 467 366 467 382 438 c 0,0,1
224 43 m 0,32,33
 219 23 219 23 204 11 c 128,-1,34
 189 -1 189 -1 169 -1 c 256,35,36
 149 -1 149 -1 139 11 c 128,-1,37
 129 23 129 23 134 43 c 0,38,39
 138 63 138 63 153 76 c 128,-1,40
 168 89 168 89 188 89 c 256,41,42
 208 89 208 89 218 76 c 128,-1,43
 228 63 228 63 224 43 c 0,32,33
EndSplineSet
EndChar
StartChar: at
Encoding: 64 64 33
Width: 690
Flags: W
Fore
684 222 m 0,0,1
 678 195 678 195 665.5 166 c 128,-1,2
 653 137 653 137 635 109.5 c 128,-1,3
 617 82 617 82 594 58 c 128,-1,4
 571 34 571 34 545 17 c 0,5,6
 526 3 526 3 502 -3 c 128,-1,7
 478 -9 478 -9 456 -7 c 128,-1,8
 434 -5 434 -5 417 6 c 128,-1,9
 400 17 400 17 394 38 c 0,10,11
 394 39 394 39 393.5 39.5 c 128,-1,12
 393 40 393 40 393 41 c 1,13,-1
 392 39 l 1,14,15
 376 24 376 24 357 15 c 128,-1,16
 338 6 338 6 319 2 c 128,-1,17
 300 -2 300 -2 281.5 1 c 128,-1,18
 263 4 263 4 248 13 c 0,19,20
 226 29 226 29 217.5 52 c 128,-1,21
 209 75 209 75 209.5 101 c 128,-1,22
 210 127 210 127 218.5 155 c 128,-1,23
 227 183 227 183 239 210 c 0,24,25
 252 238 252 238 271 265 c 128,-1,26
 290 292 290 292 314 313.5 c 128,-1,27
 338 335 338 335 366.5 348.5 c 128,-1,28
 395 362 395 362 426 362 c 0,29,30
 446 362 446 362 464.5 353.5 c 128,-1,31
 483 345 483 345 492 329 c 1,32,-1
 505 358 l 1,33,-1
 565 358 l 1,34,35
 524 261 524 261 497 196.5 c 128,-1,36
 470 132 470 132 459 108 c 0,37,38
 450 89 450 89 448 71.5 c 128,-1,39
 446 54 446 54 452 44 c 128,-1,40
 458 34 458 34 473.5 34.5 c 128,-1,41
 489 35 489 35 516 52 c 0,42,43
 546 71 546 71 575 110 c 128,-1,44
 604 149 604 149 620.5 195 c 128,-1,45
 637 241 637 241 635 289 c 128,-1,46
 633 337 633 337 600 376 c 0,47,48
 573 408 573 408 535.5 421 c 128,-1,49
 498 434 498 434 460.5 435 c 128,-1,50
 423 436 423 436 390 429 c 128,-1,51
 357 422 357 422 339 413 c 0,52,53
 327 407 327 407 300 390 c 128,-1,54
 273 373 273 373 243 343 c 128,-1,55
 213 313 213 313 186.5 270 c 128,-1,56
 160 227 160 227 148 170 c 0,57,58
 138 125 138 125 143.5 86 c 128,-1,59
 149 47 149 47 166.5 15.5 c 128,-1,60
 184 -16 184 -16 212.5 -38.5 c 128,-1,61
 241 -61 241 -61 278 -71 c 0,62,63
 328 -85 328 -85 382 -77.5 c 128,-1,64
 436 -70 436 -70 508 -38 c 1,65,-1
 498 -95 l 1,66,67
 444 -120 444 -120 390.5 -129 c 128,-1,68
 337 -138 337 -138 288 -131.5 c 128,-1,69
 239 -125 239 -125 198 -103.5 c 128,-1,70
 157 -82 157 -82 128 -45 c 0,71,72
 116 -30 116 -30 105.5 -7 c 128,-1,73
 95 16 95 16 89 44.5 c 128,-1,74
 83 73 83 73 82 105.5 c 128,-1,75
 81 138 81 138 88 172 c 0,76,77
 98 217 98 217 120 262 c 128,-1,78
 142 307 142 307 174 346.5 c 128,-1,79
 206 386 206 386 246 417 c 128,-1,80
 286 448 286 448 332 466 c 0,81,82
 375 482 375 482 420 487.5 c 128,-1,83
 465 493 465 493 506.5 487 c 128,-1,84
 548 481 548 481 584 463.5 c 128,-1,85
 620 446 620 446 646 418 c 0,86,87
 678 380 678 380 687 330 c 128,-1,88
 696 280 696 280 684 222 c 0,0,1
455 248 m 0,89,90
 460 272 460 272 449.5 289 c 128,-1,91
 439 306 439 306 415 306 c 0,92,93
 392 306 392 306 370 289 c 128,-1,94
 348 272 348 272 330.5 250.5 c 128,-1,95
 313 229 313 229 301 207.5 c 128,-1,96
 289 186 289 186 285 177 c 0,97,98
 277 162 277 162 272.5 144.5 c 128,-1,99
 268 127 268 127 267.5 110.5 c 128,-1,100
 267 94 267 94 271.5 81 c 128,-1,101
 276 68 276 68 286 62 c 0,102,103
 303 51 303 51 321 55 c 128,-1,104
 339 59 339 59 355.5 70.5 c 128,-1,105
 372 82 372 82 385.5 98.5 c 128,-1,106
 399 115 399 115 407 129 c 0,107,108
 423 158 423 158 436 188 c 128,-1,109
 449 218 449 218 455 248 c 0,89,90
EndSplineSet
EndChar
StartChar: A
Encoding: 65 65 34
Width: 444
Flags: W
Fore
438 0 m 1,0,-1
 368 -12 l 1,1,-1
 344 124 l 1,2,-1
 151 124 l 1,3,-1
 71 -12 l 1,4,-1
 6 0 l 1,5,-1
 284 455 l 2,6,7
 288 461 288 461 298 472.5 c 128,-1,8
 308 484 308 484 320 490 c 0,9,10
 326 493 326 493 333 492 c 128,-1,11
 340 491 340 491 347 488 c 128,-1,12
 354 485 354 485 359 481 c 128,-1,13
 364 477 364 477 366 474 c 0,14,15
 373 465 373 465 366 456 c 128,-1,16
 359 447 359 447 356 443 c 1,17,-1
 438 0 l 1,0,-1
301 377 m 1,18,-1
 188 186 l 1,19,-1
 333 186 l 1,20,-1
 301 377 l 1,18,-1
EndSplineSet
EndChar
StartChar: B
Encoding: 66 66 35
Width: 423
Flags: W
Fore
364 348 m 0,0,1
 372 385 372 385 357.5 396 c 128,-1,2
 343 407 343 407 304 407 c 2,3,-1
 221 407 l 1,4,-1
 194 279 l 1,5,-1
 270 279 l 2,6,7
 304 279 304 279 330.5 296.5 c 128,-1,8
 357 314 357 314 364 348 c 0,0,1
347 143 m 0,9,10
 355 182 355 182 330.5 197.5 c 128,-1,11
 306 213 306 213 265 213 c 2,12,-1
 179 213 l 1,13,-1
 148 67 l 1,14,-1
 248 67 l 2,15,16
 293 67 293 67 315.5 83 c 128,-1,17
 338 99 338 99 347 143 c 0,9,10
151 394 m 2,18,19
 153 403 153 403 148.5 410 c 128,-1,20
 144 417 144 417 139.5 423 c 128,-1,21
 135 429 135 429 132 435 c 128,-1,22
 129 441 129 441 134 448 c 0,23,24
 137 453 137 453 143.5 460 c 128,-1,25
 150 467 150 467 157 473 c 128,-1,26
 164 479 164 479 171.5 482.5 c 128,-1,27
 179 486 179 486 185 483 c 0,28,29
 188 481 188 481 191 479.5 c 128,-1,30
 194 478 194 478 198 476 c 1,31,-1
 327 476 l 2,32,33
 383 476 383 476 413.5 441.5 c 128,-1,34
 444 407 444 407 432 351 c 0,35,36
 424 316 424 316 406 292 c 128,-1,37
 388 268 388 268 365 254 c 1,38,39
 392 240 392 240 407 212 c 128,-1,40
 422 184 422 184 414 144 c 0,41,42
 400 76 400 76 357 38 c 128,-1,43
 314 0 314 0 251 0 c 2,44,-1
 68 0 l 1,45,-1
 151 394 l 2,18,19
EndSplineSet
EndChar
StartChar: C
Encoding: 67 67 36
Width: 430
Flags: W
Fore
416 52 m 1,0,1
 386 26 386 26 351.5 12.5 c 128,-1,2
 317 -1 317 -1 284 -5 c 128,-1,3
 251 -9 251 -9 222 -6 c 128,-1,4
 193 -3 193 -3 174 5 c 0,5,6
 156 12 156 12 135.5 27 c 128,-1,7
 115 42 115 42 100 69 c 128,-1,8
 85 96 85 96 80 137.5 c 128,-1,9
 75 179 75 179 87 238 c 0,10,11
 100 297 100 297 122.5 338 c 128,-1,12
 145 379 145 379 171.5 406 c 128,-1,13
 198 433 198 433 224.5 448 c 128,-1,14
 251 463 251 463 272 470 c 0,15,16
 299 479 299 479 328.5 481.5 c 128,-1,17
 358 484 358 484 386 479.5 c 128,-1,18
 414 475 414 475 438.5 463 c 128,-1,19
 463 451 463 451 480 431 c 1,20,-1
 475 423 l 2,21,22
 471 417 471 417 462.5 404.5 c 128,-1,23
 454 392 454 392 438 369 c 1,24,25
 415 394 415 394 388 403 c 128,-1,26
 361 412 361 412 338 412 c 0,27,28
 311 412 311 412 283 404 c 0,29,30
 237 389 237 389 204 345 c 128,-1,31
 171 301 171 301 157 238 c 256,32,33
 143 175 143 175 158 131 c 128,-1,34
 173 87 173 87 213 71 c 0,35,36
 240 62 240 62 268 61 c 0,37,38
 292 60 292 60 322 68 c 128,-1,39
 352 76 352 76 382 102 c 1,40,-1
 416 52 l 1,41,-1
 416 52 l 1,0,1
EndSplineSet
EndChar
StartChar: D
Encoding: 68 68 37
Width: 453
Flags: W
Fore
403 238 m 0,0,1
 439 408 439 408 272 408 c 2,2,-1
 216 408 l 1,3,-1
 144 68 l 1,4,-1
 223 68 l 2,5,6
 301 68 301 68 343.5 113.5 c 128,-1,7
 386 159 386 159 403 238 c 0,0,1
301 475 m 2,8,9
 412 475 412 475 454 412 c 128,-1,10
 496 349 496 349 473 238 c 0,11,12
 449 123 449 123 379 61.5 c 128,-1,13
 309 0 309 0 201 0 c 2,14,-1
 63 0 l 1,15,-1
 146 394 l 2,16,17
 148 403 148 403 143.5 410 c 128,-1,18
 139 417 139 417 134.5 423 c 128,-1,19
 130 429 130 429 127 435 c 128,-1,20
 124 441 124 441 129 448 c 0,21,22
 132 453 132 453 138.5 460 c 128,-1,23
 145 467 145 467 152 473 c 128,-1,24
 159 479 159 479 166.5 482.5 c 128,-1,25
 174 486 174 486 180 483 c 0,26,27
 186 479 l 128,-1,28
 192 475 l 1,29,-1
 301 475 l 2,8,9
EndSplineSet
EndChar
StartChar: E
Encoding: 69 69 38
Width: 377
Flags: W
Fore
137 394 m 2,0,1
 139 403 139 403 134.5 410 c 128,-1,2
 130 417 130 417 125.5 423 c 128,-1,3
 121 429 121 429 118 435 c 128,-1,4
 115 441 115 441 120 448 c 0,5,6
 123 453 123 453 129.5 460 c 128,-1,7
 136 467 136 467 143 473 c 128,-1,8
 150 479 150 479 157.5 482.5 c 128,-1,9
 165 486 165 486 171 483 c 0,10,11
 174 481 174 481 177 479.5 c 128,-1,12
 180 478 180 478 184 476 c 1,13,-1
 422 476 l 1,14,-1
 407 408 l 1,15,-1
 208 408 l 1,16,-1
 181 281 l 1,17,-1
 359 281 l 1,18,-1
 345 213 l 1,19,-1
 167 213 l 1,20,-1
 136 67 l 1,21,-1
 334 67 l 1,22,-1
 320 0 l 1,23,-1
 54 0 l 1,24,-1
 137 394 l 2,0,1
EndSplineSet
EndChar
StartChar: F
Encoding: 70 70 39
Width: 356
Flags: W
Fore
140 394 m 2,0,1
 142 403 142 403 137.5 410 c 128,-1,2
 133 417 133 417 128.5 423 c 128,-1,3
 124 429 124 429 121 435 c 128,-1,4
 118 441 118 441 123 448 c 0,5,6
 126 453 126 453 132.5 460 c 128,-1,7
 139 467 139 467 146 473 c 128,-1,8
 153 479 153 479 160.5 482.5 c 128,-1,9
 168 486 168 486 174 483 c 0,10,11
 177 481 177 481 180 479.5 c 128,-1,12
 183 478 183 478 187 476 c 1,13,-1
 424 476 l 1,14,-1
 409 409 l 1,15,-1
 212 409 l 1,16,-1
 185 281 l 1,17,-1
 363 281 l 1,18,-1
 349 214 l 1,19,-1
 170 214 l 1,20,-1
 125 0 l 1,21,-1
 57 0 l 1,22,-1
 140 394 l 2,0,1
EndSplineSet
EndChar
StartChar: G
Encoding: 71 71 40
Width: 459
Flags: W
Fore
411 259 m 1,0,1
 425 270 425 270 435 271 c 0,2,3
 442 272 442 272 448 268 c 128,-1,4
 454 264 454 264 458.5 258 c 128,-1,5
 463 252 463 252 465.5 245.5 c 128,-1,6
 468 239 468 239 468 235 c 0,7,8
 469 227 469 227 464.5 222 c 128,-1,9
 460 217 460 217 454 211.5 c 128,-1,10
 442 200.5 l 128,-1,11
 436 195 436 195 434 186 c 2,12,-1
 400 27 l 1,13,14
 355 9 355 9 314.5 0.5 c 128,-1,15
 274 -8 274 -8 229 -8 c 0,16,17
 180 -8 180 -8 149 12.5 c 128,-1,18
 118 33 118 33 102.5 67 c 128,-1,19
 87 101 87 101 86 145.5 c 128,-1,20
 85 190 85 190 95 239 c 0,21,22
 105 284 105 284 126 328 c 128,-1,23
 147 372 147 372 177.5 407 c 128,-1,24
 208 442 208 442 247.5 464 c 128,-1,25
 287 486 287 486 334 486 c 0,26,27
 344 486 344 486 366.5 484 c 128,-1,28
 389 482 389 482 412.5 471 c 128,-1,29
 436 460 436 460 454 436 c 128,-1,30
 472 412 472 412 474 369 c 1,31,-1
 405 346 l 1,32,33
 405 372 405 372 394.5 386.5 c 128,-1,34
 384 401 384 401 370.5 408 c 128,-1,35
 357 415 357 415 342.5 416.5 c 128,-1,36
 328 418 328 418 319 418 c 0,37,38
 287 418 287 418 261 401.5 c 128,-1,39
 235 385 235 385 216 359.5 c 128,-1,40
 197 334 197 334 184 302 c 128,-1,41
 171 270 171 270 164 239 c 0,42,43
 156 200 156 200 156 167 c 128,-1,44
 156 134 156 134 166.5 110.5 c 128,-1,45
 177 87 177 87 200.5 73.5 c 128,-1,46
 224 60 224 60 262 60 c 0,47,48
 282 60 282 60 303 65 c 128,-1,49
 324 70 324 70 347 77 c 1,50,-1
 371 190 l 1,51,-1
 269 190 l 1,52,-1
 284 259 l 1,53,-1
 411 259 l 1,0,1
EndSplineSet
EndChar
StartChar: H
Encoding: 72 72 41
Width: 453
Flags: W
Fore
328 0 m 1,0,-1
 373 213 l 1,1,-1
 171 213 l 1,2,-1
 126 0 l 1,3,-1
 59 0 l 1,4,-1
 160 477 l 1,5,-1
 227 477 l 1,6,-1
 185 281 l 1,7,-1
 387 281 l 1,8,-1
 429 477 l 1,9,-1
 495 477 l 1,10,-1
 394 0 l 1,11,-1
 328 0 l 1,0,-1
EndSplineSet
EndChar
StartChar: I
Encoding: 73 73 42
Width: 183
Flags: W
Fore
59 0 m 1,0,-1
 160 477 l 1,1,-1
 226 477 l 1,2,-1
 125 0 l 1,3,-1
 59 0 l 1,0,-1
EndSplineSet
EndChar
StartChar: J
Encoding: 74 74 43
Width: 301
Flags: W
Fore
259 124 m 1,0,1
 244 74 244 74 218 43.5 c 128,-1,2
 192 13 192 13 159.5 1 c 128,-1,3
 127 -11 127 -11 91 -6 c 128,-1,4
 55 -1 55 -1 20 19 c 1,5,-1
 56 83 l 1,6,7
 67 68 67 68 87 60.5 c 128,-1,8
 107 53 107 53 128 56.5 c 128,-1,9
 149 60 149 60 167 74.5 c 128,-1,10
 185 89 185 89 191 118 c 2,11,-1
 267 477 l 1,12,-1
 334 477 l 1,13,-1
 259 124 l 1,14,-1
 259 124 l 1,0,1
EndSplineSet
EndChar
StartChar: K
Encoding: 75 75 44
Width: 425
Flags: W
Fore
343 -6 m 1,0,-1
 175 217 l 1,1,-1
 129 0 l 1,2,-1
 61 0 l 1,3,-1
 162 477 l 1,4,-1
 230 477 l 1,5,-1
 188 279 l 1,6,-1
 440 488 l 1,7,-1
 507 468 l 1,8,-1
 236 248 l 1,9,-1
 421 0 l 1,10,-1
 343 -6 l 1,0,-1
EndSplineSet
EndChar
StartChar: L
Encoding: 76 76 45
Width: 367
Flags: W
Fore
106 0 m 1,0,1
 100 -5 100 -5 90.5 -8.5 c 128,-1,2
 81 -12 81 -12 78 -14 c 1,3,4
 70 -17 70 -17 64 -13.5 c 128,-1,5
 58 -10 58 -10 53 -4 c 128,-1,6
 48 2 48 2 45 9 c 128,-1,7
 42 16 42 16 41 21 c 0,8,9
 39 28 39 28 44.5 34 c 128,-1,10
 50 40 50 40 57.5 46 c 128,-1,11
 65 52 65 52 72 59 c 128,-1,12
 79 66 79 66 81 75 c 2,13,14
 90 116 l 2,15,16
 94 134 94 134 100 162.5 c 128,-1,17
 106 191 106 191 115 234 c 128,-1,18
 124 277 124 277 137 337 c 128,-1,19
 150 397 150 397 167 477 c 1,20,-1
 235 477 l 1,21,-1
 146 61 l 1,22,-1
 360 61 l 1,23,-1
 348 0 l 1,24,-1
 106 0 l 1,0,1
EndSplineSet
EndChar
StartChar: M
Encoding: 77 77 46
Width: 659
Flags: W
Fore
367 23 m 1,0,1
 368 18 368 18 368 16 c 128,-1,2
 368 14 368 14 368 13 c 256,3,4
 368 12 368 12 367 12 c 1,5,6
 367 3 367 3 357 -3.5 c 128,-1,7
 347 -10 347 -10 335.5 -13 c 128,-1,8
 324 -16 324 -16 314.5 -13.5 c 128,-1,9
 305 -11 305 -11 306 -2 c 1,10,-1
 233 345 l 1,11,-1
 85 -10 l 1,12,-1
 22 1 l 1,13,-1
 207 433 l 1,14,15
 202 444 202 444 198.5 451.5 c 128,-1,16
 195 459 195 459 202 468 c 1,17,18
 206 471 206 471 213.5 475.5 c 128,-1,19
 221 480 221 480 229.5 483.5 c 128,-1,20
 238 487 238 487 245.5 488.5 c 128,-1,21
 253 490 253 490 257 488 c 0,22,23
 267 483 267 483 273 471 c 128,-1,24
 279 459 279 459 281 452 c 2,25,-1
 352 107 l 1,26,-1
 570 452 l 1,27,28
 573 459 573 459 585 471 c 128,-1,29
 597 483 597 483 608 488 c 0,30,31
 613 490 613 490 620.5 488.5 c 128,-1,32
 628 487 628 487 634.5 483.5 c 128,-1,33
 641 480 641 480 647 475.5 c 128,-1,34
 653 471 653 471 655 468 c 1,35,36
 657 459 657 459 651.5 451.5 c 128,-1,37
 646 444 646 444 636 433 c 1,38,-1
 637 1 l 1,39,-1
 568 -10 l 1,40,-1
 572 345 l 1,41,-1
 367 23 l 1,0,1
EndSplineSet
EndChar
StartChar: N
Encoding: 78 78 47
Width: 474
Flags: W
Fore
223 450 m 0,0,1
 240 415 240 415 266 362.5 c 128,-1,2
 292 310 292 310 315 260 c 0,3,4
 342 202 342 202 371 140 c 1,5,-1
 442 475 l 1,6,-1
 509 475 l 1,7,-1
 409 0 l 1,8,-1
 354 0 l 1,9,-1
 200 322 l 1,10,-1
 132 0 l 1,11,-1
 65 0 l 1,12,-1
 149 399 l 2,13,14
 151 408 151 408 147.5 415 c 128,-1,15
 140.5 429 l 128,-1,16
 137 436 137 436 134.5 442.5 c 128,-1,17
 132 449 132 449 137 455 c 0,18,19
 145 466 145 466 161.5 476 c 128,-1,20
 178 486 178 486 191 484 c 0,21,22
 202 482 202 482 210 473 c 128,-1,23
 218 464 218 464 223 450 c 0,0,1
EndSplineSet
EndChar
StartChar: O
Encoding: 79 79 48
Width: 465
Flags: W
Fore
476 239 m 0,0,1
 464 182 464 182 441 136 c 128,-1,2
 418 90 418 90 386 57.5 c 128,-1,3
 354 25 354 25 315 8 c 128,-1,4
 276 -9 276 -9 231 -9 c 0,5,6
 180 -9 180 -9 147.5 11.5 c 128,-1,7
 115 32 115 32 98.5 66.5 c 128,-1,8
 82 101 82 101 80.5 146 c 128,-1,9
 79 191 79 191 89 239 c 0,10,11
 99 284 99 284 119 328 c 128,-1,12
 139 372 139 372 169.5 407 c 128,-1,13
 200 442 200 442 241.5 464 c 128,-1,14
 283 486 283 486 336 486 c 0,15,16
 386 486 386 486 418 465 c 128,-1,17
 450 444 450 444 466.5 409.5 c 128,-1,18
 483 375 483 375 484.5 330.5 c 128,-1,19
 486 286 486 286 476 239 c 0,0,1
408 239 m 0,20,21
 414 267 414 267 414.5 299 c 128,-1,22
 415 331 415 331 406 358 c 128,-1,23
 397 385 397 385 377 402.5 c 128,-1,24
 357 420 357 420 322 420 c 256,25,26
 287 420 287 420 259.5 404 c 128,-1,27
 232 388 232 388 211.5 362 c 128,-1,28
 191 336 191 336 177 304 c 128,-1,29
 163 272 163 272 156 239 c 0,30,31
 150 210 150 210 149.5 178 c 128,-1,32
 149 146 149 146 158.5 119 c 128,-1,33
 168 92 168 92 188.5 74.5 c 128,-1,34
 209 57 209 57 245 57 c 0,35,36
 279 57 279 57 306.5 74 c 128,-1,37
 334 91 334 91 354.5 117.5 c 128,-1,38
 375 144 375 144 388.5 176 c 128,-1,39
 402 208 402 208 408 239 c 0,20,21
EndSplineSet
EndChar
StartChar: P
Encoding: 80 80 49
Width: 389
Flags: W
Fore
367 327 m 0,0,1
 376 369 376 369 345 388 c 128,-1,2
 314 407 314 407 251 407 c 0,3,4
 239 407 239 407 225 407 c 128,-1,5
 211 407 211 407 208 405 c 1,6,-1
 172 238 l 1,7,-1
 215 238 l 2,8,9
 282 238 282 238 319 258.5 c 128,-1,10
 356 279 356 279 367 327 c 0,0,1
141 394 m 2,11,12
 143 403 143 403 138.5 410 c 128,-1,13
 134 417 134 417 129.5 423 c 128,-1,14
 125 429 125 429 122 435 c 128,-1,15
 119 441 119 441 124 448 c 0,16,17
 127 453 127 453 133.5 460 c 128,-1,18
 140 467 140 467 147 473 c 128,-1,19
 154 479 154 479 161.5 482.5 c 128,-1,20
 169 486 169 486 175 483 c 0,21,22
 178 481 178 481 181 479.5 c 128,-1,23
 184 478 184 478 188 476 c 1,24,-1
 264 476 l 2,25,26
 304 476 304 476 339 468 c 128,-1,27
 374 460 374 460 398 442.5 c 128,-1,28
 422 425 422 425 433 396.5 c 128,-1,29
 444 368 444 368 435 327 c 0,30,31
 428 295 428 295 411.5 266.5 c 128,-1,32
 395 238 395 238 367 217 c 128,-1,33
 339 196 339 196 299 183.5 c 128,-1,34
 259 171 259 171 205 171 c 2,35,-1
 161 171 l 1,36,-1
 125 0 l 1,37,-1
 58 0 l 1,38,-1
 141 394 l 2,11,12
EndSplineSet
EndChar
StartChar: Q
Encoding: 81 81 50
Width: 478
Flags: W
Fore
411 -21 m 1,0,-1
 359 31 l 1,1,2
 305 -8 305 -8 237 -8 c 0,3,4
 186 -8 186 -8 153.5 11.5 c 128,-1,5
 121 31 121 31 104.5 64.5 c 128,-1,6
 88 98 88 98 86 143 c 128,-1,7
 84 188 84 188 95 239 c 256,8,9
 106 290 106 290 127 334.5 c 128,-1,10
 148 379 148 379 179 412.5 c 128,-1,11
 210 446 210 446 250.5 465.5 c 128,-1,12
 291 485 291 485 342 485 c 0,13,14
 392 485 392 485 424.5 465.5 c 128,-1,15
 457 446 457 446 473.5 412.5 c 128,-1,16
 490 379 490 379 491.5 334 c 128,-1,17
 493 289 493 289 482 239 c 0,18,19
 472 192 472 192 454 152 c 128,-1,20
 436 112 436 112 412 80 c 1,21,-1
 464 29 l 1,22,-1
 411 -21 l 1,0,-1
410 239 m 0,23,24
 417 272 417 272 417.5 304 c 128,-1,25
 418 336 418 336 409 360.5 c 128,-1,26
 400 385 400 385 380 400 c 128,-1,27
 360 415 360 415 327 415 c 0,28,29
 293 415 293 415 266 399.5 c 128,-1,30
 239 384 239 384 219 359 c 128,-1,31
 199 334 199 334 186 302.5 c 128,-1,32
 173 271 173 271 166 239 c 0,33,34
 159 205 159 205 159 173 c 128,-1,35
 159 141 159 141 168.5 116.5 c 128,-1,36
 178 92 178 92 198.5 77 c 128,-1,37
 219 62 219 62 252 62 c 0,38,39
 284 62 284 62 313 79 c 1,40,-1
 276 118 l 1,41,-1
 327 167 l 1,42,-1
 365 128 l 1,43,44
 396 175 396 175 410 239 c 0,23,24
EndSplineSet
EndChar
StartChar: R
Encoding: 82 82 51
Width: 417
Flags: W
Fore
367 327 m 0,0,1
 376 369 376 369 345 388 c 128,-1,2
 314 407 314 407 251 407 c 0,3,4
 239 407 239 407 225 407 c 128,-1,5
 211 407 211 407 208 405 c 1,6,-1
 172 238 l 1,7,-1
 215 238 l 2,8,9
 282 238 282 238 319 258.5 c 128,-1,10
 356 279 356 279 367 327 c 0,0,1
141 394 m 2,11,12
 143 403 143 403 138.5 410 c 128,-1,13
 134 417 134 417 129.5 423 c 128,-1,14
 125 429 125 429 122 435 c 128,-1,15
 119 441 119 441 124 448 c 0,16,17
 127 453 127 453 133.5 460 c 128,-1,18
 140 467 140 467 147 473 c 128,-1,19
 154 479 154 479 161.5 482.5 c 128,-1,20
 169 486 169 486 175 483 c 0,21,22
 178 481 178 481 181 479.5 c 128,-1,23
 184 478 184 478 188 476 c 1,24,-1
 264 476 l 2,25,26
 304 476 304 476 339 468 c 128,-1,27
 374 460 374 460 398 442.5 c 128,-1,28
 422 425 422 425 433 396.5 c 128,-1,29
 444 368 444 368 435 327 c 0,30,31
 428 295 428 295 414 270.5 c 128,-1,32
 400 246 400 246 381.5 229 c 128,-1,33
 363 212 363 212 342 201 c 128,-1,34
 321 190 321 190 300 184 c 1,35,-1
 383 1 l 1,36,-1
 311 -9 l 1,37,-1
 232 171 l 1,38,-1
 161 171 l 1,39,-1
 125 0 l 1,40,-1
 58 0 l 1,41,-1
 141 394 l 2,11,12
EndSplineSet
EndChar
StartChar: S
Encoding: 83 83 52
Width: 419
Flags: W
Fore
404 118 m 0,0,1
 396 89 396 89 378 64 c 128,-1,2
 360 39 360 39 333.5 21 c 128,-1,3
 307 3 307 3 271.5 -7 c 128,-1,4
 236 -17 236 -17 192 -15 c 0,5,6
 134 -13 134 -13 102.5 6.5 c 128,-1,7
 71 26 71 26 51 51 c 1,8,-1
 112 107 l 1,9,10
 126 90 126 90 146.5 72 c 128,-1,11
 167 54 167 54 204 51 c 0,12,13
 221 49 221 49 241 52 c 128,-1,14
 261 55 261 55 279 62 c 128,-1,15
 297 69 297 69 311.5 81 c 128,-1,16
 326 93 326 93 332 111 c 0,17,18
 337 126 337 126 335 137.5 c 128,-1,19
 333 149 333 149 322 160.5 c 128,-1,20
 311 172 311 172 289.5 183 c 128,-1,21
 268 194 268 194 233 208 c 0,22,23
 171 231 171 231 144.5 264 c 128,-1,24
 118 297 118 297 123 339 c 0,25,26
 126 366 126 366 139.5 392.5 c 128,-1,27
 153 419 153 419 177 439.5 c 128,-1,28
 201 460 201 460 233.5 472.5 c 128,-1,29
 266 485 266 485 307 485 c 0,30,31
 324 485 324 485 343.5 482 c 128,-1,32
 363 479 363 479 382 472 c 128,-1,33
 401 465 401 465 417 453 c 128,-1,34
 433 441 433 441 444 424 c 1,35,-1
 398 368 l 1,36,37
 387 384 387 384 360.5 400 c 128,-1,38
 334 416 334 416 294 416 c 0,39,40
 271 416 271 416 254 410 c 128,-1,41
 237 404 237 404 225.5 395.5 c 128,-1,42
 214 387 214 387 208 378 c 128,-1,43
 202 369 202 369 200 363 c 0,44,45
 189 334 189 334 204.5 313 c 128,-1,46
 220 292 220 292 274 272 c 0,47,48
 303 261 303 261 330.5 247.5 c 128,-1,49
 358 234 358 234 377.5 216 c 128,-1,50
 397 198 397 198 405 174 c 128,-1,51
 413 150 413 150 404 118 c 0,0,1
EndSplineSet
EndChar
StartChar: T
Encoding: 84 84 53
Width: 389
Flags: W
Fore
128 411 m 2,0,1
 125 411 125 411 121.5 411.5 c 128,-1,2
 118 412 118 412 114.5 415 c 128,-1,3
 111 418 111 418 109 424.5 c 128,-1,4
 107 431 107 431 108 443 c 0,5,6
 110 464 110 464 121.5 471 c 128,-1,7
 133 478 133 478 147 477 c 2,8,-1
 438 477 l 2,9,10
 452 478 452 478 460.5 471 c 128,-1,11
 469 464 469 464 461 443 c 0,12,13
 456 430 456 430 451.5 423.5 c 128,-1,14
 447 417 447 417 442.5 414.5 c 128,-1,15
 438 412 438 412 434 411.5 c 128,-1,16
 430 411 430 411 426 411 c 2,17,-1
 310 411 l 1,18,-1
 223 0 l 1,19,-1
 156 0 l 1,20,-1
 243 411 l 1,21,-1
 128 411 l 2,0,1
EndSplineSet
EndChar
StartChar: U
Encoding: 85 85 54
Width: 493
Flags: W
Fore
462 158 m 1,0,1
 453 118 453 118 432.5 87 c 128,-1,2
 412 56 412 56 383.5 35 c 128,-1,3
 355 14 355 14 320 3 c 128,-1,4
 285 -8 285 -8 247 -8 c 0,5,6
 207 -8 207 -8 175.5 2 c 128,-1,7
 144 12 144 12 123.5 32.5 c 128,-1,8
 103 53 103 53 96 84.5 c 128,-1,9
 89 116 89 116 98 158 c 2,10,-1
 166 477 l 1,11,-1
 232 477 l 1,12,-1
 163 151 l 2,13,14
 152 100 152 100 180.5 76.5 c 128,-1,15
 209 53 209 53 260 53 c 256,16,17
 311 53 311 53 347.5 76.5 c 128,-1,18
 384 100 384 100 395 151 c 2,19,-1
 464 477 l 1,20,-1
 530 477 l 1,21,-1
 462 158 l 1,22,-1
 462 158 l 1,0,1
EndSplineSet
EndChar
StartChar: V
Encoding: 86 86 55
Width: 465
Flags: W
Fore
116 474 m 1,0,-1
 186 486 l 1,1,-1
 254 98 l 1,2,-1
 484 486 l 1,3,-1
 548 474 l 1,4,-1
 269 16 l 2,5,6
 265 9 265 9 253.5 -2.5 c 128,-1,7
 242 -14 242 -14 230 -19 c 0,8,9
 225 -21 225 -21 218 -19.5 c 128,-1,10
 211 -18 211 -18 204.5 -14.5 c 128,-1,11
 198 -11 198 -11 192 -6.5 c 128,-1,12
 186 -2 186 -2 184 1 c 1,13,14
 181 9 181 9 186.5 16 c 128,-1,15
 192 23 192 23 201 33 c 1,16,-1
 116 474 l 1,0,-1
EndSplineSet
EndChar
StartChar: W
Encoding: 87 87 56
Width: 659
Flags: W
Fore
525 127 m 1,0,-1
 673 482 l 1,1,-1
 737 471 l 1,2,-1
 552 39 l 1,3,4
 557 28 557 28 560 20.5 c 128,-1,5
 563 13 563 13 556 4 c 1,6,7
 552 1 552 1 544.5 -3.5 c 128,-1,8
 537 -8 537 -8 529 -11.5 c 128,-1,9
 521 -15 521 -15 513 -16.5 c 128,-1,10
 505 -18 505 -18 501 -16 c 0,11,12
 492 -11 492 -11 485.5 1 c 128,-1,13
 479 13 479 13 478 20 c 2,14,-1
 407 365 l 1,15,-1
 189 20 l 2,16,17
 185 13 185 13 173.5 1 c 128,-1,18
 162 -11 162 -11 150 -16 c 0,19,20
 145 -18 145 -18 138 -16.5 c 128,-1,21
 131 -15 131 -15 124 -11.5 c 128,-1,22
 117 -8 117 -8 111 -3.5 c 128,-1,23
 105 1 105 1 103 4 c 1,24,25
 101 13 101 13 107 20.5 c 128,-1,26
 113 28 113 28 123 39 c 1,27,-1
 122 471 l 1,28,-1
 190 482 l 1,29,-1
 186 127 l 1,30,-1
 407 474 l 1,31,32
 410 483 410 483 420.5 485.5 c 128,-1,33
 431 488 431 488 441.5 485 c 128,-1,34
 452 482 452 482 458.5 475.5 c 128,-1,35
 465 469 465 469 462 460 c 1,36,37
 463 460 463 460 463 459 c 0,38,39
 463 456 463 456 458 449 c 1,40,-1
 525 127 l 1,0,-1
EndSplineSet
EndChar
StartChar: X
Encoding: 88 88 57
Width: 441
Flags: W
Fore
353 -6 m 1,0,-1
 263 197 l 1,1,-1
 87 -4 l 1,2,-1
 26 10 l 1,3,-1
 242 253 l 1,4,-1
 139 468 l 1,5,-1
 210 481 l 1,6,-1
 285 301 l 1,7,-1
 440 480 l 1,8,-1
 503 468 l 1,9,-1
 305 246 l 1,10,-1
 420 8 l 1,11,-1
 353 -6 l 1,0,-1
EndSplineSet
EndChar
StartChar: Y
Encoding: 89 89 58
Width: 400
Flags: W
Fore
484 474 m 1,0,1
 475 463 l 130,-1,2
 466 452 466 452 451.5 434.5 c 128,-1,3
 437 417 437 417 418.5 394.5 c 128,-1,4
 400 372 400 372 381 349 c 0,5,6
 335 294 335 294 278 224 c 1,7,-1
 231 0 l 1,8,-1
 166 0 l 1,9,-1
 213 224 l 1,10,11
 185 294 185 294 163 349 c 0,12,13
 154 373 154 373 145 395.5 c 128,-1,14
 136 418 136 418 129 435.5 c 128,-1,15
 122 453 122 453 118 464 c 128,-1,16
 114 474 114 474 114 475 c 1,17,-1
 179 487 l 1,18,-1
 256 274 l 1,19,-1
 425 486 l 1,20,-1
 484 474 l 1,21,-1
 484 474 l 1,0,1
EndSplineSet
EndChar
StartChar: Z
Encoding: 90 90 59
Width: 406
Flags: W
Fore
114 410 m 1,0,-1
 127 475 l 1,1,-1
 422 475 l 1,2,3
 427 477 427 477 434.5 480.5 c 128,-1,4
 442 484 442 484 446 486 c 0,5,6
 460 491 460 491 468 480.5 c 128,-1,7
 476 470 476 470 481 450 c 0,8,9
 483 443 483 443 477.5 436.5 c 128,-1,10
 472 430 472 430 463.5 423.5 c 128,-1,11
 455 417 455 417 445.5 410.5 c 128,-1,12
 436 404 436 404 430 396 c 2,13,-1
 146 65 l 1,14,-1
 393 65 l 1,15,-1
 380 0 l 1,16,-1
 82 0 l 1,17,18
 77 -2 77 -2 69.5 -5.5 c 128,-1,19
 62 -9 62 -9 58 -11 c 0,20,21
 44 -16 44 -16 36 -5.5 c 128,-1,22
 28 5 28 5 23 25 c 0,23,24
 21 32 21 32 26.5 38.5 c 128,-1,25
 32 45 32 45 40.5 51.5 c 128,-1,26
 49 58 49 58 58.5 64.5 c 128,-1,27
 68 71 68 71 74 79 c 2,28,-1
 358 410 l 1,29,-1
 114 410 l 1,0,-1
EndSplineSet
EndChar
StartChar: bracketleft
Encoding: 91 91 60
Width: 245
Flags: W
Fore
29 -92 m 1,0,-1
 154 497 l 1,1,-1
 292 497 l 1,2,-1
 279 433 l 1,3,-1
 202 433 l 1,4,-1
 103 -29 l 1,5,-1
 180 -29 l 1,6,-1
 167 -92 l 1,7,-1
 29 -92 l 1,0,-1
EndSplineSet
EndChar
StartChar: backslash
Encoding: 92 92 61
Width: 225
Flags: W
Fore
176 -17 m 1,0,-1
 91 497 l 1,1,-1
 151 497 l 1,2,-1
 236 -17 l 1,3,-1
 176 -17 l 1,0,-1
EndSplineSet
EndChar
StartChar: bracketright
Encoding: 93 93 62
Width: 246
Flags: W
Fore
38 -92 m 1,0,-1
 51 -29 l 1,1,-1
 128 -29 l 1,2,-1
 227 433 l 1,3,-1
 150 433 l 1,4,-1
 163 497 l 1,5,-1
 301 497 l 1,6,-1
 176 -92 l 1,7,-1
 38 -92 l 1,0,-1
EndSplineSet
EndChar
StartChar: asciicircum
Encoding: 94 94 63
Width: 401
Flags: W
Fore
319 213 m 1,0,-1
 282 394 l 1,1,-1
 170 213 l 1,2,-1
 99 213 l 1,3,-1
 258 467 l 1,4,-1
 339 467 l 1,5,-1
 390 213 l 1,6,-1
 319 213 l 1,0,-1
EndSplineSet
EndChar
StartChar: underscore
Encoding: 95 95 64
Width: 372
Flags: W
Fore
-21 -100 m 1,0,-1
 -10 -50 l 1,1,-1
 361 -50 l 1,2,-1
 350 -100 l 1,3,-1
 -21 -100 l 1,0,-1
EndSplineSet
EndChar
StartChar: grave
Encoding: 96 96 65
Width: 216
Flags: W
Fore
263 386 m 1,0,-1
 205 386 l 1,1,-1
 127 491 l 1,2,-1
 220 490 l 1,3,-1
 263 386 l 1,0,-1
EndSplineSet
EndChar
StartChar: a
Encoding: 97 97 66
Width: 405
Flags: W
Fore
320 156 m 0,0,1
 322 168 322 168 323.5 175 c 128,-1,2
 325 182 325 182 326 186 c 2,3,-1
 327 191 l 1,4,5
 328 209 328 209 325.5 227 c 128,-1,6
 323 245 323 245 314.5 259.5 c 128,-1,7
 306 274 306 274 290.5 283.5 c 128,-1,8
 275 293 275 293 252 293 c 0,9,10
 226 293 226 293 205.5 281 c 128,-1,11
 185 269 185 269 170 251 c 128,-1,12
 155 233 155 233 145.5 212 c 128,-1,13
 136 191 136 191 132 173 c 0,14,15
 129 158 129 158 129 137 c 128,-1,16
 129 116 129 116 135.5 97.5 c 128,-1,17
 142 79 142 79 157.5 66 c 128,-1,18
 173 53 173 53 201 53 c 0,19,20
 223 53 223 53 242.5 62 c 128,-1,21
 262 71 262 71 277 85.5 c 128,-1,22
 292 100 292 100 303 118.5 c 128,-1,23
 314 137 314 137 320 156 c 0,0,1
297 29 m 1,24,25
 273 10 273 10 245.5 2 c 128,-1,26
 218 -6 218 -6 188 -6 c 0,27,28
 148 -6 148 -6 122.5 10 c 128,-1,29
 97 26 97 26 83 51.5 c 128,-1,30
 69 77 69 77 66.5 109 c 128,-1,31
 64 141 64 141 71 173 c 0,32,33
 78 206 78 206 94.5 238 c 128,-1,34
 111 270 111 270 135.5 295.5 c 128,-1,35
 160 321 160 321 192.5 337 c 128,-1,36
 225 353 225 353 265 353 c 0,37,38
 294 353 294 353 316.5 341.5 c 128,-1,39
 339 330 339 330 354 312 c 1,40,41
 355 316 355 316 356 321 c 0,42,43
 357 328 357 328 362 349 c 1,44,-1
 425 349 l 1,45,-1
 368 82 l 2,46,47
 361 52 361 52 362 37.5 c 128,-1,48
 363 23 363 23 367 6 c 1,49,-1
 305 -14 l 1,50,51
 300 -1 300 -1 298 8.5 c 128,-1,52
 296 18 296 18 297 29 c 1,24,25
EndSplineSet
Substitution: 0 65534 'L026' uni0E38
Substitution: 0 65534 'L026' uni0E38
EndChar
StartChar: b
Encoding: 98 98 67
Width: 403
Flags: W
Fore
125 35 m 1,0,1
 120 24 120 24 113.5 14.5 c 128,-1,2
 107 5 107 5 98 -8 c 1,3,-1
 44 12 l 1,4,5
 55 29 55 29 62 43.5 c 128,-1,6
 69 58 69 58 75 88 c 1,7,8
 74 87 74 87 83 128 c 0,9,10
 87 146 87 146 93 174 c 128,-1,11
 99 202 99 202 108 245.5 c 128,-1,12
 117 289 117 289 130 348.5 c 128,-1,13
 143 408 143 408 160 489 c 1,14,-1
 222 489 l 1,15,16
 211 439 211 439 204.5 406 c 128,-1,17
 198 373 198 373 193 352 c 0,18,19
 188 327 188 327 185 313 c 1,20,21
 208 331 208 331 236 342.5 c 128,-1,22
 264 354 264 354 293 354 c 0,23,24
 333 354 333 354 358.5 338.5 c 128,-1,25
 384 323 384 323 398 297.5 c 128,-1,26
 412 272 412 272 414.5 240 c 128,-1,27
 417 208 417 208 410 176 c 0,28,29
 403 143 403 143 387 111 c 128,-1,30
 371 79 371 79 346.5 53.5 c 128,-1,31
 322 28 322 28 289.5 12 c 128,-1,32
 257 -4 257 -4 217 -4 c 0,33,34
 159 -4 159 -4 125 35 c 1,0,1
349 176 m 0,35,36
 352 191 352 191 352.5 211.5 c 128,-1,37
 353 232 353 232 346 250.5 c 128,-1,38
 339 269 339 269 323.5 282 c 128,-1,39
 308 295 308 295 280 295 c 0,40,41
 257 295 257 295 237.5 285 c 128,-1,42
 218 275 218 275 203 259 c 128,-1,43
 188 243 188 243 177 224.5 c 128,-1,44
 166 206 166 206 160 188 c 1,45,46
 160 187 160 187 159 182 c 128,-1,47
 158 177 158 177 156.5 171 c 128,-1,48
 155 165 155 165 154 159.5 c 128,-1,49
 153 155 153 155 153 154 c 0,50,51
 151 135 151 135 154.5 117 c 128,-1,52
 158 99 158 99 167 85.5 c 128,-1,53
 176 72 176 72 191.5 64 c 128,-1,54
 207 56 207 56 229 56 c 0,55,56
 257 56 257 56 278 69 c 128,-1,57
 299 82 299 82 313.5 100.5 c 128,-1,58
 328 119 328 119 337 139.5 c 128,-1,59
 346 160 346 160 349 176 c 0,35,36
EndSplineSet
Substitution: 0 65534 'L026' uni0E39
Substitution: 0 65534 'L026' uni0E39
EndChar
StartChar: c
Encoding: 99 99 68
Width: 326
Flags: W
Fore
302 33 m 2,0,1
 260 1 260 1 212 -6 c 128,-1,2
 164 -13 164 -13 126.5 4.5 c 128,-1,3
 89 22 89 22 69.5 64.5 c 128,-1,4
 50 107 50 107 65 175 c 0,5,6
 79 242 79 242 115.5 285 c 128,-1,7
 152 328 152 328 196 345.5 c 128,-1,8
 240 363 240 363 284.5 355 c 128,-1,9
 329 347 329 347 360 313 c 1,10,-1
 319 253 l 1,11,12
 301 285 301 285 271.5 293 c 128,-1,13
 242 301 242 301 218 293 c 0,14,15
 183 281 183 281 159 250 c 128,-1,16
 135 219 135 219 126 175 c 0,17,18
 116 130 116 130 127.5 99.5 c 128,-1,19
 139 69 139 69 168 58 c 0,20,21
 187 50 187 50 219.5 54 c 128,-1,22
 252 58 252 58 283 88 c 1,23,-1
 313 42 l 1,24,-1
 302 33 l 2,0,1
EndSplineSet
Substitution: 0 65534 'L026' uni0E3A
Substitution: 0 65534 'L026' uni0E3A
EndChar
StartChar: d
Encoding: 100 100 69
Width: 403
Flags: W
Fore
368 88 m 2,0,1
 362 58 362 58 362.5 43.5 c 128,-1,2
 363 29 363 29 367 12 c 1,3,-1
 305 -8 l 1,4,5
 300 5 300 5 298 14 c 128,-1,6
 296 23 296 23 296 34 c 1,7,8
 246 -4 246 -4 188 -4 c 0,9,10
 148 -4 148 -4 122 12 c 128,-1,11
 96 28 96 28 82.5 53.5 c 128,-1,12
 69 79 69 79 66.5 111 c 128,-1,13
 64 143 64 143 71 176 c 0,14,15
 78 208 78 208 94 240 c 128,-1,16
 110 272 110 272 134.5 297.5 c 128,-1,17
 159 323 159 323 191.5 338.5 c 128,-1,18
 224 354 224 354 264 354 c 0,19,20
 293 354 293 354 315.5 342.5 c 128,-1,21
 338 331 338 331 354 313 c 1,22,-1
 391 489 l 1,23,-1
 453 489 l 1,24,-1
 368 88 l 2,0,1
132 176 m 0,25,26
 129 160 129 160 128.5 139.5 c 128,-1,27
 128 119 128 119 134.5 100.5 c 128,-1,28
 141 82 141 82 156.5 69 c 128,-1,29
 172 56 172 56 200 56 c 0,30,31
 222 56 222 56 241 64 c 128,-1,32
 260 72 260 72 275 85.5 c 128,-1,33
 290 99 290 99 301 117 c 128,-1,34
 312 135 312 135 318 154 c 2,35,-1
 325 188 l 1,36,37
 326 206 326 206 323.5 224.5 c 128,-1,38
 321 243 321 243 312.5 259 c 128,-1,39
 304 275 304 275 289 285 c 128,-1,40
 274 295 274 295 251 295 c 0,41,42
 223 295 223 295 202 282 c 128,-1,43
 181 269 181 269 166.5 250.5 c 128,-1,44
 152 232 152 232 143.5 211.5 c 128,-1,45
 135 191 135 191 132 176 c 0,25,26
EndSplineSet
EndChar
StartChar: e
Encoding: 101 101 70
Width: 391
Flags: W
Fore
396 180 m 1,0,1
 391 161 391 161 380 153.5 c 128,-1,2
 369 146 369 146 349 146 c 2,3,-1
 132 146 l 1,4,5
 128 111 128 111 142.5 88.5 c 128,-1,6
 157 66 157 66 178 57 c 0,7,8
 203 46 203 46 232 51.5 c 128,-1,9
 261 57 261 57 302 80 c 1,10,-1
 330 33 l 1,11,12
 314 21 314 21 289.5 11 c 128,-1,13
 265 1 265 1 237 -3 c 128,-1,14
 209 -7 209 -7 181.5 -5 c 128,-1,15
 154 -3 154 -3 132 9 c 0,16,17
 90 31 90 31 73.5 73.5 c 128,-1,18
 57 116 57 116 69 173 c 0,19,20
 75 200 75 200 91 231.5 c 128,-1,21
 107 263 107 263 132.5 290 c 128,-1,22
 158 317 158 317 194 335 c 128,-1,23
 230 353 230 353 276 353 c 0,24,25
 341 353 341 353 373 314 c 0,26,27
 385 299 385 299 391.5 281 c 128,-1,28
 398 263 398 263 399.5 245 c 128,-1,29
 401 227 401 227 400 211 c 128,-1,30
 399 195 399 195 396 183 c 1,31,-1
 396 180 l 1,0,1
336 205 m 1,32,33
 344 242 344 242 323.5 269.5 c 128,-1,34
 303 297 303 297 262 297 c 0,35,36
 236 297 236 297 216.5 287.5 c 128,-1,37
 197 278 197 278 183 263.5 c 128,-1,38
 169 249 169 249 159.5 233 c 128,-1,39
 150 217 150 217 146 205 c 1,40,-1
 336 205 l 1,32,33
EndSplineSet
EndChar
StartChar: f
Encoding: 102 102 71
Width: 224
Flags: W
Fore
308 427 m 1,0,1
 270 439 270 439 247 432.5 c 128,-1,2
 224 426 224 426 214 381 c 0,3,4
 212 373 212 373 211 368 c 128,-1,5
 209 358 l 256,6,7
 208 353 208 353 208 349 c 1,8,-1
 291 349 l 1,9,-1
 269 298 l 1,10,-1
 197 298 l 1,11,12
 195 287 195 287 188 254 c 0,13,14
 182 225 182 225 169.5 169 c 128,-1,15
 157 113 157 113 137 15 c 0,16,17
 131 -11 131 -11 121 -32.5 c 128,-1,18
 111 -54 111 -54 100 -70 c 128,-1,19
 89 -86 89 -86 80 -96 c 128,-1,20
 71 -106 71 -106 68 -109 c 1,21,-1
 13 -92 l 1,22,23
 41 -66 41 -66 55.5 -40 c 128,-1,24
 70 -14 70 -14 75 14 c 0,25,26
 96 113 96 113 108 169 c 128,-1,27
 120 225 120 225 126 254 c 0,28,29
 133 287 133 287 136 298 c 1,30,-1
 74 298 l 1,31,-1
 96 349 l 1,32,-1
 147 349 l 1,33,-1
 156 394 l 2,34,35
 164 431 164 431 182 452 c 128,-1,36
 200 473 200 473 223.5 482 c 128,-1,37
 247 491 247 491 274.5 489.5 c 128,-1,38
 302 488 302 488 329 480 c 1,39,-1
 308 427 l 1,0,1
EndSplineSet
EndChar
StartChar: g
Encoding: 103 103 72
Width: 403
Flags: W
Fore
404 260 m 2,0,-1
 354 20 l 2,1,2
 335 -62 335 -62 271 -104 c 0,3,4
 229 -131 229 -131 179.5 -137 c 128,-1,5
 130 -143 130 -143 85 -133 c 1,6,-1
 118 -78 l 1,7,8
 156 -86 156 -86 185.5 -81 c 128,-1,9
 215 -76 215 -76 238 -61 c 0,10,11
 282 -31 282 -31 293 31 c 1,12,13
 246 -7 246 -7 186 -7 c 0,14,15
 146 -7 146 -7 120.5 9 c 128,-1,16
 95 25 95 25 81.5 51 c 128,-1,17
 68 77 68 77 65.5 109 c 128,-1,18
 63 141 63 141 70 174 c 0,19,20
 77 206 77 206 93 238.5 c 128,-1,21
 109 271 109 271 133.5 296.5 c 128,-1,22
 158 322 158 322 190.5 338 c 128,-1,23
 223 354 223 354 263 354 c 0,24,25
 324 354 324 354 354 315 c 1,26,27
 359 326 359 326 365.5 334.5 c 128,-1,28
 372 343 372 343 381 356 c 1,29,-1
 437 336 l 1,30,31
 426 319 426 319 418 304.5 c 128,-1,32
 410 290 410 290 404 260 c 2,0,-1
326 190 m 0,33,34
 328 209 328 209 324.5 228 c 128,-1,35
 321 247 321 247 312 261.5 c 128,-1,36
 303 276 303 276 287.5 285 c 128,-1,37
 272 294 272 294 250 294 c 0,38,39
 222 294 222 294 201 281 c 128,-1,40
 180 268 180 268 165 249.5 c 128,-1,41
 150 231 150 231 141 210 c 128,-1,42
 132 189 132 189 129 174 c 0,43,44
 125 156 125 156 126 134.5 c 128,-1,45
 127 113 127 113 134.5 95 c 128,-1,46
 142 77 142 77 157.5 65 c 128,-1,47
 173 53 173 53 199 53 c 0,48,49
 222 53 222 53 241 62.5 c 128,-1,50
 260 72 260 72 275 86.5 c 128,-1,51
 290 101 290 101 300.5 119 c 128,-1,52
 311 137 311 137 317 155 c 2,53,-1
 318 160 l 2,54,55
 319 164 319 164 321 170.5 c 128,-1,56
 323 177 323 177 326 190 c 0,33,34
EndSplineSet
EndChar
StartChar: h
Encoding: 104 104 73
Width: 403
Flags: W
Fore
299 -12 m 1,0,1
 295 1 295 1 292.5 18.5 c 128,-1,2
 290 36 290 36 297 67 c 2,3,-1
 329 220 l 2,4,5
 334 242 334 242 329.5 257 c 128,-1,6
 325 272 325 272 316 281.5 c 128,-1,7
 307 291 307 291 294.5 295 c 128,-1,8
 282 299 282 299 271 299 c 0,9,10
 250 299 250 299 232 290 c 128,-1,11
 214 281 214 281 199.5 266.5 c 128,-1,12
 185 252 185 252 175 234 c 128,-1,13
 165 216 165 216 161 197 c 2,14,-1
 120 0 l 1,15,-1
 59 0 l 1,16,-1
 162 489 l 1,17,-1
 224 489 l 1,18,19
 213 438 213 438 206 405.5 c 128,-1,20
 199 373 199 373 195 353 c 0,21,22
 190 330 190 330 188 317 c 1,23,24
 210 334 210 334 234.5 343.5 c 128,-1,25
 259 353 259 353 285 353 c 0,26,27
 313 353 313 353 335.5 343 c 128,-1,28
 358 333 358 333 372 315 c 128,-1,29
 386 297 386 297 391 272.5 c 128,-1,30
 396 248 396 248 390 220 c 2,31,-1
 358 67 l 2,32,33
 357 63 357 63 355.5 56.5 c 128,-1,34
 354 50 354 50 353.5 42.5 c 128,-1,35
 353 35 353 35 354.5 26 c 128,-1,36
 356 17 356 17 361 9 c 1,37,-1
 299 -12 l 1,0,1
EndSplineSet
EndChar
StartChar: i
Encoding: 105 105 74
Width: 194
Flags: W
Fore
230 436 m 256,0,1
 226 419 226 419 211.5 407 c 128,-1,2
 197 395 197 395 180 395 c 256,3,4
 163 395 163 395 152.5 407 c 128,-1,5
 142 419 142 419 146 436 c 256,6,7
 150 453 150 453 165 465 c 128,-1,8
 180 477 180 477 198 477 c 0,9,10
 215 477 215 477 224.5 465 c 128,-1,11
 234 453 234 453 230 436 c 256,0,1
67 0 m 1,12,-1
 141 349 l 1,13,-1
 201 349 l 1,14,-1
 127 0 l 1,15,-1
 67 0 l 1,12,-1
EndSplineSet
EndChar
StartChar: j
Encoding: 106 106 75
Width: 194
Flags: W
Fore
229 437 m 256,0,1
 225 420 225 420 210.5 408 c 128,-1,2
 196 396 196 396 179 396 c 256,3,4
 162 396 162 396 152 408 c 128,-1,5
 142 420 142 420 145 437 c 0,6,7
 149 454 149 454 164 466 c 128,-1,8
 179 478 179 478 196 478 c 0,9,10
 214 478 214 478 223.5 466 c 128,-1,11
 233 454 233 454 229 437 c 256,0,1
127 2 m 2,12,13
 120 -31 120 -31 109.5 -56 c 128,-1,14
 99 -81 99 -81 79.5 -98.5 c 128,-1,15
 60 -116 60 -116 28 -126.5 c 128,-1,16
 -4 -137 -4 -137 -55 -142 c 1,17,-1
 -68 -89 l 1,18,19
 -26 -86 -26 -86 -1.5 -81 c 128,-1,20
 23 -76 23 -76 36.5 -66 c 128,-1,21
 50 -56 50 -56 55.5 -41 c 128,-1,22
 61 -26 61 -26 66 -2 c 0,23,24
 67 4 67 4 76 43 c 0,25,26
 79 59 79 59 84.5 84.5 c 128,-1,27
 90 110 90 110 98 147 c 128,-1,28
 106 184 106 184 116.5 234 c 128,-1,29
 127 284 127 284 141 349 c 1,30,-1
 201 349 l 1,31,-1
 127 2 l 2,12,13
EndSplineSet
EndChar
StartChar: k
Encoding: 107 107 76
Width: 338
Flags: W
Fore
279 -11 m 1,0,1
 239 40 239 40 213.5 73 c 128,-1,2
 188 106 188 106 174 126 c 0,3,4
 156 149 156 149 148 162 c 1,5,6
 144 147 144 147 140 124 c 0,7,8
 135 104 135 104 129 74 c 128,-1,9
 123 44 123 44 114 0 c 1,10,-1
 52 0 l 1,11,-1
 155 489 l 1,12,-1
 217 489 l 1,13,14
 200 411 200 411 190 362 c 128,-1,15
 180 313 180 313 174 285 c 0,16,17
 167 252 167 252 164 236 c 1,18,19
 176 245 176 245 199 262 c 0,20,21
 219 276 219 276 251 299 c 128,-1,22
 283 322 283 322 334 357 c 1,23,-1
 387 335 l 1,24,25
 322 289 322 289 284 262.5 c 128,-1,26
 246 236 246 236 226 222 c 0,27,28
 202 205 202 205 194 200 c 1,29,30
 199 193 199 193 217 170 c 0,31,32
 232 150 232 150 261 112 c 128,-1,33
 290 74 290 74 340 9 c 1,34,-1
 279 -11 l 1,0,1
EndSplineSet
EndChar
StartChar: l
Encoding: 108 108 77
Width: 195
Flags: W
Fore
67 0 m 1,0,-1
 169 484 l 1,1,-1
 200 507 l 1,2,-1
 235 507 l 1,3,-1
 128 0 l 1,4,-1
 67 0 l 1,0,-1
EndSplineSet
EndChar
StartChar: m
Encoding: 109 109 78
Width: 592
Flags: W
Fore
113 260 m 2,0,1
 119 290 119 290 118.5 304.5 c 128,-1,2
 118 319 118 319 114 336 c 1,3,-1
 176 356 l 1,4,5
 181 343 181 343 182 335.5 c 128,-1,6
 183 328 183 328 183 317 c 1,7,8
 226 353 226 353 278 353 c 0,9,10
 310 353 310 353 333.5 339 c 128,-1,11
 357 325 357 325 368 301 c 1,12,13
 390 325 390 325 421 339 c 128,-1,14
 452 353 452 353 484 353 c 0,15,16
 519 353 519 353 540.5 340.5 c 128,-1,17
 562 328 562 328 572.5 308 c 128,-1,18
 583 288 583 288 584 264 c 128,-1,19
 585 240 585 240 580 216 c 2,20,-1
 549 69 l 2,21,22
 547 54 547 54 547 42 c 0,23,24
 547 31 547 31 548 22 c 128,-1,25
 549 13 549 13 552 11 c 1,26,-1
 490 -11 l 1,27,-1
 487 -1 l 2,28,29
 485 4 485 4 483.5 21 c 128,-1,30
 482 38 482 38 489 69 c 2,31,-1
 522 224 l 2,32,33
 530 259 530 259 517 278 c 128,-1,34
 504 297 504 297 472 297 c 0,35,36
 452 297 452 297 435 288.5 c 128,-1,37
 418 280 418 280 404.5 266.5 c 128,-1,38
 391 253 391 253 382.5 236 c 128,-1,39
 374 219 374 219 370 201 c 2,40,-1
 328 0 l 1,41,-1
 267 0 l 1,42,-1
 314 224 l 2,43,44
 321 257 321 257 305.5 277 c 128,-1,45
 290 297 290 297 257 297 c 0,46,47
 236 297 236 297 220 288.5 c 128,-1,48
 204 280 204 280 192 266 c 128,-1,49
 180 252 180 252 172.5 235 c 128,-1,50
 165 218 165 218 161 201 c 2,51,-1
 119 0 l 1,52,-1
 58 0 l 1,53,-1
 113 260 l 2,0,1
EndSplineSet
EndChar
StartChar: n
Encoding: 110 110 79
Width: 393
Flags: W
Fore
113 260 m 2,0,1
 119 290 119 290 118.5 304.5 c 128,-1,2
 118 319 118 319 114 336 c 1,3,-1
 176 356 l 1,4,5
 181 343 181 343 182 335 c 128,-1,6
 183 327 183 327 183 316 c 1,7,8
 203 333 203 333 229 343.5 c 128,-1,9
 255 354 255 354 282 354 c 0,10,11
 320 354 320 354 341.5 340.5 c 128,-1,12
 363 327 363 327 373 307 c 128,-1,13
 383 287 383 287 384 264 c 128,-1,14
 385 241 385 241 381 223 c 2,15,-1
 348 67 l 2,16,17
 347 64 347 64 346.5 57 c 128,-1,18
 346 50 346 50 346 41 c 128,-1,19
 346 32 346 32 347.5 23.5 c 128,-1,20
 349 15 349 15 352 9 c 1,21,-1
 289 -12 l 1,22,23
 285 1 285 1 283 18.5 c 128,-1,24
 281 36 281 36 288 67 c 2,25,-1
 321 224 l 2,26,27
 328 257 328 257 312 276.5 c 128,-1,28
 296 296 296 296 262 296 c 0,29,30
 242 296 242 296 225.5 288 c 128,-1,31
 209 280 209 280 196 266.5 c 128,-1,32
 183 253 183 253 174.5 236.5 c 128,-1,33
 166 220 166 220 162 202 c 2,34,-1
 120 0 l 1,35,-1
 58 0 l 1,36,-1
 113 260 l 2,0,1
EndSplineSet
EndChar
StartChar: o
Encoding: 111 111 80
Width: 384
Flags: W
Fore
381 174 m 0,0,1
 374 141 374 141 357.5 109 c 128,-1,2
 341 77 341 77 316.5 52 c 128,-1,3
 292 27 292 27 259.5 11.5 c 128,-1,4
 227 -4 227 -4 189 -4 c 0,5,6
 149 -4 149 -4 123 11.5 c 128,-1,7
 97 27 97 27 83 52.5 c 128,-1,8
 69 78 69 78 66.5 110 c 128,-1,9
 64 142 64 142 71 174 c 256,10,11
 78 206 78 206 94 238 c 128,-1,12
 110 270 110 270 134.5 295.5 c 128,-1,13
 159 321 159 321 191.5 336.5 c 128,-1,14
 224 352 224 352 264 352 c 256,15,16
 304 352 304 352 330 336.5 c 128,-1,17
 356 321 356 321 369.5 295.5 c 128,-1,18
 383 270 383 270 385.5 238 c 128,-1,19
 388 206 388 206 381 174 c 0,0,1
319 174 m 0,20,21
 323 193 323 193 322.5 214.5 c 128,-1,22
 322 236 322 236 314.5 254.5 c 128,-1,23
 307 273 307 273 292 285 c 128,-1,24
 277 297 277 297 253 297 c 0,25,26
 230 297 230 297 210 286 c 128,-1,27
 190 275 190 275 174.5 257.5 c 128,-1,28
 159 240 159 240 148 218 c 128,-1,29
 137 196 137 196 132 174 c 256,30,31
 127 152 127 152 128.5 130 c 128,-1,32
 130 108 130 108 138.5 90.5 c 128,-1,33
 147 73 147 73 162 62 c 128,-1,34
 177 51 177 51 200 51 c 0,35,36
 222 51 222 51 242 62 c 128,-1,37
 262 73 262 73 277.5 90.5 c 128,-1,38
 293 108 293 108 303.5 130 c 128,-1,39
 314 152 314 152 319 174 c 0,20,21
EndSplineSet
EndChar
StartChar: p
Encoding: 112 112 81
Width: 403
Flags: W
Fore
347 174 m 256,0,1
 351 192 351 192 350.5 213 c 128,-1,2
 350 234 350 234 343 252.5 c 128,-1,3
 336 271 336 271 320.5 283 c 128,-1,4
 305 295 305 295 279 295 c 0,5,6
 255 295 255 295 235.5 285.5 c 128,-1,7
 216 276 216 276 201 261 c 128,-1,8
 186 246 186 246 176 227.5 c 128,-1,9
 166 209 166 209 160 191 c 0,10,11
 157 178 157 178 156 171.5 c 128,-1,12
 155 165 155 165 154 161 c 2,13,-1
 153 156 l 2,14,15
 151 138 151 138 154 120 c 128,-1,16
 157 102 157 102 165.5 87 c 128,-1,17
 174 72 174 72 189.5 62.5 c 128,-1,18
 205 53 205 53 228 53 c 0,19,20
 254 53 254 53 274.5 65 c 128,-1,21
 295 77 295 77 310 95 c 128,-1,22
 325 113 325 113 334 134.5 c 128,-1,23
 343 156 343 156 347 174 c 256,0,1
183 314 m 1,24,25
 232 354 232 354 292 354 c 0,26,27
 332 354 332 354 357.5 338 c 128,-1,28
 383 322 383 322 396.5 296.5 c 128,-1,29
 410 271 410 271 412.5 239 c 128,-1,30
 415 207 415 207 408 174 c 256,31,32
 401 141 401 141 385 109 c 128,-1,33
 369 77 369 77 344.5 51.5 c 128,-1,34
 320 26 320 26 287.5 10 c 128,-1,35
 255 -6 255 -6 215 -6 c 0,36,37
 155 -6 155 -6 124 30 c 1,38,39
 122 19 122 19 118 4 c 0,40,41
 115 -9 115 -9 111.5 -27.5 c 128,-1,42
 108 -46 108 -46 103 -69 c 0,43,44
 96 -99 96 -99 87 -117 c 128,-1,45
 78 -135 78 -135 68 -148 c 1,46,-1
 18 -127 l 1,47,48
 19 -126 19 -126 22 -119.5 c 128,-1,49
 25 -113 25 -113 29 -104 c 128,-1,50
 33 -95 33 -95 36.5 -86 c 128,-1,51
 40 -77 40 -77 42 -69 c 2,52,-1
 112 260 l 2,53,54
 118 290 118 290 116.5 304.5 c 128,-1,55
 115 319 115 319 111 336 c 1,56,-1
 175 356 l 1,57,58
 180 343 180 343 181.5 334 c 128,-1,59
 183 325 183 325 183 314 c 1,24,25
EndSplineSet
EndChar
StartChar: q
Encoding: 113 113 82
Width: 403
Flags: W
Fore
353 315 m 1,0,1
 358 326 358 326 364 334.5 c 128,-1,2
 370 343 370 343 379 356 c 1,3,-1
 435 336 l 1,4,5
 424 319 424 319 416 304.5 c 128,-1,6
 408 290 408 290 402 260 c 1,7,8
 402 261 402 261 395 228 c 0,9,10
 392 214 392 214 387 190.5 c 128,-1,11
 382 167 382 167 374.5 131.5 c 128,-1,12
 367 96 367 96 356.5 46.5 c 128,-1,13
 346 -3 346 -3 332 -69 c 0,14,15
 329 -83 329 -83 329 -99.5 c 128,-1,16
 329 -116 329 -116 336 -127 c 1,17,-1
 272 -148 l 1,18,19
 268 -135 268 -135 266 -117 c 128,-1,20
 264 -99 264 -99 271 -69 c 0,21,22
 276 -46 276 -46 279.5 -27.5 c 128,-1,23
 283 -9 283 -9 286 4 c 0,24,25
 290 19 290 19 292 30 c 1,26,27
 245 -6 245 -6 185 -6 c 0,28,29
 145 -6 145 -6 119 10 c 128,-1,30
 93 26 93 26 79.5 51.5 c 128,-1,31
 66 77 66 77 63.5 109 c 128,-1,32
 61 141 61 141 68 174 c 256,33,34
 75 207 75 207 91 239 c 128,-1,35
 107 271 107 271 132 296.5 c 128,-1,36
 157 322 157 322 189.5 338 c 128,-1,37
 222 354 222 354 262 354 c 0,38,39
 323 354 323 354 353 315 c 1,0,1
324 190 m 0,40,41
 326 208 326 208 323.5 226.5 c 128,-1,42
 321 245 321 245 312 260.5 c 128,-1,43
 303 276 303 276 288 285.5 c 128,-1,44
 273 295 273 295 249 295 c 0,45,46
 223 295 223 295 202 283 c 128,-1,47
 181 271 181 271 166 252.5 c 128,-1,48
 151 234 151 234 141.5 213 c 128,-1,49
 132 192 132 192 128 174 c 256,50,51
 124 156 124 156 125 134.5 c 128,-1,52
 126 113 126 113 133.5 95 c 128,-1,53
 141 77 141 77 156.5 65 c 128,-1,54
 172 53 172 53 198 53 c 0,55,56
 221 53 221 53 240 62.5 c 128,-1,57
 259 72 259 72 274 87 c 128,-1,58
 289 102 289 102 300 120 c 128,-1,59
 311 138 311 138 317 156 c 2,60,-1
 318 161 l 2,61,62
 319 164 319 164 320 171 c 128,-1,63
 321 178 321 178 324 190 c 0,40,41
EndSplineSet
EndChar
StartChar: r
Encoding: 114 114 83
Width: 265
Flags: W
Fore
116 260 m 2,0,1
 122 290 122 290 121.5 304.5 c 128,-1,2
 121 319 121 319 117 336 c 1,3,-1
 179 356 l 1,4,5
 184 343 184 343 184 336 c 128,-1,6
 184 329 184 329 184 318 c 1,7,8
 223 354 223 354 263.5 358.5 c 128,-1,9
 304 363 304 363 348 337 c 1,10,-1
 297 280 l 1,11,12
 277 296 277 296 256 295.5 c 128,-1,13
 235 295 235 295 216.5 282 c 128,-1,14
 198 269 198 269 184 246 c 128,-1,15
 170 223 170 223 164 193 c 2,16,-1
 123 0 l 1,17,-1
 61 0 l 1,18,-1
 116 260 l 2,0,1
EndSplineSet
EndChar
StartChar: s
Encoding: 115 115 84
Width: 337
Flags: W
Fore
330 97 m 0,0,1
 320 49 320 49 278 22 c 128,-1,2
 236 -5 236 -5 171 -6 c 0,3,4
 145 -6 145 -6 126 -2.5 c 128,-1,5
 107 1 107 1 91 8.5 c 128,-1,6
 75 16 75 16 62 25.5 c 128,-1,7
 49 35 49 35 37 47 c 1,8,-1
 91 90 l 1,9,10
 112 67 112 67 134 57 c 128,-1,11
 156 47 156 47 184 48 c 0,12,13
 218 49 218 49 240 60 c 128,-1,14
 262 71 262 71 267 90 c 0,15,16
 269 100 269 100 267.5 107.5 c 128,-1,17
 266 115 266 115 258 121.5 c 128,-1,18
 250 128 250 128 234 135 c 128,-1,19
 218 142 218 142 192 152 c 0,20,21
 87 189 87 189 101 254 c 0,22,23
 105 273 105 273 117 291.5 c 128,-1,24
 129 310 129 310 148 324.5 c 128,-1,25
 167 339 167 339 192.5 348 c 128,-1,26
 218 357 218 357 249 357 c 0,27,28
 275 357 275 357 307.5 346 c 128,-1,29
 340 335 340 335 360 320 c 1,30,-1
 321 268 l 1,31,32
 307 279 307 279 285 290 c 128,-1,33
 263 301 263 301 236 301 c 0,34,35
 208 301 208 301 189 289.5 c 128,-1,36
 170 278 170 278 166 259 c 0,37,38
 161 240 161 240 178 228.5 c 128,-1,39
 195 217 195 217 235 203 c 0,40,41
 258 194 258 194 277.5 184.5 c 128,-1,42
 297 175 297 175 310.5 163 c 128,-1,43
 324 151 324 151 329.5 135 c 128,-1,44
 335 119 335 119 330 97 c 0,0,1
EndSplineSet
EndChar
StartChar: t
Encoding: 116 116 85
Width: 236
Flags: W
Fore
158 -8 m 1,0,1
 125 -8 125 -8 109 2.5 c 128,-1,2
 93 13 93 13 88 28.5 c 128,-1,3
 83 44 83 44 85.5 62.5 c 128,-1,4
 88 81 88 81 91 97 c 0,5,6
 105 165 105 165 113.5 204.5 c 128,-1,7
 122 244 122 244 127 265 c 0,8,9
 132 290 132 290 134 298 c 1,10,-1
 70 298 l 1,11,-1
 95 349 l 1,12,-1
 145 349 l 1,13,14
 146 356 146 356 149 367 c 0,15,16
 151 377 151 377 154 392 c 128,-1,17
 157 407 157 407 162 429 c 1,18,-1
 198 452 l 1,19,-1
 228 452 l 1,20,21
 221 422 221 422 217 402 c 128,-1,22
 213 382 213 382 211 370 c 0,23,24
 208 356 208 356 206 349 c 1,25,-1
 286 349 l 1,26,-1
 260 298 l 1,27,-1
 195 298 l 1,28,29
 192 289 192 289 187 263 c 0,30,31
 182 240 182 240 173 198 c 128,-1,32
 164 156 164 156 149 83 c 0,33,34
 145 65 145 65 149.5 57 c 128,-1,35
 154 49 154 49 164 47.5 c 128,-1,36
 174 46 174 46 188 49.5 c 128,-1,37
 202 53 202 53 217 58 c 1,38,-1
 224 3 l 1,39,-1
 158 -8 l 1,0,1
EndSplineSet
EndChar
StartChar: u
Encoding: 117 117 86
Width: 400
Flags: W
Fore
300 -14 m 1,0,1
 295 -1 295 -1 293 7.5 c 128,-1,2
 291 16 291 16 291 27 c 1,3,4
 268 7 268 7 240 -0.5 c 128,-1,5
 212 -8 212 -8 189 -8 c 0,6,7
 150 -8 150 -8 127.5 6 c 128,-1,8
 105 20 105 20 94.5 40.5 c 128,-1,9
 84 61 84 61 82.5 83.5 c 128,-1,10
 81 106 81 106 85 123 c 2,11,-1
 133 349 l 1,12,-1
 194 349 l 1,13,-1
 145 122 l 2,14,15
 138 88 138 88 155 67 c 128,-1,16
 172 46 172 46 207 46 c 0,17,18
 226 46 226 46 243.5 54.5 c 128,-1,19
 261 63 261 63 275 77 c 128,-1,20
 289 91 289 91 298.5 108.5 c 128,-1,21
 308 126 308 126 312 144 c 2,22,-1
 356 349 l 1,23,-1
 417 349 l 1,24,-1
 360 82 l 2,25,26
 353 52 353 52 355 37.5 c 128,-1,27
 357 23 357 23 361 6 c 1,28,-1
 300 -14 l 1,0,1
EndSplineSet
EndChar
StartChar: v
Encoding: 118 118 87
Width: 354
Flags: W
Fore
147 359 m 1,0,-1
 197 96 l 1,1,-1
 356 361 l 1,2,-1
 410 340 l 1,3,-1
 306 172 l 2,4,5
 286 140 286 140 267.5 110 c 128,-1,6
 249 80 249 80 234 56.5 c 128,-1,7
 219 33 219 33 210.5 18.5 c 128,-1,8
 203 5 203 5 202 4 c 2,9,10
 197 -6 197 -6 186 -8.5 c 128,-1,11
 175 -11 175 -11 164 -8 c 128,-1,12
 153 -5 153 -5 146 2.5 c 128,-1,13
 139 10 139 10 144 19 c 1,14,-1
 147 27 l 1,15,-1
 87 340 l 1,16,-1
 147 359 l 1,0,-1
EndSplineSet
EndChar
StartChar: w
Encoding: 119 119 88
Width: 534
Flags: W
Fore
396 82 m 1,0,-1
 541 361 l 1,1,-1
 593 341 l 1,2,-1
 417 25 l 1,3,-1
 417 17 l 2,4,5
 417 7 417 7 407 -0.5 c 128,-1,6
 397 -8 397 -8 384.5 -11 c 128,-1,7
 372 -14 372 -14 361.5 -11.5 c 128,-1,8
 351 -9 351 -9 350 1 c 2,9,-1
 318 261 l 1,10,11
 279 188 279 188 249 131 c 0,12,13
 236 107 236 107 224 83.5 c 128,-1,14
 212 60 212 60 202 41.5 c 128,-1,15
 192 23 192 23 186.5 12 c 128,-1,16
 181 2 181 2 181 1 c 1,17,18
 176 -9 176 -9 164 -11.5 c 128,-1,19
 152 -14 152 -14 141 -11 c 128,-1,20
 130 -8 130 -8 123 -0.5 c 128,-1,21
 116 7 116 7 120 17 c 2,22,-1
 124 25 l 1,23,-1
 83 343 l 1,24,-1
 144 361 l 1,25,-1
 172 81 l 1,26,-1
 309 348 l 1,27,28
 312 357 312 357 323 359.5 c 128,-1,29
 334 362 334 362 345.5 359 c 128,-1,30
 357 356 357 356 364.5 349.5 c 128,-1,31
 372 343 372 343 369 334 c 1,32,33
 370 334 370 334 370 333 c 0,34,35
 370 330 370 330 365 323 c 1,36,-1
 396 82 l 1,0,-1
EndSplineSet
EndChar
StartChar: x
Encoding: 120 120 89
Width: 359
Flags: W
Fore
410 331 m 1,0,1
 355 277 355 277 324 245.5 c 128,-1,2
 293 214 293 214 277 198 c 0,3,4
 259 180 259 180 252 174 c 1,5,6
 256 169 256 169 267 151 c 0,7,8
 277 136 277 136 295 106.5 c 128,-1,9
 313 77 313 77 345 26 c 1,10,-1
 287 -10 l 1,11,12
 261 35 261 35 245.5 62 c 128,-1,13
 230 89 230 89 221 104 c 2,14,-1
 206 129 l 1,15,-1
 67 -10 l 1,16,-1
 24 25 l 1,17,18
 77 76 77 76 107.5 105.5 c 128,-1,19
 138 135 138 135 154 150 c 0,20,21
 172 168 172 168 178 174 c 1,22,23
 175 180 175 180 164 198 c 0,24,25
 155 214 155 214 137.5 245.5 c 128,-1,26
 120 277 120 277 89 331 c 1,27,-1
 146 364 l 1,28,29
 172 317 172 317 187.5 289 c 128,-1,30
 203 261 203 261 211 245 c 0,31,32
 221 227 221 227 225 219 c 1,33,-1
 251 245 l 2,34,35
 266 261 266 261 294 289 c 128,-1,36
 322 317 322 317 367 364 c 1,37,-1
 410 331 l 1,38,-1
 410 331 l 1,0,1
EndSplineSet
EndChar
StartChar: y
Encoding: 121 121 90
Width: 374
Flags: W
Fore
181 -58 m 2,0,1
 167 -79 167 -79 153 -92.5 c 128,-1,2
 139 -106 139 -106 122 -116 c 0,3,4
 102 -127 102 -127 82.5 -134 c 128,-1,5
 63 -141 63 -141 35 -151 c 1,6,-1
 27 -99 l 1,7,8
 58 -88 58 -88 77 -80 c 128,-1,9
 96 -72 96 -72 109.5 -60.5 c 128,-1,10
 123 -49 123 -49 134.5 -30.5 c 128,-1,11
 146 -12 146 -12 163 20 c 1,12,13
 161 27 161 27 153 63 c 0,14,15
 149 78 149 78 143.5 101.5 c 128,-1,16
 138 125 138 125 130.5 158 c 128,-1,17
 123 191 123 191 113 235.5 c 128,-1,18
 103 280 103 280 90 338 c 1,19,-1
 155 363 l 1,20,21
 172 278 172 278 183.5 226 c 128,-1,22
 195 174 195 174 201 145 c 0,23,24
 208 111 208 111 212 95 c 1,25,26
 221 112 221 112 242 146 c 0,27,28
 260 175 260 175 292 227 c 128,-1,29
 324 279 324 279 375 363 c 1,30,-1
 425 337 l 1,31,-1
 181 -58 l 2,0,1
EndSplineSet
EndChar
StartChar: z
Encoding: 122 122 91
Width: 346
Flags: W
Fore
280 300 m 1,0,-1
 90 300 l 1,1,-1
 102 355 l 1,2,-1
 354 355 l 1,3,4
 361 357 361 357 369 357 c 128,-1,5
 377 357 377 357 381 354 c 0,6,7
 389 348 389 348 388 334.5 c 128,-1,8
 387 321 387 321 384 313 c 0,9,10
 381 307 381 307 375.5 305 c 128,-1,11
 364.5 301 l 128,-1,12
 359 299 359 299 353 296.5 c 128,-1,13
 347 294 347 294 342 288 c 2,14,-1
 137 55 l 1,15,-1
 329 55 l 1,16,-1
 318 0 l 1,17,-1
 64 0 l 1,18,19
 56 -2 56 -2 48.5 -2 c 128,-1,20
 41 -2 41 -2 37 1 c 0,21,22
 28 7 28 7 29 20.5 c 128,-1,23
 30 34 30 34 33 42 c 1,24,25
 37 48 37 48 42 50 c 128,-1,26
 47 52 47 52 53 54 c 128,-1,27
 59 56 59 56 65 58.5 c 128,-1,28
 71 61 71 61 76 67 c 2,29,-1
 280 300 l 1,0,-1
EndSplineSet
EndChar
StartChar: braceleft
Encoding: 123 123 92
Width: 205
Flags: W
Fore
90 -103 m 2,0,1
 64 -103 64 -103 51.5 -85 c 128,-1,2
 39 -67 39 -67 44 -47 c 2,3,-1
 86 155 l 2,4,5
 90 172 90 172 84.5 176.5 c 128,-1,6
 79 181 79 181 70 184 c 1,7,-1
 78 214 l 1,8,9
 92 219 92 219 97.5 227.5 c 128,-1,10
 103 236 103 236 105 244 c 2,11,-1
 148 445 l 2,12,13
 153 465 153 465 172.5 483 c 128,-1,14
 192 501 192 501 218 501 c 2,15,-1
 291 501 l 1,16,-1
 255 466 l 1,17,18
 244 465 244 465 239 464.5 c 128,-1,19
 234 464 234 464 231 464 c 2,20,-1
 227 464 l 1,21,22
 214 462 214 462 211 455.5 c 128,-1,23
 208 449 208 449 207 446 c 2,24,-1
 165 248 l 2,25,26
 163 235 163 235 152.5 221.5 c 128,-1,27
 142 208 142 208 131 199 c 1,28,29
 139 189 139 189 143 175.5 c 128,-1,30
 147 162 147 162 144 150 c 2,31,-1
 102 -48 l 2,32,33
 101 -51 101 -51 102 -57 c 128,-1,34
 103 -63 103 -63 114 -65 c 2,35,-1
 141 -68 l 1,36,-1
 163 -103 l 1,37,-1
 90 -103 l 2,0,1
EndSplineSet
EndChar
StartChar: bar
Encoding: 124 124 93
Width: 185
Flags: W
Fore
61 -9 m 1,0,-1
 166 487 l 1,1,-1
 225 487 l 1,2,-1
 120 -9 l 1,3,-1
 61 -9 l 1,0,-1
EndSplineSet
EndChar
StartChar: braceright
Encoding: 125 125 94
Width: 207
Flags: W
Fore
206 181 m 2,0,1
 203 180 203 180 196 176 c 128,-1,2
 189 172 189 172 185 155 c 2,3,-1
 143 -47 l 2,4,5
 138 -67 138 -67 118.5 -85 c 128,-1,6
 99 -103 99 -103 73 -103 c 2,7,-1
 0 -103 l 1,8,-1
 41 -67 l 1,9,10
 49 -66 49 -66 54 -65.5 c 128,-1,11
 59 -65 59 -65 61 -65 c 2,12,-1
 64 -65 l 1,13,14
 77 -63 77 -63 80 -57 c 128,-1,15
 83 -51 83 -51 84 -48 c 2,16,-1
 126 150 l 2,17,18
 129 162 129 162 138.5 175.5 c 128,-1,19
 148 189 148 189 160 199 c 1,20,21
 152 208 152 208 148.5 221.5 c 128,-1,22
 145 235 145 235 147 248 c 2,23,-1
 189 446 l 2,24,25
 190 449 190 449 189 455 c 128,-1,26
 188 461 188 461 177 463 c 2,27,-1
 150 466 l 1,28,-1
 128 501 l 1,29,-1
 201 501 l 2,30,31
 227 501 227 501 239.5 483 c 128,-1,32
 252 465 252 465 247 445 c 2,33,-1
 204 244 l 2,34,35
 202 236 202 236 205 227.5 c 128,-1,36
 208 219 208 219 221 214 c 1,37,-1
 215 184 l 1,38,-1
 206 181 l 2,0,1
EndSplineSet
EndChar
StartChar: asciitilde
Encoding: 126 126 95
Width: 441
Flags: W
Fore
440 173 m 1,0,1
 411 141 411 141 376.5 125.5 c 128,-1,2
 342 110 342 110 310 112 c 0,3,4
 293 113 293 113 277.5 121 c 128,-1,5
 262 129 262 129 247.5 137.5 c 128,-1,6
 233 146 233 146 218 153.5 c 128,-1,7
 203 161 203 161 187 163 c 0,8,9
 166 165 166 165 146 154 c 128,-1,10
 126 143 126 143 101 116 c 1,11,-1
 83 179 l 1,12,13
 93 189 93 189 106 200 c 128,-1,14
 119 211 119 211 134.5 219 c 128,-1,15
 150 227 150 227 168 232 c 128,-1,16
 186 237 186 237 207 235 c 0,17,18
 222 234 222 234 238 226 c 128,-1,19
 254 218 254 218 270.5 209 c 128,-1,20
 287 200 287 200 303 192 c 128,-1,21
 319 184 319 184 333 183 c 0,22,23
 348 181 348 181 367.5 192.5 c 128,-1,24
 387 204 387 204 411 231 c 1,25,-1
 440 173 l 1,0,1
EndSplineSet
EndChar
StartChar: uni0E33.alt1
Encoding: 65539 -1 96
Width: 372
Flags: W
Fore
-127 476 m 0,0,1
 -168 476 -168 476 -183.5 502 c 128,-1,2
 -199 528 -199 528 -192 559 c 128,-1,3
 -185 590 -185 590 -159 616 c 128,-1,4
 -133 642 -133 642 -92 642 c 0,5,6
 -65 642 -65 642 -49 629.5 c 128,-1,7
 -33 617 -33 617 -28 599 c 128,-1,8
 -23 581 -23 581 -27.5 559 c 128,-1,9
 -32 537 -32 537 -45 519 c 128,-1,10
 -58 501 -58 501 -79 488.5 c 128,-1,11
 -100 476 -100 476 -127 476 c 0,0,1
-118 522 m 256,12,13
 -100 522 -100 522 -88.5 533.5 c 128,-1,14
 -77 545 -77 545 -74 558.5 c 128,-1,15
 -71 572 -71 572 -77.5 583.5 c 128,-1,16
 -84 595 -84 595 -102 595 c 256,17,18
 -120 595 -120 595 -131.5 583.5 c 128,-1,19
 -143 572 -143 572 -146 558.5 c 128,-1,20
 -149 545 -149 545 -142.5 533.5 c 128,-1,21
 -136 522 -136 522 -118 522 c 256,12,13
322 0 m 1,22,-1
 254 0 l 1,23,-1
 311 272 l 2,24,25
 312 280 312 280 318 290.5 c 128,-1,26
 324 301 324 301 329 304 c 1,27,28
 317 319 317 319 298 333 c 128,-1,29
 279 347 279 347 243 346 c 0,30,31
 217 345 217 345 198.5 337 c 128,-1,32
 180 329 180 329 167.5 317 c 128,-1,33
 155 305 155 305 147 290.5 c 128,-1,34
 139 276 139 276 135 262 c 1,35,-1
 70 262 l 1,36,37
 90 326 90 326 137 365.5 c 128,-1,38
 184 405 184 405 257 407 c 0,39,40
 282 408 282 408 300.5 403.5 c 128,-1,41
 319 399 319 399 333 391.5 c 128,-1,42
 347 384 347 384 357 373.5 c 128,-1,43
 367 363 367 363 375 353 c 1,44,45
 380 355 380 355 388.5 352 c 128,-1,46
 397 349 397 349 405 337 c 0,47,48
 417 318 417 318 411 309.5 c 128,-1,49
 405 301 405 301 392 287 c 0,50,51
 385 280 385 280 381.5 272.5 c 128,-1,52
 378 265 378 265 375 251 c 2,53,-1
 322 0 l 1,22,-1
EndSplineSet
EndChar
StartChar: quotedbl
Encoding: 34 34 97
Width: 287
Flags: W
Fore
282 282 m 1,0,-1
 232 282 l 1,1,-1
 261 468 l 1,2,-1
 336 468 l 1,3,-1
 282 282 l 1,0,-1
168 282 m 1,4,-1
 118 282 l 1,5,-1
 147 468 l 1,6,-1
 222 468 l 1,7,-1
 168 282 l 1,4,-1
EndSplineSet
EndChar
StartChar: exclam
Encoding: 33 33 98
Width: 257
Flags: W
Fore
177 106 m 1,0,-1
 122 106 l 1,1,-1
 189 476 l 1,2,-1
 268 476 l 1,3,-1
 177 106 l 1,0,-1
179 37 m 256,4,5
 175 19 175 19 159.5 6 c 128,-1,6
 144 -7 144 -7 126 -7 c 256,7,8
 108 -7 108 -7 97.5 6 c 128,-1,9
 87 19 87 19 91 37 c 256,10,11
 95 55 95 55 111 68 c 128,-1,12
 127 81 127 81 145 81 c 256,13,14
 163 81 163 81 173 68 c 128,-1,15
 183 55 183 55 179 37 c 256,4,5
EndSplineSet
EndChar
StartChar: uni0E4E.alt1
Encoding: 65540 -1 99
Width: 0
Flags: W
Fore
64 674 m 1,0,1
 21 683 21 683 -13.5 674.5 c 128,-1,2
 -48 666 -48 666 -54.5 639 c 128,-1,3
 -61 612 -61 612 -27 596 c 1,4,-1
 -54 563 l 1,5,6
 -118 560 -118 560 -134 531 c 1,7,8
 -140 506 -140 506 -111.5 502 c 128,-1,9
 -83 498 -83 498 -67 506 c 1,10,-1
 -102 465 l 1,11,12
 -146 446 -146 446 -179.5 460.5 c 128,-1,13
 -213 475 -213 475 -206 517 c 0,14,15
 -187 582 -187 582 -100 592 c 1,16,17
 -125 614 -125 614 -113.5 645.5 c 128,-1,18
 -102 677 -102 677 -61.5 693 c 128,-1,19
 -21 709 -21 709 36 699 c 1,20,-1
 64 674 l 1,0,1
EndSplineSet
EndChar
StartChar: exclamdown
Encoding: 161 161 100
Width: 252
Flags: W
Fore
137 -139 m 1,0,-1
 58 -139 l 1,1,-1
 149 231 l 1,2,-1
 204 231 l 1,3,-1
 137 -139 l 1,0,-1
235 300 m 256,4,5
 231 282 231 282 215.5 269 c 128,-1,6
 200 256 200 256 182 256 c 256,7,8
 164 256 164 256 153.5 269 c 128,-1,9
 143 282 143 282 147 300 c 256,10,11
 151 318 151 318 167 331 c 128,-1,12
 183 344 183 344 201 344 c 256,13,14
 219 344 219 344 229 331 c 128,-1,15
 239 318 239 318 235 300 c 256,4,5
EndSplineSet
EndChar
StartChar: cent
Encoding: 162 162 101
Width: 451
Flags: W
Fore
429 52 m 1,0,1
 420.5 45 l 130,-1,2
 412 38 412 38 396 29 c 128,-1,3
 380 20 380 20 357 10.5 c 128,-1,4
 334 1 334 1 305 -4 c 0,5,6
 288 -7 288 -7 272 -7 c 1,7,-1
 263 -50 l 1,8,-1
 208 -50 l 1,9,-1
 217 -5 l 1,10,11
 206 -3 206 -3 196.5 -0.5 c 128,-1,12
 187 2 187 2 179 5 c 0,13,14
 161 12 161 12 140.5 27 c 128,-1,15
 120 42 120 42 105 69 c 128,-1,16
 90 96 90 96 85 137 c 128,-1,17
 80 178 80 178 92 237 c 0,18,19
 107 306 107 306 135.5 352 c 128,-1,20
 164 398 164 398 197 426 c 128,-1,21
 230 454 230 454 263.5 466.5 c 128,-1,22
 297 479 297 479 321 480 c 1,23,-1
 331 528 l 1,24,-1
 386 528 l 1,25,-1
 376 482 l 1,26,27
 411 480 411 480 441 468.5 c 128,-1,28
 471 457 471 457 494 431 c 1,29,-1
 489 423 l 2,30,31
 485 417 485 417 476 404.5 c 128,-1,32
 467 392 467 392 451 369 c 1,33,34
 438 383 438 383 423 391 c 128,-1,35
 408 399 408 399 394 404 c 0,36,37
 378 409 378 409 361 412 c 1,38,-1
 286 60 l 1,39,40
 304 61 304 61 323 66 c 0,41,42
 340 70 340 70 359 78.5 c 128,-1,43
 378 87 378 87 396 102 c 1,44,-1
 429 52 l 1,0,1
217 71 m 2,45,-1
 232 65 l 1,46,-1
 305 409 l 1,47,48
 251 398 251 398 213.5 352 c 128,-1,49
 176 306 176 306 162 237 c 0,50,51
 148 174 148 174 163 130.5 c 128,-1,52
 178 87 178 87 217 71 c 2,45,-1
EndSplineSet
EndChar
StartChar: sterling
Encoding: 163 163 102
Width: 451
Flags: W
Fore
421 384 m 1,0,1
 404 404 404 404 382 413.5 c 128,-1,2
 360 423 360 423 337.5 424 c 128,-1,3
 315 425 315 425 294.5 418.5 c 128,-1,4
 274 412 274 412 260 401 c 0,5,6
 236 383 236 383 228.5 360 c 128,-1,7
 221 337 221 337 221.5 316 c 128,-1,8
 222 295 222 295 226 280.5 c 128,-1,9
 230 267 230 267 230 266 c 1,10,-1
 354 266 l 1,11,-1
 324 212 l 1,12,-1
 231 212 l 1,13,14
 231 197 231 197 228 178.5 c 128,-1,15
 225 160 225 160 216.5 140 c 128,-1,16
 208 120 208 120 192 100 c 128,-1,17
 176 80 176 80 151 64 c 1,18,-1
 406 64 l 1,19,-1
 392 0 l 1,20,-1
 56 0 l 1,21,-1
 67 53 l 1,22,23
 115 85 115 85 138.5 122.5 c 128,-1,24
 162 160 162 160 161 211 c 1,25,-1
 78 211 l 1,26,-1
 106 265 l 1,27,-1
 165 265 l 1,28,29
 153 311 153 311 158 347 c 128,-1,30
 163 383 163 383 183 412 c 0,31,32
 209 451 209 451 251.5 468 c 128,-1,33
 294 485 294 485 337 485 c 0,34,35
 375 485 375 485 408.5 472 c 128,-1,36
 442 459 442 459 460 437 c 1,37,-1
 421 384 l 1,0,1
EndSplineSet
EndChar
StartChar: currency
Encoding: 164 164 103
Width: 486
Flags: W
Fore
428 237 m 0,0,1
 423 208 423 208 410 190 c 128,-1,2
 397 172 397 172 389 161 c 1,3,-1
 428 110 l 1,4,-1
 375 68 l 1,5,-1
 335 118 l 1,6,7
 321 111 321 111 305 103.5 c 128,-1,8
 289 96 289 96 262 98 c 0,9,10
 245 98 245 98 229 103.5 c 128,-1,11
 213 109 213 109 202 119 c 1,12,-1
 139 67 l 1,13,-1
 104 111 l 1,14,-1
 166 163 l 1,15,16
 155 179 155 179 154 198.5 c 128,-1,17
 153 218 153 218 158 237 c 128,-1,18
 163 256 163 256 173 272 c 128,-1,19
 183 288 183 288 194 297 c 1,20,-1
 152 347 l 1,21,-1
 207 392 l 1,22,-1
 247 341 l 1,23,24
 261 350 261 350 280.5 356 c 128,-1,25
 300 362 300 362 322 361 c 0,26,27
 365 359 365 359 385 343 c 1,28,-1
 448 394 l 1,29,-1
 483 349 l 1,30,-1
 420 297 l 1,31,32
 422 287 422 287 427.5 273.5 c 128,-1,33
 433 260 433 260 428 237 c 0,0,1
361 226 m 0,34,35
 368 253 368 253 353 276.5 c 128,-1,36
 338 300 338 300 306 300 c 0,37,38
 290 300 290 300 275.5 293.5 c 128,-1,39
 261 287 261 287 249.5 276.5 c 128,-1,40
 238 266 238 266 230.5 252.5 c 128,-1,41
 223 239 223 239 222 226 c 0,42,43
 217 197 217 197 234 179 c 128,-1,44
 251 161 251 161 277 161 c 0,45,46
 296 161 296 161 311 168 c 128,-1,47
 326 175 326 175 336.5 184.5 c 128,-1,48
 347 194 347 194 353 205.5 c 128,-1,49
 359 217 359 217 361 226 c 0,34,35
EndSplineSet
EndChar
StartChar: yen
Encoding: 165 165 104
Width: 414
Flags: W
Fore
496 466 m 1,0,-1
 286 230 l 1,1,-1
 390 230 l 1,2,-1
 382 189 l 1,3,-1
 278 189 l 1,4,-1
 268 145 l 1,5,-1
 372 145 l 1,6,-1
 364 104 l 1,7,-1
 260 104 l 1,8,-1
 239 0 l 1,9,-1
 174 0 l 1,10,-1
 196 104 l 1,11,-1
 89 104 l 1,12,-1
 97 145 l 1,13,-1
 204 145 l 1,14,-1
 213 189 l 1,15,-1
 107 189 l 1,16,-1
 115 230 l 1,17,-1
 222 230 l 1,18,-1
 114 466 l 1,19,-1
 168 497 l 1,20,-1
 266 286 l 1,21,-1
 454 497 l 1,22,-1
 496 466 l 1,0,-1
EndSplineSet
EndChar
StartChar: brokenbar
Encoding: 166 166 105
Width: 180
Flags: W
Fore
171 241 m 1,0,-1
 112 241 l 1,1,-1
 164 485 l 1,2,-1
 223 485 l 1,3,-1
 171 241 l 1,0,-1
86 119 m 1,4,-1
 145 119 l 1,5,-1
 93 -125 l 1,6,-1
 34 -125 l 1,7,-1
 86 119 l 1,4,-1
EndSplineSet
EndChar
StartChar: section
Encoding: 167 167 106
Width: 457
Flags: W
Fore
430 430 m 1,0,1
 423 446 423 446 404.5 456 c 128,-1,2
 386 466 386 466 349 466 c 0,3,4
 328 466 328 466 309.5 456.5 c 128,-1,5
 291 447 291 447 280.5 433.5 c 128,-1,6
 270 420 270 420 268.5 403.5 c 128,-1,7
 267 387 267 387 279 374 c 0,8,9
 283 369 283 369 297 360 c 128,-1,10
 311 351 311 351 328 340.5 c 128,-1,11
 345 330 345 330 362.5 319.5 c 128,-1,12
 380 309 380 309 393 300 c 0,13,14
 419 283 419 283 433.5 266 c 128,-1,15
 448 249 448 249 446 215 c 0,16,17
 444 195 444 195 436 175.5 c 128,-1,18
 428 156 428 156 413 140 c 0,19,20
 401 126 401 126 388 116.5 c 128,-1,21
 375 107 375 107 364 99 c 1,22,23
 361 100 361 100 362.5 96 c 128,-1,24
 364 92 364 92 367 84.5 c 128,-1,25
 370 77 370 77 372.5 67 c 128,-1,26
 375 57 375 57 374 45 c 0,27,28
 371 15 371 15 356.5 -8.5 c 128,-1,29
 342 -32 342 -32 320 -49 c 128,-1,30
 298 -66 298 -66 270 -75.5 c 128,-1,31
 242 -85 242 -85 212 -86 c 0,32,33
 187 -87 187 -87 168 -85 c 128,-1,34
 149 -83 149 -83 133 -76 c 128,-1,35
 117 -69 117 -69 102.5 -57.5 c 128,-1,36
 88 -46 88 -46 72 -28 c 1,37,-1
 132 18 l 1,38,39
 141 1 141 1 158.5 -8 c 128,-1,40
 176 -17 176 -17 195.5 -20 c 128,-1,41
 215 -23 215 -23 234 -19.5 c 128,-1,42
 253 -16 253 -16 266 -7 c 0,43,44
 278 2 278 2 286 13.5 c 128,-1,45
 294 25 294 25 296 37 c 128,-1,46
 298 49 298 49 294 59.5 c 128,-1,47
 290 70 290 70 277 76 c 1,48,49
 274 76 274 76 260 85 c 0,50,51
 248 93 248 93 222 110.5 c 128,-1,52
 196 128 196 128 148 161 c 0,53,54
 122 179 122 179 113.5 204 c 128,-1,55
 105 229 105 229 112 261 c 0,56,57
 118 291 118 291 138 316 c 128,-1,58
 158 341 158 341 189 359 c 1,59,60
 175 385 175 385 180.5 417 c 128,-1,61
 186 449 186 449 210 478 c 0,62,63
 234 506 234 506 271 521 c 128,-1,64
 308 536 308 536 348 536 c 0,65,66
 402 536 402 536 434.5 521.5 c 128,-1,67
 467 507 467 507 490 476 c 1,68,-1
 430 430 l 1,0,1
323 146 m 1,69,70
 330 150 330 150 338.5 156 c 128,-1,71
 347 162 347 162 357 171 c 0,72,73
 363 177 363 177 366 186.5 c 128,-1,74
 369 196 369 196 368.5 205 c 128,-1,75
 368 214 368 214 363.5 221.5 c 128,-1,76
 359 229 359 229 352 232 c 1,77,78
 337 241.5 l 130,-1,79
 322 251 322 251 301.5 264 c 128,-1,80
 281 277 281 277 260 290 c 128,-1,81
 239 303 239 303 228 310 c 1,82,83
 211 302 211 302 200.5 293 c 128,-1,84
 190 284 190 284 185 267 c 0,85,86
 182 251 182 251 188 240.5 c 128,-1,87
 194 230 194 230 205 222 c 2,88,89
 219.5 213 l 130,-1,90
 234 204 234 204 253.5 191.5 c 128,-1,91
 273 179 273 179 292.5 166 c 128,-1,92
 312 153 312 153 323 146 c 1,69,70
EndSplineSet
EndChar
StartChar: dieresis
Encoding: 168 168 107
Width: 220
Flags: W
Fore
145 487 m 256,0,1
 163 487 163 487 173.5 473.5 c 128,-1,2
 184 460 184 460 180 443 c 0,3,4
 175 424 175 424 159.5 411 c 128,-1,5
 144 398 144 398 126 398 c 0,6,7
 107 398 107 398 97.5 411.5 c 128,-1,8
 88 425 88 425 92 443 c 0,9,10
 96 460 96 460 111.5 473.5 c 128,-1,11
 127 487 127 487 145 487 c 256,0,1
309 474 m 0,12,13
 319 459 319 459 316 443 c 0,14,15
 311 424 311 424 295.5 411 c 128,-1,16
 280 398 280 398 262 398 c 0,17,18
 243 398 243 398 232.5 411 c 128,-1,19
 222 424 222 424 227 443 c 0,20,21
 231 461 231 461 247 474 c 128,-1,22
 263 487 263 487 281 487 c 0,23,24
 298 487 298 487 309 474 c 0,12,13
EndSplineSet
EndChar
StartChar: copyright
Encoding: 169 169 108
Width: 535
Flags: W
Fore
556 234 m 0,0,1
 545 183 545 183 516.5 137.5 c 128,-1,2
 488 92 488 92 448.5 58 c 128,-1,3
 409 24 409 24 361 4.5 c 128,-1,4
 313 -15 313 -15 264 -15 c 0,5,6
 213 -15 213 -15 174 5.5 c 128,-1,7
 135 26 135 26 110 60 c 128,-1,8
 85 94 85 94 76 139 c 128,-1,9
 67 184 67 184 78 234 c 0,10,11
 88 283 88 283 116.5 328.5 c 128,-1,12
 145 374 145 374 184.5 408 c 128,-1,13
 224 442 224 442 272 462.5 c 128,-1,14
 320 483 320 483 370 483 c 256,15,16
 420 483 420 483 459.5 462.5 c 128,-1,17
 499 442 499 442 524 408 c 128,-1,18
 549 374 549 374 557.5 328.5 c 128,-1,19
 566 283 566 283 556 234 c 0,0,1
511 234 m 256,20,21
 520 274 520 274 512.5 311 c 128,-1,22
 505 348 505 348 485 376 c 128,-1,23
 465 404 465 404 433 420.5 c 128,-1,24
 401 437 401 437 360 437 c 0,25,26
 320 437 320 437 281.5 421 c 128,-1,27
 243 405 243 405 210.5 377.5 c 128,-1,28
 178 350 178 350 155 313 c 128,-1,29
 132 276 132 276 123 234 c 0,30,31
 114 194 114 194 121.5 157 c 128,-1,32
 129 120 129 120 149.5 92 c 128,-1,33
 170 64 170 64 201.5 47.5 c 128,-1,34
 233 31 233 31 274 31 c 0,35,36
 314 31 314 31 353 47.5 c 128,-1,37
 392 64 392 64 424.5 92 c 128,-1,38
 457 120 457 120 479.5 157 c 128,-1,39
 502 194 502 194 511 234 c 256,20,21
396 114 m 1,40,41
 376 97 376 97 355 88.5 c 128,-1,42
 334 80 334 80 313.5 77.5 c 128,-1,43
 293 75 293 75 274.5 77.5 c 128,-1,44
 256 80 256 80 243 85 c 0,45,46
 231 89 231 89 218 98.5 c 128,-1,47
 205 108 205 108 195.5 125 c 128,-1,48
 186 142 186 142 182.5 168 c 128,-1,49
 179 194 179 194 187 231 c 0,50,51
 195 269 195 269 209.5 295 c 128,-1,52
 224 321 224 321 240.5 337.5 c 128,-1,53
 257 354 257 354 274 363.5 c 128,-1,54
 291 373 291 373 305 378 c 0,55,56
 321 384 321 384 339.5 385.5 c 128,-1,57
 358 387 358 387 376 384 c 128,-1,58
 394 381 394 381 409.5 373.5 c 128,-1,59
 425 366 425 366 436 353 c 1,60,61
 435 351 435 351 431 347 c 1,62,63
 428 343 428 343 422 334.5 c 128,-1,64
 416 326 416 326 406 312 c 1,65,66
 392 327 392 327 376 332.5 c 128,-1,67
 360 338 360 338 346 339 c 0,68,69
 329 340 329 340 312 335 c 0,70,71
 283 324 283 324 262.5 297 c 128,-1,72
 242 270 242 270 234 231 c 256,73,74
 226 192 226 192 234.5 165 c 128,-1,75
 243 138 243 138 268 128 c 0,76,77
 284 122 284 122 302 122 c 0,78,79
 317 122 317 122 335 127 c 128,-1,80
 353 132 353 132 372 148 c 1,81,-1
 396 114 l 1,40,41
EndSplineSet
EndChar
StartChar: ordfeminine
Encoding: 170 170 109
Width: 284
Flags: W
Fore
240 187 m 1,0,1
 241 197 241 197 243 202 c 0,2,3
 244 205 244 205 244 206 c 1,4,5
 212 181 212 181 171 181 c 0,6,7
 143 181 143 181 125 192 c 128,-1,8
 107 203 107 203 97.5 220 c 128,-1,9
 88 237 88 237 86 259 c 128,-1,10
 84 281 84 281 89 303 c 256,11,12
 94 325 94 325 105 347.5 c 128,-1,13
 116 370 116 370 133 387.5 c 128,-1,14
 150 405 150 405 172.5 416 c 128,-1,15
 195 427 195 427 223 427 c 0,16,17
 262 427 262 427 285 402 c 1,18,19
 285 404 285 404 286 408 c 0,20,21
 287 411 287 411 287.5 415.5 c 128,-1,22
 288 420 288 420 290 427 c 1,23,-1
 334 427 l 1,24,-1
 292 228 l 1,25,-1
 285 187 l 1,26,-1
 240 187 l 1,0,1
256 291 m 0,27,28
 261 305 261 305 261.5 320.5 c 128,-1,29
 262 336 262 336 257 348.5 c 128,-1,30
 252 361 252 361 241 369 c 128,-1,31
 230 377 230 377 213 377 c 256,32,33
 196 377 196 377 183 369.5 c 128,-1,34
 170 362 170 362 160 351 c 128,-1,35
 150 340 150 340 144 327 c 128,-1,36
 138 314 138 314 136 303 c 0,37,38
 134 294 134 294 134 281.5 c 128,-1,39
 134 269 134 269 138.5 257.5 c 128,-1,40
 143 246 143 246 153 238 c 128,-1,41
 163 230 163 230 181 230 c 0,42,43
 207 230 207 230 227.5 249 c 128,-1,44
 248 268 248 268 256 291 c 0,27,28
EndSplineSet
EndChar
StartChar: guillemotleft
Encoding: 171 171 110
Width: 400
Flags: W
Fore
72 178 m 1,0,-1
 196 325 l 1,1,-1
 278 325 l 1,2,-1
 149 178 l 1,3,-1
 215 30 l 1,4,-1
 133 30 l 1,5,-1
 72 178 l 1,0,-1
219 178 m 1,6,-1
 343 325 l 1,7,-1
 425 325 l 1,8,-1
 296 178 l 1,9,-1
 362 30 l 1,10,-1
 280 30 l 1,11,-1
 219 178 l 1,6,-1
EndSplineSet
EndChar
StartChar: logicalnot
Encoding: 172 172 111
Width: 458
Flags: W
Fore
386 82 m 1,0,-1
 415 219 l 1,1,-1
 74 219 l 1,2,-1
 87 278 l 1,3,-1
 487 278 l 1,4,-1
 445 82 l 1,5,-1
 386 82 l 1,0,-1
EndSplineSet
EndChar
StartChar: registered
Encoding: 174 174 112
Width: 538
Flags: W
Fore
556 234 m 0,0,1
 545 183 545 183 516.5 137.5 c 128,-1,2
 488 92 488 92 448.5 58 c 128,-1,3
 409 24 409 24 361 4.5 c 128,-1,4
 313 -15 313 -15 264 -15 c 0,5,6
 213 -15 213 -15 174 5.5 c 128,-1,7
 135 26 135 26 110 60 c 128,-1,8
 85 94 85 94 76 139 c 128,-1,9
 67 184 67 184 78 234 c 0,10,11
 88 283 88 283 116.5 328.5 c 128,-1,12
 145 374 145 374 184.5 408 c 128,-1,13
 224 442 224 442 272 462.5 c 128,-1,14
 320 483 320 483 370 483 c 256,15,16
 420 483 420 483 459.5 462.5 c 128,-1,17
 499 442 499 442 524 408 c 128,-1,18
 549 374 549 374 557.5 328.5 c 128,-1,19
 566 283 566 283 556 234 c 0,0,1
511 234 m 256,20,21
 520 274 520 274 512.5 311 c 128,-1,22
 505 348 505 348 485 376 c 128,-1,23
 465 404 465 404 433 420.5 c 128,-1,24
 401 437 401 437 360 437 c 0,25,26
 320 437 320 437 281.5 421 c 128,-1,27
 243 405 243 405 210.5 377.5 c 128,-1,28
 178 350 178 350 155 313 c 128,-1,29
 132 276 132 276 123 234 c 0,30,31
 114 194 114 194 121.5 157 c 128,-1,32
 129 120 129 120 149.5 92 c 128,-1,33
 170 64 170 64 201.5 47.5 c 128,-1,34
 233 31 233 31 274 31 c 0,35,36
 314 31 314 31 353 47.5 c 128,-1,37
 392 64 392 64 424.5 92 c 128,-1,38
 457 120 457 120 479.5 157 c 128,-1,39
 502 194 502 194 511 234 c 256,20,21
393 291 m 0,40,41
 398 316 398 316 378 327 c 128,-1,42
 358 338 358 338 321 338 c 0,43,44
 314 338 314 338 306 338 c 128,-1,45
 298 338 298 338 296 337 c 1,46,-1
 274 235 l 1,47,-1
 299 235 l 2,48,49
 339 235 339 235 363 247.5 c 128,-1,50
 387 260 387 260 393 291 c 0,40,41
255 336 m 2,51,52
 257 346 257 346 250.5 351 c 128,-1,53
 244 356 244 356 247 366 c 1,54,55
 251 371 251 371 258.5 378 c 128,-1,56
 266 385 266 385 274 383 c 1,57,58
 277 383 277 383 283 379 c 1,59,-1
 329 379 l 2,60,61
 352 379 352 379 373 374 c 128,-1,62
 394 369 394 369 409 358.5 c 128,-1,63
 424 348 424 348 431 331.5 c 128,-1,64
 438 315 438 315 433 291 c 0,65,66
 425 251 425 251 400.5 231 c 128,-1,67
 376 211 376 211 350 203 c 1,68,-1
 400 92 l 1,69,-1
 357 86 l 1,70,-1
 310 195 l 1,71,-1
 267 195 l 1,72,-1
 245 91 l 1,73,-1
 203 91 l 1,74,-1
 255 336 l 2,51,52
EndSplineSet
EndChar
StartChar: macron
Encoding: 175 175 113
Width: 216
Flags: W
Fore
113 400 m 1,0,-1
 124 454 l 1,1,-1
 283 454 l 1,2,-1
 272 400 l 1,3,-1
 113 400 l 1,0,-1
EndSplineSet
EndChar
StartChar: degree
Encoding: 176 176 114
Width: 238
Flags: W
Fore
227 500 m 0,0,1
 264 500 264 500 284.5 474.5 c 128,-1,2
 305 449 305 449 297 412 c 0,3,4
 293 394 293 394 282.5 378 c 128,-1,5
 272 362 272 362 257.5 350 c 128,-1,6
 243 338 243 338 225 331 c 128,-1,7
 207 324 207 324 189 324 c 0,8,9
 152 324 152 324 132 349.5 c 128,-1,10
 112 375 112 375 120 412 c 0,11,12
 124 430 124 430 134 446 c 128,-1,13
 144 462 144 462 158.5 474 c 128,-1,14
 173 486 173 486 191 493 c 128,-1,15
 209 500 209 500 227 500 c 0,0,1
198 364 m 256,16,17
 218 364 218 364 235 378 c 128,-1,18
 252 392 252 392 256 412 c 0,19,20
 261 432 261 432 249.5 446 c 128,-1,21
 238 460 238 460 218 460 c 256,22,23
 198 460 198 460 181.5 446 c 128,-1,24
 165 432 165 432 160 412 c 0,25,26
 157 392 157 392 167.5 378 c 128,-1,27
 178 364 178 364 198 364 c 256,16,17
EndSplineSet
EndChar
StartChar: plusminus
Encoding: 177 177 115
Width: 429
Flags: W
Fore
72 60 m 1,0,-1
 380 60 l 1,1,-1
 368 0 l 1,2,-1
 60 0 l 1,3,-1
 72 60 l 1,0,-1
202 95 m 1,4,-1
 228 218 l 1,5,-1
 119 218 l 1,6,-1
 132 282 l 1,7,-1
 242 282 l 1,8,9
 244 293 244 293 248 310 c 0,10,11
 251 324 251 324 255.5 347 c 128,-1,12
 260 370 260 370 268 404 c 1,13,-1
 331 404 l 1,14,-1
 305 282 l 1,15,-1
 415 282 l 1,16,-1
 402 218 l 1,17,-1
 292 218 l 1,18,-1
 266 95 l 1,19,-1
 202 95 l 1,4,-1
EndSplineSet
EndChar
StartChar: twosuperior
Encoding: 178 178 116
Width: 292
Flags: W
Fore
268 190 m 1,0,-1
 90 190 l 2,1,2
 80 190 80 190 81 197.5 c 128,-1,3
 82 205 82 205 84 215 c 0,4,5
 86 223 86 223 92.5 228 c 128,-1,6
 99 233 99 233 106 236 c 1,7,8
 116 247 116 247 131 261.5 c 128,-1,9
 146 276 146 276 169 293 c 0,10,11
 205 319 205 319 225 335 c 128,-1,12
 245 351 245 351 254 361 c 0,13,14
 265 372 265 372 267 379 c 1,15,16
 275 393 275 393 270 409 c 128,-1,17
 265 425 265 425 250 430 c 0,18,19
 237 434 237 434 223 431 c 128,-1,20
 209 428 209 428 198.5 419 c 128,-1,21
 188 410 188 410 182.5 397 c 128,-1,22
 177 384 177 384 181 369 c 1,23,-1
 130 357 l 1,24,25
 125 385 125 385 136.5 410.5 c 128,-1,26
 148 436 148 436 170 453.5 c 128,-1,27
 192 471 192 471 220 478 c 128,-1,28
 248 485 248 485 275 477 c 0,29,30
 301 469 301 469 313.5 446.5 c 128,-1,31
 326 424 326 424 321 392 c 0,32,33
 316 366 316 366 299.5 345.5 c 128,-1,34
 283 325 283 325 261 307.5 c 128,-1,35
 239 290 239 290 214.5 273.5 c 128,-1,36
 190 257 190 257 171 240 c 1,37,-1
 250 240 l 1,38,-1
 268 266 l 1,39,-1
 286 256 l 2,40,41
 294 252 294 252 304 245 c 1,42,-1
 268 190 l 1,0,-1
EndSplineSet
EndChar
StartChar: threesuperior
Encoding: 179 179 117
Width: 304
Flags: W
Fore
147 278 m 1,0,1
 147 260 147 260 154.5 250 c 128,-1,2
 162 240 162 240 172.5 235.5 c 128,-1,3
 183 231 183 231 194.5 230.5 c 128,-1,4
 206 230 206 230 215 232 c 0,5,6
 236 237 236 237 255 254 c 128,-1,7
 274 271 274 271 279 302 c 0,8,9
 280 315 280 315 274.5 324 c 128,-1,10
 269 333 269 333 260.5 338 c 128,-1,11
 252 343 252 343 241.5 343 c 128,-1,12
 231 343 231 343 224 337 c 0,13,14
 222 335 222 335 212.5 329 c 128,-1,15
 203 323 203 323 198 322 c 1,16,17
 190 322 190 322 181 329 c 1,18,19
 176 337 176 337 173 342 c 128,-1,20
 170 347 170 347 179 355 c 2,21,-1
 261 424 l 1,22,-1
 191 424 l 1,23,-1
 170 389 l 1,24,25
 164 392.5 l 130,-1,26
 158 396 158 396 151.5 400 c 128,-1,27
 145 404 145 404 139 407.5 c 128,-1,28
 134 410 134 410 133 411 c 1,29,-1
 164 474 l 1,30,-1
 339 474 l 2,31,32
 359 474 359 474 348 453 c 0,33,34
 340 436 340 436 334 431.5 c 128,-1,35
 328 427 328 427 319 425 c 1,36,-1
 273 384 l 1,37,38
 298 386 298 386 315.5 365 c 128,-1,39
 333 344 333 344 328 306 c 0,40,41
 324 280 324 280 312.5 259 c 128,-1,42
 301 238 301 238 285.5 222 c 128,-1,43
 270 206 270 206 251 196.5 c 128,-1,44
 232 187 232 187 214 183 c 0,45,46
 193 179 193 179 172 182 c 128,-1,47
 151 185 151 185 134.5 195 c 128,-1,48
 118 205 118 205 107.5 222 c 128,-1,49
 97 239 97 239 97 264 c 1,50,51
 103 266 l 130,-1,52
 109 268 109 268 117 270 c 128,-1,53
 125 272 125 272 133.5 274 c 128,-1,54
 142 276 142 276 147 278 c 1,0,1
EndSplineSet
EndChar
StartChar: acute
Encoding: 180 180 118
Width: 255
Flags: W
Fore
249 490 m 1,0,-1
 342 491 l 1,1,-1
 220 386 l 1,2,-1
 162 386 l 1,3,-1
 249 490 l 1,0,-1
EndSplineSet
EndChar
StartChar: mu
Encoding: 181 181 119
Width: 405
Flags: W
Fore
300 -14 m 1,0,1
 295 -1 295 -1 293 7.5 c 128,-1,2
 291 16 291 16 291 27 c 1,3,4
 268 7 268 7 240 -0.5 c 128,-1,5
 212 -8 212 -8 189 -8 c 256,6,7
 166 -8 166 -8 149.5 -3 c 128,-1,8
 133 2 133 2 122 10 c 1,9,-1
 83 -170 l 1,10,-1
 22 -170 l 1,11,-1
 133 349 l 1,12,-1
 194 349 l 1,13,-1
 145 122 l 2,14,15
 138 88 138 88 155 67 c 128,-1,16
 172 46 172 46 207 46 c 0,17,18
 226 46 226 46 243.5 54.5 c 128,-1,19
 261 63 261 63 275 77 c 128,-1,20
 289 91 289 91 298.5 108.5 c 128,-1,21
 308 126 308 126 312 144 c 2,22,-1
 356 349 l 1,23,-1
 417 349 l 1,24,-1
 360 82 l 2,25,26
 353 52 353 52 354 37.5 c 128,-1,27
 355 23 355 23 359 6 c 1,28,-1
 300 -14 l 1,0,1
EndSplineSet
EndChar
StartChar: paragraph
Encoding: 182 182 120
Width: 499
Flags: W
Fore
229 209 m 2,0,1
 207 209 207 209 184 217.5 c 128,-1,2
 161 226 161 226 143.5 243 c 128,-1,3
 126 260 126 260 117.5 286 c 128,-1,4
 109 312 109 312 117 348 c 256,5,6
 125 384 125 384 142.5 410.5 c 128,-1,7
 160 437 160 437 183.5 454.5 c 128,-1,8
 207 472 207 472 234.5 481 c 128,-1,9
 262 490 262 490 289 490 c 2,10,-1
 543 490 l 1,11,-1
 529 427 l 1,12,-1
 479 427 l 1,13,-1
 359 -141 l 1,14,-1
 297 -140 l 1,15,-1
 417 427 l 1,16,-1
 357 427 l 1,17,-1
 237 -139 l 1,18,-1
 177 -139 l 1,19,-1
 251 209 l 1,20,-1
 229 209 l 2,0,1
EndSplineSet
EndChar
StartChar: periodcentered
Encoding: 183 183 121
Width: 230
Flags: W
Fore
230 236 m 0,0,1
 224 209 224 209 201 190.5 c 128,-1,2
 178 172 178 172 151 172 c 0,3,4
 125 172 125 172 109.5 190.5 c 128,-1,5
 94 209 94 209 100 236 c 0,6,7
 105 263 105 263 128.5 282 c 128,-1,8
 152 301 152 301 178 301 c 0,9,10
 205 301 205 301 220 282 c 128,-1,11
 235 263 235 263 230 236 c 0,0,1
EndSplineSet
EndChar
StartChar: cedilla
Encoding: 184 184 122
Width: 216
Flags: W
Fore
165 -87 m 0,0,1
 156 -110 156 -110 135.5 -124 c 128,-1,2
 115 -138 115 -138 90.5 -143 c 128,-1,3
 66 -148 66 -148 41 -145.5 c 128,-1,4
 16 -143 16 -143 -2 -134 c 1,5,-1
 24 -96 l 1,6,7
 30 -102 30 -102 42 -105 c 128,-1,8
 54 -108 54 -108 67 -107.5 c 128,-1,9
 80 -107 80 -107 90.5 -101.5 c 128,-1,10
 101 -96 101 -96 105 -85 c 0,11,12
 108 -77 108 -77 104 -71 c 128,-1,13
 100 -65 100 -65 91.5 -62 c 128,-1,14
 83 -59 83 -59 71.5 -57.5 c 128,-1,15
 60 -56 60 -56 47 -57 c 1,16,-1
 100 4 l 1,17,-1
 145 4 l 1,18,-1
 110 -32 l 1,19,20
 145 -27 145 -27 160 -44.5 c 128,-1,21
 175 -62 175 -62 165 -87 c 0,0,1
EndSplineSet
EndChar
StartChar: onesuperior
Encoding: 185 185 123
Width: 262
Flags: W
Fore
214 189 m 1,0,-1
 164 189 l 1,1,-1
 209 403 l 1,2,-1
 161 375 l 1,3,-1
 151 395 l 2,4,5
 149 399 149 399 148 402.5 c 128,-1,6
 147 406 147 406 145 409 c 2,7,-1
 142 415 l 1,8,9
 158.5 424.5 l 130,-1,10
 175 434 175 434 194.5 446 c 128,-1,11
 214 458 214 458 231 468 c 128,-1,12
 247 477 247 477 248 478 c 0,13,14
 258 484 258 484 264 481 c 128,-1,15
 270 478 270 478 275 470 c 256,16,17
 280 462 280 462 277.5 451.5 c 128,-1,18
 275 441 275 441 266 434 c 1,19,-1
 214 189 l 1,0,-1
EndSplineSet
EndChar
StartChar: ordmasculine
Encoding: 186 186 124
Width: 252
Flags: W
Fore
312 308 m 0,0,1
 305 276 305 276 288.5 253 c 128,-1,2
 272 230 272 230 251 215.5 c 128,-1,3
 230 201 230 201 207 194 c 128,-1,4
 184 187 184 187 164 187 c 0,5,6
 112 187 112 187 85 220 c 128,-1,7
 58 253 58 253 69 304 c 0,8,9
 75 332 75 332 90 355 c 128,-1,10
 105 378 105 378 125.5 393.5 c 128,-1,11
 146 409 146 409 169 417.5 c 128,-1,12
 192 426 192 426 215 426 c 0,13,14
 243 426 243 426 264 416.5 c 128,-1,15
 285 407 285 407 297.5 391 c 128,-1,16
 310 375 310 375 313.5 353.5 c 128,-1,17
 317 332 317 332 312 308 c 0,0,1
262 306 m 0,18,19
 265 318 265 318 263.5 331 c 128,-1,20
 262 344 262 344 255.5 354.5 c 128,-1,21
 249 365 249 365 237 372 c 128,-1,22
 225 379 225 379 206 379 c 0,23,24
 171 379 171 379 148.5 356 c 128,-1,25
 126 333 126 333 120 305 c 0,26,27
 116 287 116 287 119.5 273.5 c 128,-1,28
 123 260 123 260 131.5 251.5 c 128,-1,29
 140 243 140 243 151.5 238.5 c 128,-1,30
 163 234 163 234 175 234 c 0,31,32
 202 234 202 234 228 251.5 c 128,-1,33
 254 269 254 269 262 306 c 0,18,19
EndSplineSet
EndChar
StartChar: guillemotright
Encoding: 187 187 125
Width: 400
Flags: W
Fore
275 30 m 1,0,-1
 193 30 l 1,1,-1
 321 178 l 1,2,-1
 256 325 l 1,3,-1
 338 325 l 1,4,-1
 398 178 l 1,5,-1
 275 30 l 1,0,-1
128 30 m 1,6,-1
 46 30 l 1,7,-1
 174 178 l 1,8,-1
 109 325 l 1,9,-1
 191 325 l 1,10,-1
 251 178 l 1,11,-1
 128 30 l 1,6,-1
EndSplineSet
EndChar
StartChar: onequarter
Encoding: 188 188 126
Width: 631
Flags: W
Fore
187 -6 m 1,0,-1
 133 -6 l 1,1,-1
 526 479 l 1,2,-1
 581 479 l 1,3,-1
 187 -6 l 1,0,-1
214 189 m 1,4,-1
 164 189 l 1,5,-1
 209 403 l 1,6,-1
 161 375 l 1,7,-1
 151 395 l 2,8,9
 149 399 149 399 148 402.5 c 128,-1,10
 147 406 147 406 145 409 c 2,11,-1
 142 415 l 1,12,13
 158.5 424.5 l 130,-1,14
 175 434 175 434 194.5 446 c 128,-1,15
 214 458 214 458 231 468 c 128,-1,16
 247 477 247 477 248 478 c 0,17,18
 258 484 258 484 264 481 c 128,-1,19
 270 478 270 478 275 470 c 256,20,21
 280 462 280 462 277.5 451.5 c 128,-1,22
 275 441 275 441 266 434 c 1,23,-1
 214 189 l 1,4,-1
596 65 m 1,24,-1
 607 114 l 1,25,-1
 558 114 l 1,26,-1
 588 258 l 1,27,28
 593 264 593 264 595 265.5 c 128,-1,29
 597 267 597 267 597 274 c 1,30,31
 597 272 597 272 595 276 c 128,-1,32
 593 280 593 280 590.5 285.5 c 128,-1,33
 588 291 588 291 585 295.5 c 128,-1,34
 582 300 582 300 578 300 c 0,35,36
 570 301 570 301 563 293 c 1,37,-1
 564 294 l 1,38,-1
 365 103 l 1,39,-1
 365 102 l 1,40,41
 356 91 356 91 360.5 78.5 c 128,-1,42
 365 66 365 66 376 65 c 2,43,-1
 498 65 l 1,44,-1
 485 0 l 1,45,-1
 534 0 l 1,46,-1
 547 65 l 1,47,-1
 596 65 l 1,24,-1
528 200 m 1,48,-1
 509 114 l 1,49,-1
 440 114 l 1,50,-1
 528 200 l 1,48,-1
EndSplineSet
Ligature: 0 0 'frac' one fraction four
Ligature: 0 0 'frac' one slash four
EndChar
StartChar: onehalf
Encoding: 189 189 127
Width: 618
Flags: W
Fore
539 0 m 1,0,-1
 361 0 l 2,1,2
 351 0 351 0 352 7.5 c 128,-1,3
 353 15 353 15 355 25 c 0,4,5
 357 33 357 33 363 38 c 128,-1,6
 369 43 369 43 376 46 c 1,7,8
 386 57 386 57 401 71.5 c 128,-1,9
 416 86 416 86 439 103 c 0,10,11
 476 129 476 129 495.5 145 c 128,-1,12
 515 161 515 161 525 171 c 0,13,14
 536 182 536 182 538 189 c 1,15,16
 546 203 546 203 541 219 c 128,-1,17
 536 235 536 235 521 240 c 0,18,19
 508 244 508 244 494 241 c 128,-1,20
 480 238 480 238 469.5 229 c 128,-1,21
 459 220 459 220 453.5 207 c 128,-1,22
 448 194 448 194 452 179 c 1,23,-1
 401 167 l 1,24,25
 396 195 396 195 407.5 220.5 c 128,-1,26
 419 246 419 246 440.5 263.5 c 128,-1,27
 462 281 462 281 490 288 c 128,-1,28
 518 295 518 295 546 287 c 0,29,30
 571 279 571 279 584 256.5 c 128,-1,31
 597 234 597 234 591 202 c 0,32,33
 587 176 587 176 570.5 155.5 c 128,-1,34
 554 135 554 135 532 117.5 c 128,-1,35
 510 100 510 100 485.5 83.5 c 128,-1,36
 461 67 461 67 441 50 c 1,37,-1
 520 50 l 1,38,-1
 539 76 l 1,39,40
 541 75 541 75 544 73 c 0,41,42
 546 71 546 71 549 69.5 c 128,-1,43
 552 68 552 68 556 66 c 0,44,45
 564 62 564 62 574 55 c 1,46,-1
 539 0 l 1,0,-1
214 189 m 1,47,-1
 164 189 l 1,48,-1
 209 403 l 1,49,-1
 161 375 l 1,50,-1
 151 395 l 2,51,52
 149 399 149 399 148 402.5 c 128,-1,53
 147 406 147 406 145 409 c 2,54,-1
 142 415 l 1,55,56
 158.5 424.5 l 130,-1,57
 175 434 175 434 194.5 446 c 128,-1,58
 214 458 214 458 231 468 c 128,-1,59
 247 477 247 477 248 478 c 0,60,61
 258 484 258 484 264 481 c 128,-1,62
 270 478 270 478 275 470 c 256,63,64
 280 462 280 462 277.5 451.5 c 128,-1,65
 275 441 275 441 266 434 c 1,66,-1
 214 189 l 1,47,-1
166 -6 m 1,67,-1
 112 -6 l 1,68,-1
 505 479 l 1,69,-1
 560 479 l 1,70,-1
 166 -6 l 1,67,-1
EndSplineSet
Ligature: 0 0 'frac' one fraction two
Ligature: 0 0 'frac' one slash two
EndChar
StartChar: threequarters
Encoding: 190 190 128
Width: 628
Flags: W
Fore
596 65 m 1,0,-1
 607 114 l 1,1,-1
 558 114 l 1,2,-1
 588 258 l 1,3,4
 593 264 593 264 595 265.5 c 128,-1,5
 597 267 597 267 597 274 c 1,6,7
 597 272 597 272 595 276 c 128,-1,8
 593 280 593 280 590.5 285.5 c 128,-1,9
 588 291 588 291 585 295.5 c 128,-1,10
 582 300 582 300 578 300 c 0,11,12
 570 301 570 301 563 293 c 1,13,-1
 564 294 l 1,14,-1
 365 103 l 1,15,-1
 365 102 l 1,16,17
 356 91 356 91 360.5 78.5 c 128,-1,18
 365 66 365 66 376 65 c 2,19,-1
 498 65 l 1,20,-1
 485 0 l 1,21,-1
 534 0 l 1,22,-1
 547 65 l 1,23,-1
 596 65 l 1,0,-1
528 200 m 1,24,-1
 509 114 l 1,25,-1
 440 114 l 1,26,-1
 528 200 l 1,24,-1
147 278 m 1,27,28
 147 260 147 260 154.5 250 c 128,-1,29
 162 240 162 240 172.5 235.5 c 128,-1,30
 183 231 183 231 194.5 230.5 c 128,-1,31
 206 230 206 230 215 232 c 0,32,33
 236 237 236 237 255 254 c 128,-1,34
 274 271 274 271 279 302 c 0,35,36
 280 315 280 315 274.5 324 c 128,-1,37
 269 333 269 333 260.5 338 c 128,-1,38
 252 343 252 343 241.5 343 c 128,-1,39
 231 343 231 343 224 337 c 0,40,41
 222 335 222 335 212.5 329 c 128,-1,42
 203 323 203 323 198 322 c 1,43,44
 190 322 190 322 181 329 c 1,45,46
 176 337 176 337 173 342 c 128,-1,47
 170 347 170 347 179 355 c 2,48,-1
 261 424 l 1,49,-1
 191 424 l 1,50,-1
 170 389 l 1,51,52
 164 392.5 l 130,-1,53
 158 396 158 396 151.5 400 c 128,-1,54
 145 404 145 404 139 407.5 c 128,-1,55
 134 410 134 410 133 411 c 1,56,-1
 164 474 l 1,57,-1
 339 474 l 2,58,59
 359 474 359 474 348 453 c 0,60,61
 340 436 340 436 334 431.5 c 128,-1,62
 328 427 328 427 319 425 c 1,63,-1
 273 384 l 1,64,65
 298 386 298 386 315.5 365 c 128,-1,66
 333 344 333 344 328 306 c 0,67,68
 324 280 324 280 312.5 259 c 128,-1,69
 301 238 301 238 285.5 222 c 128,-1,70
 270 206 270 206 251 196.5 c 128,-1,71
 232 187 232 187 214 183 c 0,72,73
 193 179 193 179 172 182 c 128,-1,74
 151 185 151 185 134.5 195 c 128,-1,75
 118 205 118 205 107.5 222 c 128,-1,76
 97 239 97 239 97 264 c 1,77,78
 103 266 l 130,-1,79
 109 268 109 268 117 270 c 128,-1,80
 125 272 125 272 133.5 274 c 128,-1,81
 142 276 142 276 147 278 c 1,27,28
218 -6 m 1,82,-1
 164 -6 l 1,83,-1
 557 479 l 1,84,-1
 612 479 l 1,85,-1
 218 -6 l 1,82,-1
EndSplineSet
Ligature: 0 0 'frac' three fraction four
Ligature: 0 0 'frac' three slash four
EndChar
StartChar: questiondown
Encoding: 191 191 129
Width: 399
Flags: W
Fore
75 -97 m 0,0,1
 61 -72 61 -72 62.5 -47 c 128,-1,2
 64 -22 64 -22 75.5 1.5 c 128,-1,3
 87 25 87 25 104.5 46 c 128,-1,4
 122 67 122 67 141 84 c 0,5,6
 169 110 169 110 191 134.5 c 128,-1,7
 213 159 213 159 220 191 c 2,8,-1
 229 233 l 1,9,-1
 299 233 l 1,10,-1
 290 191 l 2,11,12
 281 148 281 148 252.5 116.5 c 128,-1,13
 224 85 224 85 195 58 c 0,14,15
 157 24 157 24 141 -1.5 c 128,-1,16
 125 -27 125 -27 135 -56 c 0,17,18
 146 -89 146 -89 199 -85 c 0,19,20
 221 -83 221 -83 247.5 -66 c 128,-1,21
 274 -49 274 -49 287 -26 c 1,22,-1
 327 -56 l 1,23,24
 307 -90 307 -90 275.5 -112.5 c 128,-1,25
 244 -135 244 -135 204 -140 c 0,26,27
 163 -146 163 -146 127 -136 c 128,-1,28
 91 -126 91 -126 75 -97 c 0,0,1
233 298 m 0,29,30
 237 318 237 318 252 330 c 128,-1,31
 267 342 267 342 287 342 c 256,32,33
 307 342 307 342 317 330 c 128,-1,34
 327 318 327 318 323 298 c 0,35,36
 318 278 318 278 303 265 c 128,-1,37
 288 252 288 252 268 252 c 256,38,39
 248 252 248 252 238 265 c 128,-1,40
 228 278 228 278 233 298 c 0,29,30
EndSplineSet
EndChar
StartChar: Aring
Encoding: 197 197 134
Width: 458
Flags: W
Fore
348 569 m 0,0,1
 363 569 363 569 375.5 579.5 c 128,-1,2
 388 590 388 590 391 604 c 256,3,4
 394 618 394 618 386 628.5 c 128,-1,5
 378 639 378 639 363 639 c 0,6,7
 349 639 349 639 336.5 628.5 c 128,-1,8
 324 618 324 618 321 604 c 0,9,10
 319 590 319 590 326.5 579.5 c 128,-1,11
 334 569 334 569 348 569 c 0,0,1
373 683 m 256,12,13
 407 683 407 683 425.5 660 c 128,-1,14
 444 637 444 637 437 603 c 0,15,16
 429 569 429 569 401 546 c 128,-1,17
 373 523 373 523 339 523 c 256,18,19
 305 523 305 523 286.5 546 c 128,-1,20
 268 569 268 569 276 603 c 0,21,22
 283 637 283 637 311 660 c 128,-1,23
 339 683 339 683 373 683 c 256,12,13
445 0 m 1,24,-1
 375 -12 l 1,25,-1
 351 124 l 1,26,-1
 158 124 l 1,27,-1
 78 -12 l 1,28,-1
 13 0 l 1,29,-1
 291 455 l 2,30,31
 295 461 295 461 305 472.5 c 128,-1,32
 315 484 315 484 327 490 c 0,33,34
 333 493 333 493 340 492 c 128,-1,35
 347 491 347 491 354 488 c 128,-1,36
 361 485 361 485 366 481 c 128,-1,37
 371 477 371 477 373 474 c 0,38,39
 380 465 380 465 373 456 c 128,-1,40
 366 447 366 447 363 443 c 1,41,-1
 445 0 l 1,24,-1
308 377 m 1,42,-1
 195 186 l 1,43,-1
 340 186 l 1,44,-1
 308 377 l 1,42,-1
EndSplineSet
EndChar
StartChar: AE
Encoding: 198 198 135
Width: 649
Flags: W
Fore
466 214 m 1,0,1
 457 172 457 172 449 134 c 128,-1,2
 441 96 441 96 435 68 c 1,3,-1
 632 68 l 1,4,-1
 618 1 l 1,5,-1
 401 1 l 2,6,7
 381 1 381 1 368.5 15.5 c 128,-1,8
 356 30 356 30 361 50 c 0,9,10
 363 61 363 61 366.5 74 c 128,-1,11
 370 87 370 87 372 98 c 0,12,13
 375 110 375 110 377 123 c 1,14,-1
 214 123 l 1,15,-1
 97 -13 l 1,16,-1
 36 18 l 1,17,-1
 398 438 l 2,18,19
 431 478 431 478 478 478 c 2,20,-1
 720 478 l 1,21,-1
 705 410 l 1,22,-1
 507 410 l 1,23,24
 502 388 502 388 494.5 354 c 128,-1,25
 487 320 487 320 479 281 c 1,26,-1
 657 281 l 1,27,-1
 644 214 l 1,28,-1
 466 214 l 1,0,1
263 185 m 1,29,-1
 390 185 l 1,30,31
 396 214 396 214 402.5 244 c 128,-1,32
 409 274 409 274 415 302 c 128,-1,33
 421 330 421 330 426.5 354 c 128,-1,34
 432 378 432 378 435 395 c 1,35,-1
 263 185 l 1,29,-1
EndSplineSet
EndChar
StartChar: Eth
Encoding: 208 208 145
Width: 522
Flags: W
Fore
56 267 m 1,0,-1
 119 267 l 1,1,-1
 146 394 l 2,2,3
 148 403 148 403 143.5 410 c 128,-1,4
 139 417 139 417 134.5 423 c 128,-1,5
 130 429 130 429 127 435 c 128,-1,6
 124 441 124 441 129 448 c 0,7,8
 132 453 132 453 138.5 460 c 128,-1,9
 145 467 145 467 152 473 c 128,-1,10
 159 479 159 479 166.5 482.5 c 128,-1,11
 174 486 174 486 180 483 c 0,12,13
 186 479 l 128,-1,14
 192 475 l 1,15,-1
 301 475 l 2,16,17
 412 475 412 475 454 412 c 128,-1,18
 496 349 496 349 473 238 c 0,19,20
 449 123 449 123 379 61.5 c 128,-1,21
 309 0 309 0 201 0 c 2,22,-1
 63 0 l 1,23,-1
 109 217 l 1,24,-1
 46 217 l 1,25,-1
 56 267 l 1,0,-1
403 238 m 0,26,27
 439 408 439 408 272 408 c 2,28,-1
 216 408 l 1,29,-1
 186 267 l 1,30,-1
 285 267 l 1,31,-1
 275 217 l 1,32,-1
 176 217 l 1,33,-1
 144 68 l 1,34,-1
 223 68 l 2,35,36
 301 68 301 68 343.5 113.5 c 128,-1,37
 386 159 386 159 403 238 c 0,26,27
EndSplineSet
EndChar
StartChar: multiply
Encoding: 215 215 152
Width: 429
Flags: W
Fore
341 8 m 1,0,-1
 247 135 l 1,1,2
 221 113 221 113 207 101.5 c 128,-1,3
 193 90 193 90 185 83 c 128,-1,4
 177 76 177 76 172 71.5 c 128,-1,5
 167 67 167 67 159 60 c 128,-1,6
 151 53 151 53 137 41 c 128,-1,7
 123 29 123 29 97 7 c 1,8,-1
 62 47 l 1,9,-1
 212 174 l 1,10,-1
 116 301 l 1,11,-1
 168 341 l 1,12,-1
 263 213 l 1,13,-1
 409 339 l 1,14,-1
 443 299 l 1,15,-1
 295 174 l 1,16,-1
 393 48 l 1,17,-1
 341 8 l 1,0,-1
EndSplineSet
EndChar
StartChar: Oslash
Encoding: 216 216 153
Width: 489
Flags: W
Fore
549 505 m 1,0,-1
 475 417 l 1,1,2
 510 352 510 352 487 241 c 0,3,4
 475 184 475 184 451.5 138.5 c 128,-1,5
 428 93 428 93 396 60.5 c 128,-1,6
 364 28 364 28 325 11 c 128,-1,7
 286 -6 286 -6 241 -6 c 0,8,9
 180 -6 180 -6 144 24 c 1,10,-1
 74 -58 l 1,11,-1
 38 -32 l 1,12,-1
 114 59 l 1,13,14
 95 91 95 91 91 137 c 128,-1,15
 87 183 87 183 100 241 c 0,16,17
 110 292 110 292 131 336.5 c 128,-1,18
 152 381 152 381 183 414.5 c 128,-1,19
 214 448 214 448 254.5 467.5 c 128,-1,20
 295 487 295 487 346 487 c 0,21,22
 407 487 407 487 447 453 c 1,23,-1
 512 531 l 1,24,-1
 549 505 l 1,0,-1
168 241 m 0,25,26
 153 170 153 170 168 122 c 1,27,-1
 398 395 l 1,28,29
 375 421 375 421 332 421 c 0,30,31
 297 421 297 421 269.5 405 c 128,-1,32
 242 389 242 389 222 363.5 c 128,-1,33
 202 338 202 338 188.5 306 c 128,-1,34
 175 274 175 274 168 241 c 0,25,26
419 241 m 0,35,36
 432 305 432 305 420 352 c 1,37,-1
 192 82 l 1,38,39
 215 60 215 60 255 60 c 0,40,41
 289 60 289 60 316.5 75 c 128,-1,42
 344 90 344 90 364 115.5 c 128,-1,43
 384 141 384 141 397.5 173.5 c 128,-1,44
 411 206 411 206 419 241 c 0,35,36
EndSplineSet
EndChar
StartChar: Thorn
Encoding: 222 222 159
Width: 487
Flags: W
Fore
488 250 m 0,0,1
 477 200 477 200 453 165 c 128,-1,2
 429 130 429 130 393 107.5 c 128,-1,3
 357 85 357 85 310.5 74.5 c 128,-1,4
 264 64 264 64 210 64 c 2,5,-1
 147 64 l 1,6,-1
 116 -84 l 1,7,-1
 44 -84 l 1,8,-1
 175 536 l 1,9,-1
 247 536 l 1,10,-1
 223 422 l 1,11,-1
 309 422 l 2,12,13
 355 423 355 423 392 413 c 128,-1,14
 429 403 429 403 453.5 381.5 c 128,-1,15
 478 360 478 360 487.5 327.5 c 128,-1,16
 497 295 497 295 488 250 c 0,0,1
413 247 m 0,17,18
 419 276 419 276 412.5 296.5 c 128,-1,19
 406 317 406 317 390 330.5 c 128,-1,20
 374 344 374 344 351 350 c 128,-1,21
 328 356 328 356 301 356 c 2,22,-1
 209 356 l 1,23,-1
 163 140 l 1,24,-1
 238 140 l 2,25,26
 312 140 312 140 356.5 165 c 128,-1,27
 401 190 401 190 413 247 c 0,17,18
EndSplineSet
EndChar
StartChar: uni00DF
Encoding: 223 223 160
Width: 461
Flags: W
Fore
184 -4 m 1,0,-1
 197 61 l 1,1,-1
 240 61 l 2,2,3
 263 61 263 61 286 68.5 c 128,-1,4
 309 76 309 76 328.5 90.5 c 128,-1,5
 348 105 348 105 361.5 124 c 128,-1,6
 375 143 375 143 379 166 c 0,7,8
 383 188 383 188 378.5 206.5 c 128,-1,9
 374 225 374 225 362 238.5 c 128,-1,10
 350 252 350 252 332.5 260 c 128,-1,11
 315 268 315 268 294 268 c 2,12,-1
 240 268 l 1,13,-1
 255 333 l 1,14,-1
 312 333 l 2,15,16
 334 336 334 336 347 348 c 128,-1,17
 360 360 360 360 362.5 375 c 128,-1,18
 365 390 365 390 357.5 404 c 128,-1,19
 350 418 350 418 333 423 c 0,20,21
 315 429 315 429 294 426.5 c 128,-1,22
 273 424 273 424 254.5 413.5 c 128,-1,23
 236 403 236 403 221.5 385.5 c 128,-1,24
 207 368 207 368 202 343 c 0,25,26
 174 212 174 212 152 108 c 2,27,-1
 102 -128 l 2,28,29
 102 -129 102 -129 91 -129.5 c 128,-1,30
 80 -130 80 -130 67.5 -130 c 128,-1,31
 55 -130 55 -130 44 -129.5 c 128,-1,32
 34 -129 34 -129 33 -129 c 1,33,-1
 134 348 l 2,34,35
 148 411 148 411 193 446.5 c 128,-1,36
 238 482 238 482 301 482 c 0,37,38
 361 485 361 485 395 465.5 c 128,-1,39
 429 446 429 446 439.5 417 c 128,-1,40
 450 388 450 388 437 355.5 c 128,-1,41
 424 323 424 323 390 300 c 1,42,43
 408 293 408 293 418.5 282.5 c 128,-1,44
 429 272 429 272 437 256 c 0,45,46
 456 215 456 215 444 163 c 0,47,48
 437 128 437 128 416.5 97.5 c 128,-1,49
 396 67 396 67 367.5 44.5 c 128,-1,50
 339 22 339 22 304.5 9 c 128,-1,51
 270 -4 270 -4 234 -4 c 2,52,-1
 184 -4 l 1,0,-1
EndSplineSet
EndChar
StartChar: ae
Encoding: 230 230 167
Width: 661
Flags: W
Fore
536 359 m 0,0,1
 578 359 578 359 606 344 c 128,-1,2
 634 329 634 329 648.5 305 c 128,-1,3
 663 281 663 281 666 250.5 c 128,-1,4
 669 220 669 220 662 189 c 0,5,6
 660 181 660 181 656 173 c 128,-1,7
 652 165 652 165 643 159 c 0,8,9
 633 152 633 152 612 152 c 2,10,-1
 390 152 l 1,11,12
 383 117 383 117 395 95 c 128,-1,13
 407 73 407 73 431.5 64 c 128,-1,14
 456 55 456 55 489 60 c 128,-1,15
 522 65 522 65 556 85 c 1,16,-1
 584 33 l 1,17,18
 564 19 564 19 534.5 9 c 128,-1,19
 505 -1 505 -1 473.5 -4 c 128,-1,20
 442 -7 442 -7 411.5 -1 c 128,-1,21
 381 5 381 5 358 23 c 1,22,23
 358 20 358 20 357 16 c 0,24,25
 355 8 355 8 355 2 c 1,26,-1
 287 2 l 1,27,-1
 294 39 l 1,28,29
 269 16 269 16 241 4 c 128,-1,30
 213 -8 213 -8 181 -8 c 0,31,32
 145 -8 145 -8 120 7 c 128,-1,33
 95 22 95 22 81 47.5 c 128,-1,34
 67 73 67 73 64 105.5 c 128,-1,35
 61 138 61 138 68 173 c 256,36,37
 75 208 75 208 93 241 c 128,-1,38
 111 274 111 274 136 299 c 128,-1,39
 161 324 161 324 192 339 c 128,-1,40
 223 354 223 354 258 354 c 0,41,42
 321 354 321 354 350 309 c 1,43,-1
 361 358 l 1,44,-1
 427 358 l 1,45,-1
 419 320 l 1,46,47
 444 338 444 338 473.5 348.5 c 128,-1,48
 503 359 503 359 536 359 c 0,0,1
263 78 m 0,49,50
 288 97 288 97 302 124 c 128,-1,51
 316 151 316 151 321 173 c 0,52,53
 325 191 325 191 324 211.5 c 128,-1,54
 323 232 323 232 315.5 249.5 c 128,-1,55
 308 267 308 267 292 278.5 c 128,-1,56
 276 290 276 290 249 290 c 0,57,58
 223 290 223 290 202 278.5 c 128,-1,59
 181 267 181 267 166 249.5 c 128,-1,60
 151 232 151 232 141.5 211.5 c 128,-1,61
 132 191 132 191 128 173 c 0,62,63
 124 153 124 153 125.5 132.5 c 128,-1,64
 127 112 127 112 135.5 95.5 c 128,-1,65
 144 79 144 79 160 68 c 128,-1,66
 176 57 176 57 200 57 c 0,67,68
 234 57 234 57 263 78 c 0,49,50
402 213 m 1,69,-1
 600 213 l 1,70,71
 605 247 605 247 584.5 272 c 128,-1,72
 564 297 564 297 522 297 c 0,73,74
 496 297 496 297 476 288.5 c 128,-1,75
 456 280 456 280 441 267 c 128,-1,76
 426 254 426 254 416 239.5 c 128,-1,77
 406 225 406 225 402 213 c 1,69,-1
EndSplineSet
EndChar
StartChar: eth
Encoding: 240 240 177
Width: 416
Flags: W
Fore
220 553 m 1,0,1
 231 549 231 549 245 542 c 128,-1,2
 259 535 259 535 274 526 c 128,-1,3
 289 517 289 517 303 508 c 128,-1,4
 317 499 317 499 327 491 c 1,5,6
 338 496 338 496 355.5 503.5 c 128,-1,7
 373 511 373 511 389 517 c 0,8,9
 407 524 407 524 427 531 c 1,10,11
 429 523 429 523 433 507 c 128,-1,12
 437 491 437 491 439 483 c 1,13,14
 417 474 417 474 399.5 468 c 128,-1,15
 382 462 382 462 361 453 c 1,16,17
 411 401 411 401 430 333 c 128,-1,18
 449 265 449 265 431 182 c 0,19,20
 423 142 423 142 402 103.5 c 128,-1,21
 381 65 381 65 343 36 c 256,22,23
 305 7 305 7 259 -4 c 128,-1,24
 213 -15 213 -15 171.5 -8 c 128,-1,25
 130 -1 130 -1 98.5 24 c 128,-1,26
 67 49 67 49 58 93 c 0,27,28
 49 136 49 136 58.5 177 c 128,-1,29
 68 218 68 218 90.5 252.5 c 128,-1,30
 113 287 113 287 145.5 312 c 128,-1,31
 178 337 178 337 216 349.5 c 128,-1,32
 254 362 254 362 294 359 c 128,-1,33
 334 356 334 356 372 334 c 1,34,35
 360 363 360 363 343 385 c 128,-1,36
 326 407 326 407 303 426 c 1,37,38
 274 414 274 414 238 398 c 128,-1,39
 202 382 202 382 173 371 c 1,40,41
 171 379 171 379 168.5 394.5 c 128,-1,42
 166 410 166 410 164 418 c 1,43,-1
 269 463 l 1,44,45
 250 475 250 475 227 487.5 c 128,-1,46
 204 500 204 500 183 508 c 1,47,48
 189 516 189 516 201.5 530.5 c 128,-1,49
 214 545 214 545 220 553 c 1,0,1
368 177 m 0,50,51
 378 221 378 221 364 251 c 128,-1,52
 350 281 350 281 321.5 294.5 c 128,-1,53
 293 308 293 308 256 304.5 c 128,-1,54
 219 301 219 301 183 277 c 0,55,56
 154 258 154 258 138.5 229 c 128,-1,57
 123 200 123 200 117 169 c 0,58,59
 109 128 109 128 124 97 c 128,-1,60
 139 66 139 66 167.5 51 c 128,-1,61
 196 36 196 36 232.5 39 c 128,-1,62
 269 42 269 42 303 68 c 0,63,64
 331 90 331 90 345.5 118 c 128,-1,65
 360 146 360 146 368 177 c 0,50,51
EndSplineSet
EndChar
StartChar: divide
Encoding: 247 247 184
Width: 500
Flags: W
Fore
356 299 m 0,0,1
 352 280 352 280 334 264.5 c 128,-1,2
 316 249 316 249 296 249 c 0,3,4
 275 249 275 249 263.5 263.5 c 128,-1,5
 252 278 252 278 257 299 c 256,6,7
 262 320 262 320 279.5 335 c 128,-1,8
 297 350 297 350 318 350 c 0,9,10
 338 350 338 350 349.5 334.5 c 128,-1,11
 361 319 361 319 356 299 c 0,0,1
304 52 m 0,12,13
 299 33 299 33 281.5 17 c 128,-1,14
 264 1 264 1 244 1 c 0,15,16
 223 1 223 1 211.5 16 c 128,-1,17
 200 31 200 31 205 52 c 256,18,19
 210 73 210 73 227 87 c 128,-1,20
 244 101 244 101 265 101 c 0,21,22
 285 101 285 101 296.5 86.5 c 128,-1,23
 308 72 308 72 304 52 c 0,12,13
105 209 m 1,24,-1
 478 209 l 1,25,-1
 463 139 l 1,26,-1
 90 139 l 1,27,-1
 105 209 l 1,24,-1
EndSplineSet
EndChar
StartChar: oslash
Encoding: 248 248 185
Width: 416
Flags: W
Fore
444 376 m 1,0,-1
 382 305 l 1,1,2
 401 277 401 277 404.5 240.5 c 128,-1,3
 408 204 408 204 401 173 c 0,4,5
 393 138 393 138 371 96.5 c 128,-1,6
 349 55 349 55 309 26 c 0,7,8
 262 -7 262 -7 207 -7 c 0,9,10
 159 -7 159 -7 128 17 c 1,11,-1
 66 -54 l 1,12,-1
 36 -30 l 1,13,-1
 103 47 l 1,14,15
 86 75 86 75 84 109.5 c 128,-1,16
 82 144 82 144 88 173 c 0,17,18
 94 200 94 200 109 231.5 c 128,-1,19
 124 263 124 263 148.5 290 c 128,-1,20
 173 317 173 317 207 335 c 128,-1,21
 241 353 241 353 284 353 c 0,22,23
 328 353 328 353 355 332 c 1,24,-1
 415 400 l 1,25,-1
 444 376 l 1,0,-1
145 173 m 0,26,27
 142 156 142 156 142.5 136.5 c 128,-1,28
 143 117 143 117 151 100 c 1,29,-1
 309 279 l 1,30,31
 292 288 292 288 270 288 c 0,32,33
 242 288 242 288 220.5 276.5 c 128,-1,34
 199 265 199 265 183.5 247.5 c 128,-1,35
 168 230 168 230 158.5 210 c 128,-1,36
 149 190 149 190 145 173 c 0,26,27
345 173 m 0,37,38
 350 192 350 192 348 213.5 c 128,-1,39
 346 235 346 235 336 253 c 1,40,-1
 175 70 l 1,41,42
 194 58 194 58 221 58 c 0,43,44
 256 58 256 58 285 79 c 0,45,46
 311 97 311 97 325.5 123.5 c 128,-1,47
 340 150 340 150 345 173 c 0,37,38
EndSplineSet
EndChar
StartChar: thorn
Encoding: 254 254 191
Width: 489
Flags: W
Fore
161 173 m 256,0,1
 155 146 155 146 159.5 122.5 c 128,-1,2
 164 99 164 99 176.5 81.5 c 128,-1,3
 189 64 189 64 209 54 c 128,-1,4
 229 44 229 44 254 44 c 256,5,6
 279 44 279 44 303 54 c 128,-1,7
 327 64 327 64 347 81.5 c 128,-1,8
 367 99 367 99 381 122.5 c 128,-1,9
 395 146 395 146 401 173 c 256,10,11
 407 200 407 200 402.5 223 c 128,-1,12
 398 246 398 246 385 263.5 c 128,-1,13
 372 281 372 281 352.5 291 c 128,-1,14
 333 301 333 301 308 301 c 256,15,16
 283 301 283 301 259 291 c 128,-1,17
 235 281 235 281 215 263.5 c 128,-1,18
 195 246 195 246 181 223 c 128,-1,19
 167 200 167 200 161 173 c 256,0,1
167 497 m 1,20,-1
 239 497 l 1,21,-1
 202 324 l 1,22,23
 229 343 229 343 259.5 353.5 c 128,-1,24
 290 364 290 364 322 364 c 0,25,26
 360 364 360 364 390.5 349 c 128,-1,27
 421 334 421 334 440 308 c 128,-1,28
 459 282 459 282 466 247.5 c 128,-1,29
 473 213 473 213 464 173 c 0,30,31
 456 133 456 133 434.5 98.5 c 128,-1,32
 413 64 413 64 382.5 38 c 128,-1,33
 352 12 352 12 315.5 -3 c 128,-1,34
 279 -18 279 -18 241 -18 c 0,35,36
 209 -18 209 -18 183 -7.5 c 128,-1,37
 157 3 157 3 138 21 c 1,38,-1
 100 -158 l 1,39,-1
 28 -158 l 1,40,-1
 167 497 l 1,20,-1
EndSplineSet
EndChar
StartChar: Lslash
Encoding: 321 321 193
Width: 353
Flags: W
Fore
44 208 m 1,0,-1
 114 250 l 1,1,-1
 162 477 l 1,2,-1
 230 477 l 1,3,-1
 192 297 l 1,4,-1
 280 351 l 1,5,-1
 270 304 l 1,6,-1
 182 250 l 1,7,-1
 141 61 l 1,8,-1
 355 61 l 1,9,-1
 343 0 l 1,10,-1
 101 0 l 1,11,12
 95 -5 95 -5 85.5 -8.5 c 128,-1,13
 76 -12 76 -12 73 -14 c 1,14,15
 65 -17 65 -17 59 -13.5 c 128,-1,16
 53 -10 53 -10 48 -4 c 128,-1,17
 43 2 43 2 40 9 c 128,-1,18
 37 16 37 16 36 21 c 0,19,20
 34 28 34 28 39.5 34 c 128,-1,21
 45 40 45 40 52.5 46 c 128,-1,22
 60 52 60 52 67 59 c 128,-1,23
 74 66 74 66 76 75 c 2,24,-1
 104 203 l 1,25,-1
 34 161 l 1,26,-1
 44 208 l 1,0,-1
EndSplineSet
EndChar
StartChar: lslash
Encoding: 322 322 194
Width: 183
Flags: W
Fore
47 223 m 1,0,-1
 117 265 l 1,1,-1
 161 473 l 1,2,-1
 192 496 l 1,3,-1
 227 496 l 1,4,-1
 187 308 l 1,5,-1
 265 355 l 1,6,-1
 255 309 l 1,7,-1
 177 262 l 1,8,-1
 122 0 l 1,9,-1
 61 0 l 1,10,-1
 107 219 l 1,11,-1
 37 177 l 1,12,-1
 47 223 l 1,0,-1
EndSplineSet
EndChar
StartChar: OE
Encoding: 338 338 195
Width: 686
Flags: W
Fore
722 409 m 1,0,-1
 523 409 l 1,1,-1
 496 281 l 1,2,-1
 674 281 l 1,3,-1
 661 213 l 1,4,-1
 482 213 l 1,5,-1
 451 68 l 1,6,-1
 649 68 l 1,7,-1
 635 1 l 1,8,-1
 418 1 l 2,9,10
 399 1 399 1 388 12.5 c 128,-1,11
 377 24 377 24 379 43 c 1,12,13
 350 19 350 19 315 5 c 128,-1,14
 280 -9 280 -9 242 -9 c 0,15,16
 191 -9 191 -9 158.5 11.5 c 128,-1,17
 126 32 126 32 109.5 66.5 c 128,-1,18
 93 101 93 101 91.5 146 c 128,-1,19
 90 191 90 191 100 239 c 0,20,21
 110 284 110 284 130 328 c 128,-1,22
 150 372 150 372 180.5 407 c 128,-1,23
 211 442 211 442 252.5 464 c 128,-1,24
 294 486 294 486 347 486 c 0,25,26
 387 486 387 486 415.5 472 c 128,-1,27
 444 458 444 458 461 435 c 1,28,29
 469 455 469 455 485.5 466 c 128,-1,30
 502 477 502 477 521 477 c 2,31,-1
 737 477 l 1,32,-1
 722 409 l 1,0,-1
256 57 m 0,33,34
 288 57 288 57 314 72 c 128,-1,35
 340 87 340 87 359.5 110.5 c 128,-1,36
 379 134 379 134 393 163.5 c 128,-1,37
 407 193 407 193 415 222 c 2,38,-1
 422 257 l 2,39,40
 426 284 426 284 425 313 c 128,-1,41
 424 342 424 342 414.5 366 c 128,-1,42
 405 390 405 390 385.5 405 c 128,-1,43
 366 420 366 420 333 420 c 0,44,45
 298 420 298 420 270.5 404 c 128,-1,46
 243 388 243 388 222.5 362 c 128,-1,47
 202 336 202 336 188 304 c 128,-1,48
 174 272 174 272 167 239 c 0,49,50
 161 210 161 210 160.5 178 c 128,-1,51
 160 146 160 146 169.5 119 c 128,-1,52
 179 92 179 92 199.5 74.5 c 128,-1,53
 220 57 220 57 256 57 c 0,33,34
EndSplineSet
EndChar
StartChar: oe
Encoding: 339 339 196
Width: 655
Flags: W
Fore
534 354 m 0,0,1
 576 354 576 354 604 339 c 128,-1,2
 632 324 632 324 646.5 300 c 128,-1,3
 661 276 661 276 664 245.5 c 128,-1,4
 667 215 667 215 660 185 c 0,5,6
 655 165 655 165 643 156.5 c 128,-1,7
 631 148 631 148 610 148 c 2,8,-1
 388 148 l 1,9,10
 381 113 381 113 393 91 c 128,-1,11
 405 69 405 69 429.5 60 c 128,-1,12
 454 51 454 51 487 56 c 128,-1,13
 520 61 520 61 554 81 c 1,14,-1
 582 29 l 1,15,16
 558 9 558 9 518.5 -1.5 c 128,-1,17
 479 -12 479 -12 439.5 -9.5 c 128,-1,18
 400 -7 400 -7 368 10.5 c 128,-1,19
 336 28 336 28 326 64 c 1,20,21
 299 32 299 32 263 12.5 c 128,-1,22
 227 -7 227 -7 186 -7 c 0,23,24
 148 -7 148 -7 122 9 c 128,-1,25
 96 25 96 25 81.5 51 c 128,-1,26
 67 77 67 77 63.5 109 c 128,-1,27
 60 141 60 141 67 173 c 0,28,29
 73 200 73 200 88 231.5 c 128,-1,30
 103 263 103 263 127.5 289.5 c 128,-1,31
 152 316 152 316 185.5 334 c 128,-1,32
 219 352 219 352 262 352 c 0,33,34
 310 352 310 352 336.5 330.5 c 128,-1,35
 363 309 363 309 375 278 c 1,36,37
 404 313 404 313 444.5 333.5 c 128,-1,38
 485 354 485 354 534 354 c 0,0,1
264 78 m 0,39,40
 283 92 283 92 297 113 c 128,-1,41
 311 134 311 134 322 167 c 0,42,43
 326 186 326 186 325.5 207.5 c 128,-1,44
 325 229 325 229 317.5 247 c 128,-1,45
 310 265 310 265 293.5 276.5 c 128,-1,46
 277 288 277 288 249 288 c 256,47,48
 221 288 221 288 199.5 276.5 c 128,-1,49
 178 265 178 265 162.5 247.5 c 128,-1,50
 147 230 147 230 137.5 210 c 128,-1,51
 128 190 128 190 124 173 c 0,52,53
 119 152 119 152 121.5 131.5 c 128,-1,54
 124 111 124 111 133 94.5 c 128,-1,55
 142 78 142 78 158.5 68 c 128,-1,56
 175 58 175 58 200 58 c 0,57,58
 235 58 235 58 264 78 c 0,39,40
520 293 m 0,59,60
 494 293 494 293 474 284.5 c 128,-1,61
 454 276 454 276 439 263 c 128,-1,62
 424 250 424 250 414 235.5 c 128,-1,63
 404 221 404 221 400 209 c 1,64,-1
 599 209 l 1,65,66
 603 243 603 243 582.5 268 c 128,-1,67
 562 293 562 293 520 293 c 0,59,60
EndSplineSet
EndChar
StartChar: florin
Encoding: 402 402 202
Width: 357
Flags: W
Fore
411 416 m 1,0,1
 403 420 403 420 392.5 424.5 c 128,-1,2
 382 429 382 429 370.5 430 c 128,-1,3
 359 431 359 431 347 428 c 128,-1,4
 335 425 335 425 324 416 c 0,5,6
 300 396 300 396 287.5 358 c 128,-1,7
 275 320 275 320 263 285 c 1,8,-1
 339 285 l 1,9,-1
 323 242 l 1,10,-1
 249 242 l 1,11,12
 227 178 l 128,-1,13
 205 114 l 0,14,15
 195 86 195 86 186 61.5 c 128,-1,16
 177 37 177 37 165 15 c 128,-1,17
 153 -7 153 -7 135.5 -25 c 128,-1,18
 118 -43 118 -43 93 -58 c 0,19,20
 81 -65 81 -65 66 -69 c 128,-1,21
 51 -73 51 -73 36 -74.5 c 128,-1,22
 21 -76 21 -76 6.5 -75.5 c 128,-1,23
 -8 -75 -8 -75 -18 -74 c 1,24,25
 -14 -69 -14 -69 -9 -59.5 c 128,-1,26
 -4 -50 -4 -50 1 -42 c 0,27,28
 6 -32 6 -32 12 -21 c 1,29,30
 43 -26 43 -26 64 -15.5 c 128,-1,31
 85 -5 85 -5 99.5 14.5 c 128,-1,32
 114 34 114 34 123 59 c 128,-1,33
 132 84 132 84 141 108 c 0,34,35
 154 142 154 142 164.5 175 c 128,-1,36
 175 208 175 208 188 242 c 1,37,-1
 113 242 l 1,38,39
 118 253 118 253 122 263 c 0,40,41
 125 271 125 271 128 277.5 c 128,-1,42
 131 284 131 284 131 285 c 1,43,-1
 202 285 l 1,44,45
 214 323 214 323 228.5 364.5 c 128,-1,46
 243 406 243 406 272 439 c 0,47,48
 292 462 292 462 315.5 472.5 c 128,-1,49
 339 483 339 483 363 484 c 128,-1,50
 387 485 387 485 410 478 c 128,-1,51
 433 471 433 471 451 459 c 1,52,-1
 411 416 l 1,0,1
EndSplineSet
EndChar
StartChar: circumflex
Encoding: 710 710 203
Width: 358
Flags: W
Fore
289 527 m 1,0,1
 269 510 269 510 251 494.5 c 128,-1,2
 233 479 233 479 215 463 c 1,3,-1
 145 463 l 1,4,5
 158 475 158 475 177.5 492 c 128,-1,6
 197 509 197 509 215 524.5 c 128,-1,7
 233 540 233 540 245 551 c 128,-1,8
 256 561 256 561 257 562 c 1,9,-1
 335 562 l 1,10,11
 352 538 352 538 369 513 c 128,-1,12
 386 488 386 488 404 463 c 1,13,-1
 335 463 l 1,14,-1
 289 527 l 1,0,1
EndSplineSet
EndChar
StartChar: caron
Encoding: 711 711 204
Width: 350
Flags: W
Fore
365 603 m 1,0,-1
 434 603 l 1,1,2
 405 578 405 578 377.5 553 c 128,-1,3
 350 528 350 528 323 504 c 1,4,-1
 245 504 l 1,5,6
 237.5 515 l 130,-1,7
 230 526 230 526 218.5 541.5 c 128,-1,8
 207 557 207 557 195 574 c 128,-1,9
 183 591 183 591 175 603 c 1,10,-1
 245 603 l 1,11,12
 256 587 256 587 267 572 c 128,-1,13
 278 557 278 557 291 540 c 1,14,-1
 365 603 l 1,0,-1
EndSplineSet
EndChar
StartChar: breve
Encoding: 728 728 205
Width: 300
Flags: W
Fore
239 412 m 0,0,1
 184 412 184 412 158 442.5 c 128,-1,2
 132 473 132 473 144 528 c 1,3,-1
 202 528 l 1,4,5
 195 494 195 494 210 477.5 c 128,-1,6
 225 461 225 461 247.5 461 c 128,-1,7
 270 461 270 461 292.5 478 c 128,-1,8
 315 495 315 495 322 528 c 1,9,-1
 381 528 l 1,10,11
 370 476 370 476 331.5 444 c 128,-1,12
 293 412 293 412 239 412 c 0,0,1
EndSplineSet
EndChar
StartChar: dotaccent
Encoding: 729 729 206
Width: 158
Flags: W
Fore
227 461 m 0,0,1
 223 440 223 440 205.5 426 c 128,-1,2
 188 412 188 412 167 412 c 256,3,4
 146 412 146 412 134.5 426 c 128,-1,5
 123 440 123 440 127 461 c 0,6,7
 132 482 132 482 149.5 497 c 128,-1,8
 167 512 167 512 188 512 c 256,9,10
 209 512 209 512 220.5 497 c 128,-1,11
 232 482 232 482 227 461 c 0,0,1
EndSplineSet
EndChar
StartChar: ring
Encoding: 730 730 207
Width: 278
Flags: W
Fore
169 450 m 256,0,1
 175 479 175 479 198.5 498.5 c 128,-1,2
 222 518 222 518 251 518 c 256,3,4
 280 518 280 518 295 498.5 c 128,-1,5
 310 479 310 479 304 450 c 256,6,7
 298 421 298 421 274.5 402 c 128,-1,8
 251 383 251 383 222 383 c 256,9,10
 193 383 193 383 178 402 c 128,-1,11
 163 421 163 421 169 450 c 256,0,1
207 450 m 0,12,13
 205 438 205 438 211.5 429.5 c 128,-1,14
 218 421 218 421 230 421 c 0,15,16
 243 421 243 421 253.5 429.5 c 128,-1,17
 264 438 264 438 266 450 c 0,18,19
 269 463 269 463 262.5 471.5 c 128,-1,20
 256 480 256 480 243 480 c 0,21,22
 231 480 231 480 220.5 471.5 c 128,-1,23
 210 463 210 463 207 450 c 0,12,13
EndSplineSet
EndChar
StartChar: tilde
Encoding: 732 732 209
Width: 301
Flags: W
Fore
104 389 m 1,0,1
 110 416 110 416 122.5 437.5 c 128,-1,2
 135 459 135 459 153 470.5 c 128,-1,3
 171 482 171 482 193 482.5 c 128,-1,4
 215 483 215 483 239 468 c 0,5,6
 263 455 263 455 278.5 451.5 c 128,-1,7
 294 448 294 448 304 451 c 128,-1,8
 314 454 314 454 319 462 c 128,-1,9
 324 470 324 470 326 481 c 1,10,-1
 380 481 l 1,11,12
 377 462 377 462 366.5 442 c 128,-1,13
 356 422 356 422 339.5 408 c 128,-1,14
 323 394 323 394 300.5 390 c 128,-1,15
 278 386 278 386 250 399 c 0,16,17
 221 417 221 417 204 420 c 128,-1,18
 187 423 187 423 178 418 c 128,-1,19
 169 413 169 413 165 404 c 128,-1,20
 161 395 161 395 159 389 c 1,21,-1
 104 389 l 1,0,1
EndSplineSet
EndChar
StartChar: uni0E01
Encoding: 3585 3585 212
Width: 464
Flags: W
Fore
410 297 m 1,0,1
 409 298 409 298 402.5 307 c 128,-1,2
 396 316 396 316 383.5 326 c 128,-1,3
 371 336 371 336 351.5 344.5 c 128,-1,4
 332 353 332 353 305 353 c 0,5,6
 272 353 272 353 248.5 345.5 c 128,-1,7
 225 338 225 338 209 327 c 128,-1,8
 193 316 193 316 183 304.5 c 128,-1,9
 173 293 173 293 167 285 c 1,10,-1
 191 264 l 1,11,12
 202 275 202 275 214 282.5 c 128,-1,13
 226 290 226 290 244 296 c 1,14,15
 248 289 l 130,-1,16
 252 282 252 282 256 274 c 128,-1,17
 260 266 260 266 263 259.5 c 128,-1,18
 266 254 266 254 266 253 c 1,19,20
 239 243 239 243 222 223.5 c 128,-1,21
 205 204 205 204 199 178 c 2,22,-1
 162 0 l 1,23,-1
 93 0 l 1,24,-1
 131 181 l 2,25,26
 135 199 135 199 139 208 c 128,-1,27
 143 217 143 217 148 222 c 1,28,-1
 88 267 l 1,29,30
 91 273 91 273 105.5 295.5 c 128,-1,31
 120 318 120 318 147 342 c 128,-1,32
 174 366 174 366 215.5 385.5 c 128,-1,33
 257 405 257 405 314 406 c 0,34,35
 345 406 345 406 368 400 c 128,-1,36
 391 394 391 394 408 384.5 c 128,-1,37
 425 375 425 375 435.5 364 c 128,-1,38
 446 353 446 353 451 343 c 1,39,40
 456 348 456 348 466 346 c 128,-1,41
 476 344 476 344 486 330 c 0,42,43
 497 311 497 311 491.5 302.5 c 128,-1,44
 486 294 486 294 472 280 c 0,45,46
 465 273 465 273 461.5 266 c 128,-1,47
 458 259 458 259 456 245 c 2,48,-1
 404 0 l 1,49,-1
 335 0 l 1,50,-1
 389 255 l 2,51,52
 391 266 391 266 395 277.5 c 128,-1,53
 399 289 399 289 410 297 c 1,0,1
EndSplineSet
EndChar
StartChar: uni0E02
Encoding: 3586 3586 213
Width: 437
Flags: W
Fore
169 2 m 1,0,1
 165 0 165 0 161 -1.5 c 128,-1,2
 157 -3 157 -3 153 -5 c 0,3,4
 146 -8 146 -8 140 -4.5 c 128,-1,5
 134 -1 134 -1 129 5 c 128,-1,6
 124 11 124 11 121 18 c 128,-1,7
 118 25 118 25 117 30 c 0,8,9
 115 37 115 37 119.5 43 c 128,-1,10
 124 49 124 49 131 55 c 128,-1,11
 138 61 138 61 144.5 68 c 128,-1,12
 151 75 151 75 153 84 c 1,13,14
 153 83 153 83 155 91 c 0,15,16
 157 98 157 98 160 113.5 c 128,-1,17
 163 129 163 129 170 161 c 0,18,19
 173 173 173 173 180 183 c 128,-1,20
 187 193 187 193 196.5 201.5 c 128,-1,21
 206 210 206 210 217 217 c 128,-1,22
 228 224 228 224 237 231 c 0,23,24
 257 245 257 245 269 267.5 c 128,-1,25
 281 290 281 290 282 310.5 c 128,-1,26
 283 331 283 331 270.5 344 c 128,-1,27
 258 357 258 357 230 353 c 1,28,29
 240 331 240 331 235 308 c 0,30,31
 228 276 228 276 201.5 254 c 128,-1,32
 175 232 175 232 143 232 c 256,33,34
 111 232 111 232 93.5 254 c 128,-1,35
 76 276 76 276 83 308 c 0,36,37
 87 325 87 325 98 341.5 c 128,-1,38
 109 358 109 358 126 372 c 128,-1,39
 143 386 143 386 165 395.5 c 128,-1,40
 187 405 187 405 211 407 c 0,41,42
 283 415 283 415 318 386.5 c 128,-1,43
 353 358 353 358 340 300 c 0,44,45
 332 265 332 265 317 244 c 128,-1,46
 302 223 302 223 285.5 209.5 c 128,-1,47
 269 196 269 196 256 185.5 c 128,-1,48
 243 175 243 175 240 160 c 2,49,-1
 222 76 l 1,50,51
 221 74 221 74 218.5 69 c 128,-1,52
 216 64 216 64 213 62 c 1,53,-1
 306 62 l 2,54,55
 316 62 316 62 320.5 67.5 c 128,-1,56
 325 73 325 73 327 81 c 2,57,-1
 395 400 l 1,58,-1
 465 400 l 1,59,-1
 391 55 l 2,60,61
 386 29 386 29 364.5 15.5 c 128,-1,62
 343 2 343 2 318 2 c 2,63,-1
 169 2 l 1,0,1
190 308 m 256,64,65
 193 321 193 321 186 330 c 128,-1,66
 179 339 179 339 166 339 c 256,67,68
 153 339 153 339 142 330 c 128,-1,69
 131 321 131 321 128 308 c 256,70,71
 125 295 125 295 132 286 c 128,-1,72
 139 277 139 277 152 277 c 256,73,74
 165 277 165 277 176 286 c 128,-1,75
 187 295 187 295 190 308 c 256,64,65
EndSplineSet
EndChar
StartChar: uni0E03
Encoding: 3587 3587 214
Width: 450
Flags: W
Fore
171 262 m 256,0,1
 173 273 173 273 167 281 c 128,-1,2
 161 289 161 289 150 289 c 256,3,4
 139 289 139 289 129 281 c 128,-1,5
 119 273 119 273 117 262 c 256,6,7
 115 251 115 251 121 243 c 128,-1,8
 127 235 127 235 138 235 c 256,9,10
 149 235 149 235 159 243 c 128,-1,11
 169 251 169 251 171 262 c 256,0,1
179 84 m 1,12,13
 179 83 179 83 181.5 95.5 c 128,-1,14
 184 108 184 108 187 123 c 0,15,16
 191 141 191 141 196 163 c 0,17,18
 200 184 200 184 207 197.5 c 128,-1,19
 214 211 214 211 222.5 221 c 128,-1,20
 231 231 231 231 241 238.5 c 128,-1,21
 251 246 251 246 262 254 c 0,22,23
 267 258 267 258 276 264.5 c 128,-1,24
 285 271 285 271 293.5 278.5 c 128,-1,25
 302 286 302 286 309 292.5 c 128,-1,26
 316 299 316 299 317 304 c 1,27,28
 320 312 320 312 320.5 322 c 128,-1,29
 321 332 321 332 319.5 340 c 128,-1,30
 318 348 318 348 315 353.5 c 128,-1,31
 312 359 312 359 308 359 c 0,32,33
 301 358 301 358 293.5 354 c 128,-1,34
 286 350 286 350 279 345 c 1,35,36
 280 340 280 340 282 334.5 c 128,-1,37
 284 329 284 329 283.5 324 c 128,-1,38
 283 319 283 319 279 314.5 c 128,-1,39
 275 310 275 310 265 306 c 0,40,41
 261 304 261 304 256.5 302.5 c 128,-1,42
 252 301 252 301 247 301.5 c 128,-1,43
 242 302 242 302 238 307 c 128,-1,44
 234 312 234 312 232 323 c 0,45,46
 229 337 229 337 215 347 c 128,-1,47
 201 357 201 357 185 352 c 0,48,49
 171 347 171 347 162 339 c 128,-1,50
 153 331 153 331 148 323 c 1,51,52
 166 327 166 327 179 323 c 128,-1,53
 192 319 192 319 200 310 c 128,-1,54
 208 301 208 301 210.5 288 c 128,-1,55
 213 275 213 275 210 262 c 0,56,57
 205 235 205 235 181.5 217.5 c 128,-1,58
 158 200 158 200 131 200 c 0,59,60
 111 200 111 200 97.5 209.5 c 128,-1,61
 84 219 84 219 78 235 c 0,62,63
 72 255 72 255 75 279 c 128,-1,64
 78 303 78 303 89 325.5 c 128,-1,65
 100 348 100 348 118 367 c 128,-1,66
 136 386 136 386 161 397 c 0,67,68
 188 409 188 409 216.5 405.5 c 128,-1,69
 245 402 245 402 262 379 c 1,70,71
 291 399 291 399 302 403 c 128,-1,72
 313 407 313 407 323 407 c 0,73,74
 341 408 341 408 353 397 c 0,75,76
 364 388 364 388 370.5 366 c 128,-1,77
 377 344 377 344 371 300 c 1,78,79
 367 289 367 289 362.5 282.5 c 128,-1,80
 358 276 358 276 350.5 270 c 128,-1,81
 343 264 343 264 332.5 256.5 c 128,-1,82
 322 249 322 249 306 236 c 0,83,84
 294 226 294 226 284 217 c 128,-1,85
 274 208 274 208 271 193 c 2,86,-1
 246 78 l 2,87,88
 245 73 245 73 242 68 c 128,-1,89
 239 63 239 63 235 61 c 1,90,-1
 318 61 l 2,91,92
 328 61 328 61 333 66.5 c 128,-1,93
 338 72 338 72 340 80 c 2,94,-1
 408 400 l 1,95,-1
 478 400 l 1,96,-1
 404 54 l 2,97,98
 399 28 399 28 377.5 15 c 128,-1,99
 356 2 356 2 331 2 c 2,100,-1
 195 2 l 1,101,102
 191 0 191 0 187.5 -1.5 c 128,-1,103
 184 -3 184 -3 180 -5 c 0,104,105
 173 -8 173 -8 167 -4.5 c 128,-1,106
 161 -1 161 -1 156 5 c 128,-1,107
 151 11 151 11 148 18 c 128,-1,108
 145 25 145 25 144 30 c 0,109,110
 142 37 142 37 146.5 43 c 128,-1,111
 151 49 151 49 157.5 55 c 128,-1,112
 164 61 164 61 170.5 68 c 128,-1,113
 177 75 177 75 179 84 c 1,12,13
EndSplineSet
EndChar
StartChar: uni0E04
Encoding: 3588 3588 215
Width: 461
Flags: W
Fore
313 224 m 256,0,1
 316 237 316 237 309 246 c 128,-1,2
 302 255 302 255 288 255 c 0,3,4
 275 255 275 255 264 246 c 128,-1,5
 253 237 253 237 250 224 c 256,6,7
 247 211 247 211 254.5 202 c 128,-1,8
 262 193 262 193 275 193 c 0,9,10
 289 193 289 193 299.5 202 c 128,-1,11
 310 211 310 211 313 224 c 256,0,1
416 297 m 1,12,13
 415 299 415 299 410.5 308 c 128,-1,14
 406 317 406 317 395 327 c 128,-1,15
 384 337 384 337 364 345 c 128,-1,16
 344 353 344 353 312 353 c 0,17,18
 277 353 277 353 252.5 343.5 c 128,-1,19
 228 334 228 334 211 318.5 c 128,-1,20
 194 303 194 303 184.5 284.5 c 128,-1,21
 175 266 175 266 171 248 c 0,22,23
 167 228 167 228 165.5 214 c 128,-1,24
 164 200 164 200 163.5 189 c 128,-1,25
 163 178 163 178 163 168 c 128,-1,26
 163 158 163 158 163 147 c 1,27,28
 179 179 179 179 196 210.5 c 128,-1,29
 213 242 213 242 221 254 c 0,30,31
 235 273 235 273 255 285 c 128,-1,32
 275 297 275 297 297 297 c 0,33,34
 328 297 328 297 344.5 275.5 c 128,-1,35
 361 254 361 254 354 224 c 0,36,37
 348 194 348 194 322.5 172.5 c 128,-1,38
 297 151 297 151 266 151 c 0,39,40
 243 151 243 151 227 164 c 1,41,42
 207 127 207 127 189 94 c 0,43,44
 173 66 173 66 155 40 c 128,-1,45
 137 14 137 14 124 4 c 0,46,47
 101 -14 101 -14 83 10 c 0,48,49
 75 19 75 19 73.5 25.5 c 128,-1,50
 72 32 72 32 79 41 c 0,51,52
 91 56 91 56 99 68 c 128,-1,53
 107 80 107 80 106 106 c 0,54,55
 104 133 104 133 103.5 169.5 c 128,-1,56
 103 206 103 206 111 245 c 0,57,58
 126 318 126 318 181.5 362.5 c 128,-1,59
 237 407 237 407 321 407 c 0,60,61
 382 407 382 407 414 388.5 c 128,-1,62
 446 370 446 370 462 345 c 1,63,64
 467 347 467 347 475.5 344 c 128,-1,65
 484 341 484 341 492 330 c 0,66,67
 503 311 503 311 497.5 302.5 c 128,-1,68
 492 294 492 294 478 280 c 0,69,70
 471 273 471 273 467.5 266 c 128,-1,71
 464 259 464 259 462 245 c 2,72,-1
 410 0 l 1,73,-1
 341 0 l 1,74,-1
 395 255 l 2,75,76
 397 266 397 266 401 277.5 c 128,-1,77
 405 289 405 289 416 297 c 1,12,13
EndSplineSet
EndChar
StartChar: uni0E05
Encoding: 3589 3589 216
Width: 463
Flags: W
Fore
419 300 m 1,0,1
 415 317 415 317 404.5 328.5 c 128,-1,2
 394 340 394 340 371 346 c 1,3,4
 368 345 368 345 360 338 c 128,-1,5
 352 331 352 331 342.5 322.5 c 128,-1,6
 333 314 333 314 324.5 307.5 c 128,-1,7
 316 301 316 301 314 300 c 0,8,9
 303 295 303 295 295.5 299 c 128,-1,10
 288 303 288 303 283 312 c 0,11,12
 278 320 278 320 265.5 331 c 128,-1,13
 253 342 253 342 244 347 c 1,14,15
 209 336 209 336 194 315.5 c 128,-1,16
 179 295 179 295 171 260 c 0,17,18
 163 223 163 223 161.5 195 c 128,-1,19
 160 167 160 167 161 141 c 1,20,21
 176 169 176 169 192.5 196 c 128,-1,22
 209 223 209 223 218 236 c 0,23,24
 231 255 231 255 251 267 c 128,-1,25
 271 279 271 279 294 279 c 0,26,27
 324 279 324 279 340.5 257.5 c 128,-1,28
 357 236 357 236 350 206 c 0,29,30
 344 176 344 176 318.5 154.5 c 128,-1,31
 293 133 293 133 263 133 c 0,32,33
 251 133 251 133 239 137.5 c 128,-1,34
 227 142 227 142 222 148 c 1,35,36
 202 112 202 112 184 82 c 0,37,38
 168 56 168 56 151 32.5 c 128,-1,39
 134 9 134 9 123 2 c 0,40,41
 115 -3 115 -3 106 -4.5 c 128,-1,42
 97 -6 97 -6 87 4 c 0,43,44
 78 14 78 14 75 21 c 128,-1,45
 72 28 72 28 73.5 33 c 128,-1,46
 75 38 75 38 79 41.5 c 128,-1,47
 83 45 83 45 87 50 c 2,48,49
 92 54 92 54 96 61 c 0,50,51
 99 66 99 66 101.5 75 c 128,-1,52
 104 84 104 84 103 96 c 0,53,54
 101 124 101 124 100.5 168 c 128,-1,55
 100 212 100 212 111 260 c 0,56,57
 135 372 135 372 246 406 c 0,58,59
 256 410 256 410 265 405 c 1,60,61
 279 400 279 400 293.5 388.5 c 128,-1,62
 308 377 308 377 319 365 c 1,63,64
 345 386 345 386 361.5 398 c 128,-1,65
 378 410 378 410 387 408 c 0,66,67
 424 401 424 401 444.5 381.5 c 128,-1,68
 465 362 465 362 471 347 c 1,69,70
 484 345 484 345 495 330 c 0,71,72
 506 311 506 311 500.5 302.5 c 128,-1,73
 495 294 495 294 481 280 c 0,74,75
 474 273 474 273 470.5 266 c 128,-1,76
 467 259 467 259 465 245 c 2,77,-1
 413 0 l 1,78,-1
 344 0 l 1,79,-1
 398 258 l 2,80,81
 400 269 400 269 404.5 280.5 c 128,-1,82
 409 292 409 292 419 300 c 1,0,1
308 206 m 0,83,84
 311 219 311 219 304 228 c 128,-1,85
 297 237 297 237 284 237 c 256,86,87
 271 237 271 237 260 228 c 128,-1,88
 249 219 249 219 246 206 c 0,89,90
 244 193 244 193 251 184 c 128,-1,91
 258 175 258 175 271 175 c 256,92,93
 284 175 284 175 295 184 c 128,-1,94
 306 193 306 193 308 206 c 0,83,84
EndSplineSet
EndChar
StartChar: uni0E06
Encoding: 3590 3590 217
Width: 505
Flags: W
Fore
455 0 m 1,0,-1
 388 0 l 1,1,-1
 393 26 l 1,2,3
 385 53 385 53 372.5 72 c 128,-1,4
 360 91 360 91 345 104 c 128,-1,5
 330 117 330 117 314 124 c 128,-1,6
 298 131 298 131 283 134 c 1,7,-1
 269 70 l 2,8,9
 264 44 264 44 251.5 28.5 c 128,-1,10
 239 13 239 13 223.5 4.5 c 128,-1,11
 208 -4 208 -4 192 -6 c 128,-1,12
 176 -8 176 -8 164 -6 c 0,13,14
 150 -3 150 -3 139 5 c 128,-1,15
 128 13 128 13 121 26 c 128,-1,16
 114 39 114 39 113 57 c 128,-1,17
 112 75 112 75 119 97 c 0,18,19
 133 140 133 140 164.5 163 c 128,-1,20
 196 186 196 186 231 194 c 1,21,22
 231 197 231 197 232 201 c 0,23,24
 233 204 233 204 233.5 208.5 c 128,-1,25
 234 213 234 213 236 218 c 2,26,27
 240 236 240 236 246 247.5 c 128,-1,28
 252 259 252 259 259.5 267 c 128,-1,29
 267 275 267 275 276.5 281.5 c 128,-1,30
 286 288 286 288 297 296 c 256,31,32
 308 304 308 304 314 307.5 c 128,-1,33
 320 311 320 311 323 320 c 0,34,35
 325 328 325 328 323.5 336 c 128,-1,36
 322 344 322 344 318 349.5 c 128,-1,37
 314 355 314 355 309 357.5 c 128,-1,38
 304 360 304 360 300 358 c 0,39,40
 293 354 293 354 291 353.5 c 128,-1,41
 289 353 289 353 281 348 c 1,42,43
 287 334 287 334 280 325 c 128,-1,44
 273 316 273 316 262 311 c 1,45,46
 255 309 255 309 247.5 310 c 128,-1,47
 240 311 240 311 237 322 c 0,48,49
 234 336 234 336 220 346 c 128,-1,50
 206 356 206 356 189 351 c 0,51,52
 175 346 175 346 168 338.5 c 128,-1,53
 161 331 161 331 156 323 c 1,54,55
 174 327 174 327 187 323 c 128,-1,56
 200 319 200 319 207.5 309.5 c 128,-1,57
 215 300 215 300 218 287 c 128,-1,58
 221 274 221 274 218 261 c 0,59,60
 213 235 213 235 194.5 219 c 128,-1,61
 176 203 176 203 154.5 198.5 c 128,-1,62
 133 194 133 194 114 202 c 128,-1,63
 95 210 95 210 88 232 c 0,64,65
 81 251 81 251 83.5 275 c 128,-1,66
 86 299 86 299 96.5 323 c 128,-1,67
 107 347 107 347 125 366.5 c 128,-1,68
 143 386 143 386 166 396 c 0,69,70
 193 408 193 408 221.5 404.5 c 128,-1,71
 250 401 250 401 267 378 c 1,72,73
 285 390 285 390 301 397 c 128,-1,74
 317 404 317 404 328 407 c 0,75,76
 342 411 342 411 352.5 403 c 128,-1,77
 363 395 363 395 370 383.5 c 128,-1,78
 377 372 377 372 380.5 361.5 c 128,-1,79
 384 351 384 351 384 350 c 0,80,81
 388 336 388 336 384.5 325.5 c 128,-1,82
 381 315 381 315 373.5 306 c 128,-1,83
 366 297 366 297 355.5 289 c 128,-1,84
 345 281 345 281 335 273 c 0,85,86
 327 267 327 267 318 260 c 128,-1,87
 309 253 309 253 304 235 c 2,88,-1
 296 192 l 1,89,90
 311 190 311 190 328.5 183.5 c 128,-1,91
 346 177 346 177 362.5 166.5 c 128,-1,92
 379 156 379 156 392.5 143 c 128,-1,93
 406 130 406 130 412 114 c 1,94,-1
 473 400 l 1,95,-1
 540 400 l 1,96,-1
 455 0 l 1,0,-1
179 261 m 256,97,98
 181 272 181 272 175 280 c 128,-1,99
 169 288 169 288 158 288 c 256,100,101
 147 288 147 288 137 280 c 128,-1,102
 127 272 127 272 125 261 c 256,103,104
 123 250 123 250 129 242.5 c 128,-1,105
 135 235 135 235 146 235 c 256,106,107
 157 235 157 235 167 242.5 c 128,-1,108
 177 250 177 250 179 261 c 256,97,98
217 134 m 1,109,110
 202 132 202 132 185.5 120 c 128,-1,111
 169 108 169 108 164 84 c 0,112,113
 160 64 160 64 165 56 c 128,-1,114
 170 48 170 48 177.5 47 c 128,-1,115
 185 46 185 46 192.5 50.5 c 128,-1,116
 200 55 200 55 201 61 c 2,117,-1
 217 134 l 1,109,110
EndSplineSet
EndChar
StartChar: uni0E07
Encoding: 3591 3591 218
Width: 341
Flags: W
Fore
302 57 m 2,0,1
 299 45 299 45 291.5 35.5 c 128,-1,2
 284 26 284 26 273.5 18 c 128,-1,3
 263 10 263 10 251.5 4 c 128,-1,4
 240 -2 240 -2 229 -6 c 0,5,6
 214 -13 214 -13 205 -1 c 128,-1,7
 196 11 196 11 192 23 c 0,8,9
 190 28 190 28 192.5 32 c 128,-1,10
 195 36 195 36 192 41 c 0,11,12
 185 50 185 50 166.5 71.5 c 128,-1,13
 148 93 148 93 126.5 118 c 128,-1,14
 105 143 105 143 83.5 166.5 c 128,-1,15
 62 190 62 190 48 203 c 1,16,-1
 97 256 l 1,17,18
 110 244 110 244 129 221.5 c 128,-1,19
 148 199 148 199 169 173 c 128,-1,20
 190 147 190 147 209.5 122 c 128,-1,21
 229 97 229 97 243 82 c 1,22,-1
 280 257 l 1,23,24
 275 255 275 255 269.5 254 c 128,-1,25
 264 253 264 253 261 253 c 0,26,27
 229 253 229 253 212 275 c 128,-1,28
 195 297 195 297 201 329 c 0,29,30
 208 361 208 361 235 382.5 c 128,-1,31
 262 404 262 404 294 405 c 0,32,33
 325 405 325 405 339 394 c 128,-1,34
 353 383 353 383 358 369 c 0,35,36
 363 353 363 353 360 332 c 2,37,-1
 302 57 l 2,0,1
308 329 m 0,38,39
 311 343 311 343 304 351.5 c 128,-1,40
 297 360 297 360 284 360 c 256,41,42
 271 360 271 360 260 351.5 c 128,-1,43
 249 343 249 343 246 329 c 0,44,45
 244 316 244 316 251 307 c 128,-1,46
 258 298 258 298 271 298 c 256,47,48
 284 298 284 298 295 307 c 128,-1,49
 306 316 306 316 308 329 c 0,38,39
EndSplineSet
EndChar
StartChar: uni0E08
Encoding: 3592 3592 219
Width: 439
Flags: W
Fore
437 345 m 1,0,1
 441 350 441 350 450.5 347 c 128,-1,2
 460 344 460 344 470 330 c 0,3,4
 481 311 481 311 475 302.5 c 128,-1,5
 469 294 469 294 455 280 c 0,6,7
 450 275 450 275 446 270 c 128,-1,8
 442 265 442 265 439 258 c 2,9,-1
 359 41 l 2,10,11
 357 35 357 35 353.5 30 c 128,-1,12
 350 25 350 25 343.5 20 c 128,-1,13
 337 15 337 15 325 8.5 c 128,-1,14
 313 2 313 2 294 -8 c 0,15,16
 282 -14 282 -14 272 -4 c 128,-1,17
 262 6 262 6 254 24 c 0,18,19
 251 32 251 32 257 38 c 128,-1,20
 263 44 263 44 267 49 c 1,21,-1
 264 149 l 1,22,23
 254 142 254 142 245.5 139.5 c 128,-1,24
 237 137 237 137 225 137 c 0,25,26
 198 137 198 137 180.5 158 c 128,-1,27
 163 179 163 179 171 214 c 0,28,29
 177 241 177 241 201.5 264 c 128,-1,30
 226 287 226 287 261 287 c 0,31,32
 287 287 287 287 306 271.5 c 128,-1,33
 325 256 325 256 323 218 c 2,34,-1
 319 98 l 1,35,-1
 376 263 l 2,36,37
 381 277 381 277 386.5 285 c 128,-1,38
 392 293 392 293 396 296 c 1,39,40
 394 297 394 297 388 306 c 128,-1,41
 382 315 382 315 370 325.5 c 128,-1,42
 358 336 358 336 338 344.5 c 128,-1,43
 318 353 318 353 288 353 c 0,44,45
 219 353 219 353 179.5 315.5 c 128,-1,46
 140 278 140 278 126 209 c 1,47,-1
 66 209 l 1,48,49
 77 261 77 261 99.5 298.5 c 128,-1,50
 122 336 122 336 152.5 360 c 128,-1,51
 183 384 183 384 220.5 395.5 c 128,-1,52
 258 407 258 407 298 407 c 0,53,54
 356 407 356 407 388.5 388.5 c 128,-1,55
 421 370 421 370 437 345 c 1,0,1
278 212 m 0,56,57
 280 225 280 225 272.5 234.5 c 128,-1,58
 265 244 265 244 251 244 c 256,59,60
 237 244 237 244 226 234.5 c 128,-1,61
 215 225 215 225 213 212 c 0,62,63
 210 198 210 198 217 188.5 c 128,-1,64
 224 179 224 179 238 179 c 256,65,66
 252 179 252 179 263.5 188.5 c 128,-1,67
 275 198 275 198 278 212 c 0,56,57
EndSplineSet
EndChar
StartChar: uni0E09
Encoding: 3593 3593 220
Width: 470
Flags: W
Fore
455 346 m 1,0,1
 461 348 461 348 469.5 345 c 128,-1,2
 478 342 478 342 486 330 c 0,3,4
 497 311 497 311 491.5 302.5 c 128,-1,5
 486 294 486 294 472 280 c 0,6,7
 465 273 465 273 461.5 266 c 128,-1,8
 458 259 458 259 456 245 c 2,9,-1
 435 149 l 1,10,11
 452 141 452 141 458 120 c 128,-1,12
 464 99 464 99 459 79 c 0,13,14
 451 44 451 44 422.5 20 c 128,-1,15
 394 -4 394 -4 359 -4 c 0,16,17
 342 -4 342 -4 328 2.5 c 128,-1,18
 314 9 314 9 304.5 20 c 128,-1,19
 295 31 295 31 291.5 46 c 128,-1,20
 288 61 288 61 292 79 c 1,21,22
 293 81 293 81 295.5 88.5 c 128,-1,23
 298 96 298 96 303 102 c 1,24,25
 291 98 291 98 276 88.5 c 128,-1,26
 261 79 261 79 246 67 c 128,-1,27
 231 55 231 55 217.5 43 c 128,-1,28
 204 31 204 31 195 22 c 0,29,30
 190 17 190 17 180 7.5 c 128,-1,31
 170 -2 170 -2 162 -6 c 0,32,33
 148 -11 148 -11 137.5 0 c 128,-1,34
 127 11 127 11 125 21 c 0,35,36
 123 28 123 28 127.5 33.5 c 128,-1,37
 132 39 132 39 138 44.5 c 128,-1,38
 144 50 144 50 149.5 56 c 128,-1,39
 155 62 155 62 157 71 c 2,40,-1
 167 119 l 1,41,42
 137 119 137 119 120 140.5 c 128,-1,43
 103 162 103 162 109 192 c 0,44,45
 116 222 116 222 142 243.5 c 128,-1,46
 168 265 168 265 198 265 c 256,47,48
 228 265 228 265 245 243.5 c 128,-1,49
 262 222 262 222 255 192 c 0,50,51
 253 183 253 183 248 173.5 c 128,-1,52
 243 164 243 164 238 156 c 1,53,-1
 228 112 l 1,54,55
 262 138 262 138 299.5 153.5 c 128,-1,56
 337 169 337 169 373 167 c 1,57,-1
 393 260 l 2,58,59
 396 280 396 280 411 293 c 1,60,61
 409 297 409 297 403 306.5 c 128,-1,62
 397 316 397 316 383.5 326 c 128,-1,63
 370 336 370 336 348.5 343.5 c 128,-1,64
 327 351 327 351 294 351 c 0,65,66
 246 351 246 351 201 325 c 128,-1,67
 156 299 156 299 128 247 c 1,68,-1
 78 269 l 1,69,70
 117 333 117 333 174 371.5 c 128,-1,71
 231 410 231 410 308 410 c 0,72,73
 342 410 342 410 366.5 404 c 128,-1,74
 391 398 391 398 408 389 c 128,-1,75
 425 380 425 380 436 368.5 c 128,-1,76
 447 357 447 357 455 346 c 1,0,1
150 192 m 256,77,78
 147 178 147 178 154.5 169 c 128,-1,79
 162 160 162 160 176 160 c 256,80,81
 190 160 190 160 200.5 169 c 128,-1,82
 211 178 211 178 214 192 c 256,83,84
 217 206 217 206 210 215 c 128,-1,85
 203 224 203 224 189 224 c 256,86,87
 175 224 175 224 164 215 c 128,-1,88
 153 206 153 206 150 192 c 256,77,78
413 79 m 0,89,90
 417 94 417 94 409 105 c 128,-1,91
 401 116 401 116 385 116 c 256,92,93
 369 116 369 116 357 105 c 128,-1,94
 345 94 345 94 341 79 c 0,95,96
 338 64 338 64 345.5 53 c 128,-1,97
 353 42 353 42 369 42 c 256,98,99
 385 42 385 42 397.5 53 c 128,-1,100
 410 64 410 64 413 79 c 0,89,90
EndSplineSet
EndChar
StartChar: uni0E0A
Encoding: 3594 3594 221
Width: 437
Flags: W
Fore
169 2 m 1,0,1
 165 0 165 0 161.5 -1.5 c 128,-1,2
 158 -3 158 -3 154 -5 c 0,3,4
 147 -8 147 -8 140.5 -4.5 c 128,-1,5
 134 -1 134 -1 129.5 5 c 128,-1,6
 125 11 125 11 121.5 18 c 128,-1,7
 118 25 118 25 117 30 c 0,8,9
 115 37 115 37 119.5 43 c 128,-1,10
 124 49 124 49 131 55 c 128,-1,11
 138 61 138 61 144.5 68 c 128,-1,12
 151 75 151 75 153 84 c 2,13,-1
 170 161 l 2,14,15
 173 173 173 173 180 183 c 128,-1,16
 187 193 187 193 196.5 201.5 c 128,-1,17
 206 210 206 210 217 217 c 128,-1,18
 228 224 228 224 237 231 c 0,19,20
 257 245 257 245 269 267.5 c 128,-1,21
 281 290 281 290 282 310.5 c 128,-1,22
 283 331 283 331 270.5 344 c 128,-1,23
 258 357 258 357 230 353 c 1,24,25
 240 331 240 331 235 308 c 0,26,27
 228 276 228 276 201.5 254 c 128,-1,28
 175 232 175 232 143 232 c 256,29,30
 111 232 111 232 93.5 254 c 128,-1,31
 76 276 76 276 83 308 c 0,32,33
 87 325 87 325 98 341.5 c 128,-1,34
 109 358 109 358 126 372 c 128,-1,35
 143 386 143 386 165 395.5 c 128,-1,36
 187 405 187 405 211 407 c 0,37,38
 283 415 283 415 318 386.5 c 128,-1,39
 353 358 353 358 340 300 c 0,40,41
 332 265 332 265 317 244 c 128,-1,42
 302 223 302 223 285.5 209.5 c 128,-1,43
 269 196 269 196 256 185.5 c 128,-1,44
 243 175 243 175 240 160 c 2,45,-1
 222 76 l 2,46,47
 218 65 218 65 212 62 c 1,48,-1
 306 62 l 2,49,50
 316 62 316 62 320.5 67.5 c 128,-1,51
 325 73 325 73 327 81 c 2,52,-1
 366 265 l 2,53,54
 368 277 368 277 365.5 284.5 c 128,-1,55
 363 292 363 292 358 297 c 256,56,57
 353 302 353 302 344 305 c 1,58,59
 344 319 344 319 356 335.5 c 128,-1,60
 368 352 368 352 389.5 371 c 128,-1,61
 411 390 411 390 439.5 410.5 c 128,-1,62
 468 431 468 431 500 454 c 1,63,-1
 531 408 l 1,64,65
 502 389 502 389 473.5 369 c 128,-1,66
 445 349 445 349 419 320 c 1,67,68
 426 315 426 315 430 308 c 0,69,70
 434 302 434 302 436.5 292 c 128,-1,71
 439 282 439 282 436 268 c 2,72,-1
 391 55 l 2,73,74
 386 29 386 29 364.5 15.5 c 128,-1,75
 343 2 343 2 318 2 c 2,76,-1
 169 2 l 1,0,1
190 308 m 256,77,78
 193 321 193 321 186 330 c 128,-1,79
 179 339 179 339 166 339 c 256,80,81
 153 339 153 339 142 330 c 128,-1,82
 131 321 131 321 128 308 c 256,83,84
 125 295 125 295 132 286 c 128,-1,85
 139 277 139 277 152 277 c 256,86,87
 165 277 165 277 176 286 c 128,-1,88
 187 295 187 295 190 308 c 256,77,78
EndSplineSet
EndChar
StartChar: uni0E0B
Encoding: 3595 3595 222
Width: 459
Flags: W
Fore
171 262 m 256,0,1
 173 273 173 273 167 281 c 128,-1,2
 161 289 161 289 150 289 c 256,3,4
 139 289 139 289 129 281 c 128,-1,5
 119 273 119 273 117 262 c 256,6,7
 115 251 115 251 121 243 c 128,-1,8
 127 235 127 235 138 235 c 256,9,10
 149 235 149 235 159 243 c 128,-1,11
 169 251 169 251 171 262 c 256,0,1
196 163 m 2,12,13
 200 184 200 184 207 197.5 c 128,-1,14
 214 211 214 211 222.5 221 c 128,-1,15
 231 231 231 231 241 238.5 c 128,-1,16
 251 246 251 246 262 254 c 0,17,18
 267 258 267 258 276 264.5 c 128,-1,19
 285 271 285 271 293.5 278.5 c 128,-1,20
 302 286 302 286 309 292.5 c 128,-1,21
 316 299 316 299 317 304 c 1,22,23
 320 312 320 312 320.5 322 c 128,-1,24
 321 332 321 332 319.5 340 c 128,-1,25
 318 348 318 348 315 353.5 c 128,-1,26
 312 359 312 359 308 359 c 0,27,28
 301 358 301 358 293.5 354 c 128,-1,29
 286 350 286 350 279 345 c 1,30,31
 280 340 280 340 282 334.5 c 128,-1,32
 284 329 284 329 283.5 324 c 128,-1,33
 283 319 283 319 279 314.5 c 128,-1,34
 275 310 275 310 265 306 c 0,35,36
 261 304 261 304 256.5 302.5 c 128,-1,37
 252 301 252 301 247 301.5 c 128,-1,38
 242 302 242 302 238 307 c 128,-1,39
 234 312 234 312 232 323 c 0,40,41
 229 337 229 337 215 347 c 128,-1,42
 201 357 201 357 185 352 c 0,43,44
 171 347 171 347 162 339 c 128,-1,45
 153 331 153 331 148 323 c 1,46,47
 166 327 166 327 179 323 c 128,-1,48
 192 319 192 319 200 310 c 128,-1,49
 208 301 208 301 210.5 288 c 128,-1,50
 213 275 213 275 210 262 c 0,51,52
 205 235 205 235 181.5 217.5 c 128,-1,53
 158 200 158 200 131 200 c 0,54,55
 111 200 111 200 97.5 209.5 c 128,-1,56
 84 219 84 219 78 235 c 0,57,58
 72 255 72 255 75 279 c 128,-1,59
 78 303 78 303 89 325.5 c 128,-1,60
 100 348 100 348 118 367 c 128,-1,61
 136 386 136 386 161 397 c 0,62,63
 188 409 188 409 216.5 405.5 c 128,-1,64
 245 402 245 402 262 379 c 1,65,66
 291 399 291 399 302 403 c 128,-1,67
 313 407 313 407 323 407 c 0,68,69
 341 406 341 406 353 395 c 0,70,71
 364 386 364 386 369.5 366 c 128,-1,72
 375 346 375 346 366 310 c 0,73,74
 362 299 362 299 358 291 c 128,-1,75
 354 283 354 283 348 275 c 128,-1,76
 342 267 342 267 332 258 c 128,-1,77
 322 249 322 249 306 236 c 0,78,79
 294 226 294 226 284 217 c 128,-1,80
 274 208 274 208 271 193 c 2,81,-1
 246 78 l 2,82,83
 245 73 245 73 242 68 c 128,-1,84
 239 63 239 63 235 61 c 1,85,-1
 328 61 l 2,86,87
 338 61 338 61 343 66.5 c 128,-1,88
 348 72 348 72 350 80 c 2,89,-1
 389 265 l 2,90,91
 391 277 391 277 388.5 284.5 c 128,-1,92
 386 292 386 292 381 297 c 256,93,94
 376 302 376 302 367 305 c 1,95,96
 367 319 367 319 378.5 335.5 c 128,-1,97
 390 352 390 352 411 371 c 128,-1,98
 432 390 432 390 460.5 410.5 c 128,-1,99
 489 431 489 431 521 454 c 1,100,-1
 552 408 l 1,101,102
 523 389 523 389 495.5 369 c 128,-1,103
 468 349 468 349 442 320 c 1,104,105
 449 315 449 315 453 308 c 0,106,107
 457 302 457 302 459.5 292 c 128,-1,108
 462 282 462 282 459 268 c 2,109,-1
 414 54 l 2,110,111
 409 28 409 28 387.5 15 c 128,-1,112
 366 2 366 2 341 2 c 2,113,-1
 195 2 l 1,114,115
 191 0 191 0 187 -1.5 c 128,-1,116
 183 -3 183 -3 179 -5 c 0,117,118
 172 -8 172 -8 166 -4.5 c 128,-1,119
 160 -1 160 -1 155 5 c 128,-1,120
 150 11 150 11 147 18 c 128,-1,121
 144 25 144 25 143 30 c 0,122,123
 141 37 141 37 145.5 43 c 128,-1,124
 150 49 150 49 157 55 c 128,-1,125
 164 61 164 61 170.5 68 c 128,-1,126
 177 75 177 75 179 84 c 2,127,-1
 196 163 l 2,12,13
EndSplineSet
EndChar
StartChar: uni0E0C
Encoding: 3596 3596 223
Width: 649
Flags: W
Fore
369 129 m 1,0,1
 353 127 353 127 340.5 113 c 128,-1,2
 328 99 328 99 324 82 c 0,3,4
 320 62 320 62 323.5 53.5 c 128,-1,5
 327 45 327 45 333 43.5 c 128,-1,6
 339 42 339 42 345.5 46 c 128,-1,7
 352 50 352 50 353 56 c 2,8,-1
 369 129 l 1,0,1
216 75 m 0,9,10
 219 88 219 88 212 97 c 128,-1,11
 205 106 205 106 192 106 c 0,12,13
 178 106 178 106 167 97 c 128,-1,14
 156 88 156 88 153 75 c 0,15,16
 151 62 151 62 158 53 c 128,-1,17
 165 44 165 44 179 44 c 0,18,19
 192 44 192 44 203 53 c 128,-1,20
 214 62 214 62 216 75 c 0,9,10
455 345 m 1,21,22
 460 347 460 347 469 344.5 c 128,-1,23
 478 342 478 342 486 330 c 0,24,25
 497 311 497 311 491.5 302.5 c 128,-1,26
 486 294 486 294 472 280 c 0,27,28
 465 273 465 273 461.5 266 c 128,-1,29
 458 259 458 259 456 245 c 2,30,-1
 442 179 l 1,31,32
 466 177 466 177 495 161 c 128,-1,33
 524 145 524 145 546 120 c 1,34,-1
 606 400 l 1,35,-1
 674 400 l 1,36,-1
 589 0 l 1,37,-1
 521 0 l 1,38,-1
 530 43 l 1,39,40
 512 78 512 78 483 98.5 c 128,-1,41
 454 119 454 119 431 124 c 1,42,-1
 419 67 l 2,43,44
 414 44 414 44 402.5 29.5 c 128,-1,45
 391 15 391 15 377 7.5 c 128,-1,46
 363 0 363 0 348.5 -1.5 c 128,-1,47
 334 -3 334 -3 323 -1 c 0,48,49
 299 4 299 4 284.5 27.5 c 128,-1,50
 270 51 270 51 282 91 c 0,51,52
 293 126 293 126 318 146 c 128,-1,53
 343 166 343 166 372 175 c 1,54,-1
 390 259 l 2,55,56
 391 267 391 267 396.5 279.5 c 128,-1,57
 402 292 402 292 410 297 c 1,58,59
 407 298 407 298 400 307 c 128,-1,60
 393 316 393 316 381 326 c 128,-1,61
 369 336 369 336 350.5 344.5 c 128,-1,62
 332 353 332 353 305 353 c 0,63,64
 272 353 272 353 248.5 345.5 c 128,-1,65
 225 338 225 338 209 327 c 128,-1,66
 193 316 193 316 183 304.5 c 128,-1,67
 173 293 173 293 167 285 c 1,68,-1
 191 264 l 1,69,70
 202 275 202 275 214 282.5 c 128,-1,71
 226 290 226 290 244 296 c 1,72,73
 248 289 l 130,-1,74
 252 282 252 282 256 274 c 128,-1,75
 260 266 260 266 263 259.5 c 128,-1,76
 266 254 266 254 266 253 c 1,77,78
 212 233 212 233 199 178 c 2,79,-1
 193 149 l 1,80,81
 210 150 210 150 223.5 144.5 c 128,-1,82
 237 139 237 139 246 128.5 c 128,-1,83
 255 118 255 118 258 104.5 c 128,-1,84
 261 91 261 91 258 75 c 0,85,86
 252 43 252 43 224.5 21 c 128,-1,87
 197 -1 197 -1 165 -1 c 256,88,89
 133 -1 133 -1 117.5 21 c 128,-1,90
 102 43 102 43 108 75 c 2,91,-1
 131 181 l 2,92,93
 135 199 135 199 139 208 c 128,-1,94
 143 217 143 217 148 222 c 1,95,-1
 88 267 l 1,96,97
 91 273 91 273 105.5 295.5 c 128,-1,98
 120 318 120 318 147 342 c 128,-1,99
 174 366 174 366 215.5 385.5 c 128,-1,100
 257 405 257 405 314 406 c 0,101,102
 344 406 344 406 367 400.5 c 128,-1,103
 390 395 390 395 407 386.5 c 128,-1,104
 424 378 424 378 435.5 367 c 128,-1,105
 447 356 447 356 455 345 c 1,21,22
EndSplineSet
EndChar
StartChar: uni0E0D
Encoding: 3597 3597 224
Width: 644
Flags: W
Fore
216 72 m 0,0,1
 218 85 218 85 211 94 c 128,-1,2
 204 103 204 103 190 103 c 0,3,4
 177 103 177 103 166 94 c 128,-1,5
 155 85 155 85 153 72 c 0,6,7
 150 58 150 58 157 49 c 128,-1,8
 164 40 164 40 177 40 c 0,9,10
 191 40 191 40 202 49 c 128,-1,11
 213 58 213 58 216 72 c 0,0,1
376 -99 m 0,12,13
 378 -87 378 -87 369.5 -80 c 128,-1,14
 361 -73 361 -73 350 -75 c 0,15,16
 338 -77 338 -77 329.5 -86.5 c 128,-1,17
 321 -96 321 -96 320 -107 c 0,18,19
 319 -119 319 -119 326.5 -126 c 128,-1,20
 334 -133 334 -133 347 -131 c 0,21,22
 358 -129 358 -129 366.5 -119.5 c 128,-1,23
 375 -110 375 -110 376 -99 c 0,12,13
418 79 m 1,24,25
 418 74 418 74 414.5 68 c 128,-1,26
 411 62 411 62 407 60 c 1,27,-1
 510 60 l 2,28,29
 528 60 528 60 531 79 c 2,30,-1
 600 400 l 1,31,-1
 670 400 l 1,32,-1
 596 55 l 2,33,34
 588 15 588 15 579.5 -15 c 128,-1,35
 571 -45 571 -45 560 -67 c 1,36,-1
 560 -68 l 1,37,38
 558 -73 558 -73 555 -78 c 128,-1,39
 549 -88 l 0,40,41
 539 -103 539 -103 529 -113 c 128,-1,42
 519 -123 519 -123 509 -131 c 0,43,44
 485 -150 485 -150 458 -161 c 128,-1,45
 431 -172 431 -172 404.5 -176 c 128,-1,46
 378 -180 378 -180 354 -177.5 c 128,-1,47
 330 -175 330 -175 312 -168 c 0,48,49
 296 -161 296 -161 286.5 -147.5 c 128,-1,50
 277 -134 277 -134 278 -114 c 0,51,52
 280 -85 280 -85 301.5 -62.5 c 128,-1,53
 323 -40 323 -40 352 -35 c 256,54,55
 381 -30 381 -30 400.5 -47 c 128,-1,56
 420 -64 420 -64 418 -92 c 0,57,58
 418 -106 418 -106 410 -122 c 1,59,60
 462 -111 462 -111 489 -80 c 0,61,62
 497 -72 497 -72 507.5 -53 c 128,-1,63
 518 -34 518 -34 527 0 c 1,64,-1
 369 0 l 1,65,-1
 356 -4 l 2,66,67
 349 -6 349 -6 343 -3 c 128,-1,68
 337 0 337 0 332 6 c 128,-1,69
 327 12 327 12 324 18.5 c 128,-1,70
 321 25 321 25 320 30 c 0,71,72
 318 37 318 37 321.5 41 c 128,-1,73
 325 45 325 45 330.5 49.5 c 128,-1,74
 336 54 336 54 341 59 c 128,-1,75
 346 64 346 64 348 73 c 2,76,-1
 388 259 l 2,77,78
 389 267 389 267 395 279 c 128,-1,79
 401 291 401 291 408 297 c 1,80,81
 405 298 405 298 398.5 307 c 128,-1,82
 392 316 392 316 380 326 c 128,-1,83
 368 336 368 336 350 344.5 c 128,-1,84
 332 353 332 353 305 353 c 0,85,86
 272 353 272 353 248.5 345.5 c 128,-1,87
 225 338 225 338 209 327 c 128,-1,88
 193 316 193 316 183 304.5 c 128,-1,89
 173 293 173 293 167 285 c 1,90,-1
 191 264 l 1,91,92
 202 275 202 275 214 282.5 c 128,-1,93
 226 290 226 290 244 296 c 1,94,95
 248 289 l 130,-1,96
 252 282 252 282 256 274 c 128,-1,97
 260 266 260 266 263 259.5 c 128,-1,98
 266 254 266 254 266 253 c 1,99,100
 239 243 239 243 222 223.5 c 128,-1,101
 205 204 205 204 199 178 c 2,102,-1
 193 147 l 1,103,104
 195 148 195 148 197 148 c 128,-1,105
 199 148 199 148 200 148 c 0,106,107
 232 148 232 148 250 126 c 128,-1,108
 268 104 268 104 261 72 c 0,109,110
 258 56 258 56 248.5 42 c 128,-1,111
 239 28 239 28 226.5 17.5 c 128,-1,112
 214 7 214 7 198.5 1 c 128,-1,113
 183 -5 183 -5 167 -5 c 0,114,115
 135 -5 135 -5 118 17.5 c 128,-1,116
 101 40 101 40 108 72 c 2,117,-1
 131 181 l 2,118,119
 135 199 135 199 139 208 c 128,-1,120
 143 217 143 217 148 222 c 1,121,-1
 88 267 l 1,122,123
 91 273 91 273 105.5 295.5 c 128,-1,124
 120 318 120 318 147 342 c 128,-1,125
 174 366 174 366 215.5 385.5 c 128,-1,126
 257 405 257 405 314 406 c 0,127,128
 344 406 344 406 367 400.5 c 128,-1,129
 390 395 390 395 406.5 386.5 c 128,-1,130
 423 378 423 378 434 367 c 128,-1,131
 445 356 445 356 453 345 c 1,132,133
 458 347 458 347 467 344.5 c 128,-1,134
 476 342 476 342 484 330 c 0,135,136
 495 311 495 311 489.5 302.5 c 128,-1,137
 484 294 484 294 470 280 c 0,138,139
 463 273 463 273 459.5 266 c 128,-1,140
 456 259 456 259 454 245 c 2,141,-1
 418 79 l 1,24,25
EndSplineSet
Substitution: 0 65534 'L026' uni0E0D.alt1
Substitution: 0 65534 'L026' uni0E0D.alt1
EndChar
StartChar: uni0E0E
Encoding: 3598 3598 225
Width: 485
Flags: W
Fore
400 -125 m 2,0,1
 397 -136 397 -136 390 -144 c 0,2,3
 389 -145 389 -145 375 -157.5 c 128,-1,4
 361 -170 361 -170 344 -185.5 c 128,-1,5
 327 -201 327 -201 312 -214.5 c 128,-1,6
 297 -228 297 -228 294 -231 c 0,7,8
 282 -242 282 -242 274 -244 c 128,-1,9
 266 -246 266 -246 254 -237 c 0,10,11
 247 -232 247 -232 240 -222.5 c 128,-1,12
 233 -213 233 -213 240 -203 c 1,13,14
 226 -183 226 -183 211 -172.5 c 128,-1,15
 196 -162 196 -162 182 -157 c 1,16,17
 182 -163 182 -163 181 -166 c 0,18,19
 174 -199 174 -199 146 -222 c 128,-1,20
 118 -245 118 -245 85 -245 c 0,21,22
 53 -245 53 -245 34.5 -222 c 128,-1,23
 16 -199 16 -199 23 -166 c 0,24,25
 26 -150 26 -150 35.5 -135.5 c 128,-1,26
 45 -121 45 -121 58 -110.5 c 128,-1,27
 71 -100 71 -100 87 -93.5 c 128,-1,28
 103 -87 103 -87 119 -87 c 0,29,30
 129 -87 129 -87 137 -90 c 1,31,-1
 146 -48 l 1,32,-1
 203 -48 l 1,33,-1
 192 -101 l 1,34,35
 212 -106 212 -106 236.5 -119.5 c 128,-1,36
 261 -133 261 -133 284 -162 c 1,37,38
 297 -151 297 -151 310.5 -139 c 128,-1,39
 324 -127 324 -127 332 -119 c 1,40,-1
 413 261 l 2,41,42
 414 269 414 269 420.5 281.5 c 128,-1,43
 427 294 427 294 433 300 c 1,44,45
 430 301 430 301 423.5 310 c 128,-1,46
 417 319 417 319 404.5 329 c 128,-1,47
 392 339 392 339 373.5 347 c 128,-1,48
 355 355 355 355 328 355 c 0,49,50
 295 355 295 355 271.5 347.5 c 128,-1,51
 248 340 248 340 232 329 c 128,-1,52
 216 318 216 318 206.5 306.5 c 128,-1,53
 197 295 197 295 191 287 c 1,54,-1
 214 266 l 1,55,56
 225 277 225 277 237 284.5 c 128,-1,57
 249 292 249 292 268 298 c 1,58,59
 271.5 291 l 130,-1,60
 275 284 275 284 279 276 c 128,-1,61
 283 268 283 268 286.5 261.5 c 128,-1,62
 290 256 290 256 290 255 c 1,63,64
 262 245 262 245 248 225.5 c 128,-1,65
 234 206 234 206 229 180 c 2,66,-1
 207 78 l 2,67,68
 204 62 204 62 196 46.5 c 128,-1,69
 188 31 188 31 175 19 c 128,-1,70
 162 7 162 7 144.5 0 c 128,-1,71
 127 -7 127 -7 105 -7 c 0,72,73
 73 -7 73 -7 55 15.5 c 128,-1,74
 37 38 37 38 44 70 c 0,75,76
 47 86 47 86 56 100 c 128,-1,77
 65 114 65 114 78 124.5 c 128,-1,78
 91 135 91 135 106.5 141 c 128,-1,79
 122 147 122 147 138 147 c 0,80,81
 143 147 143 147 151 145 c 1,82,-1
 159 183 l 2,83,84
 163 201 163 201 167 210 c 128,-1,85
 171 219 171 219 176 224 c 1,86,-1
 112 269 l 1,87,88
 115 275 115 275 129 297.5 c 128,-1,89
 143 320 143 320 170.5 344 c 128,-1,90
 198 368 198 368 239 387.5 c 128,-1,91
 280 407 280 407 337 408 c 0,92,93
 368 408 368 408 391 402.5 c 128,-1,94
 414 397 414 397 431 388 c 128,-1,95
 448 379 448 379 459 368 c 128,-1,96
 470 357 470 357 478 346 c 1,97,98
 484 348 484 348 492.5 345 c 128,-1,99
 501 342 501 342 509 330 c 0,100,101
 520 311 520 311 514.5 302.5 c 128,-1,102
 509 294 509 294 495 280 c 0,103,104
 488 273 488 273 484.5 266 c 128,-1,105
 481 259 481 259 479 245 c 2,106,-1
 400 -125 l 2,0,1
152 70 m 0,107,108
 155 83 155 83 148 92 c 128,-1,109
 141 101 141 101 128 101 c 0,110,111
 114 101 114 101 103 92 c 128,-1,112
 92 83 92 83 89 70 c 0,113,114
 87 57 87 57 94 48 c 128,-1,115
 101 39 101 39 115 39 c 0,116,117
 128 39 128 39 139 48 c 128,-1,118
 150 57 150 57 152 70 c 0,107,108
135 -166 m 256,119,120
 138 -152 138 -152 130.5 -142.5 c 128,-1,121
 123 -133 123 -133 109 -133 c 256,122,123
 95 -133 95 -133 83.5 -142.5 c 128,-1,124
 72 -152 72 -152 69 -166 c 256,125,126
 66 -180 66 -180 73.5 -190 c 128,-1,127
 81 -200 81 -200 95 -200 c 256,128,129
 109 -200 109 -200 120.5 -190 c 128,-1,130
 132 -180 132 -180 135 -166 c 256,119,120
EndSplineSet
Substitution: 0 65534 'L026' uni0E0E.alt1
Substitution: 0 65534 'L026' uni0E0E.alt1
EndChar
StartChar: uni0E0F
Encoding: 3599 3599 226
Width: 485
Flags: W
Fore
398 -133 m 2,0,1
 398 -134 398 -134 386 -147.5 c 128,-1,2
 374 -161 374 -161 359 -177.5 c 128,-1,3
 344 -194 344 -194 331 -207.5 c 128,-1,4
 319 -220 319 -220 318 -221 c 0,5,6
 309 -229 309 -229 302 -228.5 c 128,-1,7
 295 -228 295 -228 287 -225 c 0,8,9
 274 -220 274 -220 268.5 -211.5 c 128,-1,10
 263 -203 263 -203 267 -196 c 1,11,12
 244 -196 244 -196 228 -205 c 128,-1,13
 212 -214 212 -214 195 -237 c 0,14,15
 192 -242 192 -242 188.5 -243.5 c 128,-1,16
 185 -245 185 -245 181.5 -244.5 c 128,-1,17
 178 -244 178 -244 174 -242.5 c 128,-1,18
 170 -241 170 -241 166 -240 c 0,19,20
 156 -238 156 -238 149.5 -235 c 128,-1,21
 143 -232 143 -232 149 -224 c 2,22,23
 149 -222 149 -222 152.5 -218.5 c 128,-1,24
 156 -215 156 -215 159 -210 c 1,25,26
 155 -191 155 -191 147 -180.5 c 128,-1,27
 139 -170 139 -170 130 -162 c 1,28,29
 128 -174 128 -174 121 -188.5 c 128,-1,30
 114 -203 114 -203 101.5 -215.5 c 128,-1,31
 89 -228 89 -228 71.5 -236.5 c 128,-1,32
 54 -245 54 -245 33 -245 c 0,33,34
 1 -245 1 -245 -17 -222 c 128,-1,35
 -35 -199 -35 -199 -28 -166 c 0,36,37
 -22 -141 -22 -141 -7.5 -124 c 128,-1,38
 7 -107 7 -107 24 -98 c 128,-1,39
 41 -89 41 -89 58 -87.5 c 128,-1,40
 75 -86 75 -86 85 -90 c 1,41,-1
 97 -37 l 1,42,-1
 153 -37 l 1,43,-1
 139 -100 l 1,44,45
 156 -108 156 -108 173 -123.5 c 128,-1,46
 190 -139 190 -139 201 -171 c 1,47,48
 228 -151 228 -151 249 -148.5 c 128,-1,49
 270 -146 270 -146 290 -156 c 1,50,-1
 333 -115 l 1,51,-1
 413 261 l 2,52,53
 414 269 414 269 420 281.5 c 128,-1,54
 426 294 426 294 433 299 c 1,55,56
 430 300 430 300 423.5 309 c 128,-1,57
 417 318 417 318 404.5 328 c 128,-1,58
 392 338 392 338 373.5 346.5 c 128,-1,59
 355 355 355 355 328 355 c 0,60,61
 295 355 295 355 271.5 347.5 c 128,-1,62
 248 340 248 340 232 329 c 128,-1,63
 216 318 216 318 206.5 306.5 c 128,-1,64
 197 295 197 295 191 287 c 1,65,-1
 214 266 l 1,66,67
 225 277 225 277 237 284.5 c 128,-1,68
 249 292 249 292 268 298 c 1,69,70
 271.5 291 l 130,-1,71
 275 284 275 284 279 276 c 128,-1,72
 283 268 283 268 286.5 261.5 c 128,-1,73
 290 256 290 256 290 255 c 1,74,75
 262 245 262 245 248 225.5 c 128,-1,76
 234 206 234 206 229 180 c 2,77,-1
 207 78 l 2,78,79
 204 62 204 62 196 46.5 c 128,-1,80
 188 31 188 31 175 19 c 128,-1,81
 162 7 162 7 144.5 0 c 128,-1,82
 127 -7 127 -7 105 -7 c 0,83,84
 73 -7 73 -7 55 15.5 c 128,-1,85
 37 38 37 38 44 70 c 0,86,87
 47 86 47 86 56 100 c 128,-1,88
 65 114 65 114 78 124.5 c 128,-1,89
 91 135 91 135 106.5 141 c 128,-1,90
 122 147 122 147 138 147 c 0,91,92
 143 147 143 147 151 145 c 1,93,-1
 159 183 l 2,94,95
 163 201 163 201 167 210 c 128,-1,96
 171 219 171 219 176 224 c 1,97,-1
 112 269 l 1,98,99
 115 275 115 275 129 297.5 c 128,-1,100
 143 320 143 320 170.5 344 c 128,-1,101
 198 368 198 368 239 387.5 c 128,-1,102
 280 407 280 407 337 408 c 0,103,104
 368 408 368 408 391 402.5 c 128,-1,105
 414 397 414 397 431 388 c 128,-1,106
 448 379 448 379 459 368 c 128,-1,107
 470 357 470 357 478 346 c 1,108,109
 484 348 484 348 492.5 345 c 128,-1,110
 501 342 501 342 509 330 c 0,111,112
 520 311 520 311 514.5 302.5 c 128,-1,113
 509 294 509 294 495 280 c 0,114,115
 488 273 488 273 484.5 266 c 128,-1,116
 481 259 481 259 479 245 c 2,117,-1
 398 -133 l 2,0,1
152 70 m 0,118,119
 155 83 155 83 148 92 c 128,-1,120
 141 101 141 101 128 101 c 0,121,122
 114 101 114 101 103 92 c 128,-1,123
 92 83 92 83 89 70 c 0,124,125
 87 57 87 57 94 48 c 128,-1,126
 101 39 101 39 115 39 c 0,127,128
 128 39 128 39 139 48 c 128,-1,129
 150 57 150 57 152 70 c 0,118,119
83 -166 m 256,130,131
 86 -152 86 -152 79.5 -142.5 c 128,-1,132
 73 -133 73 -133 57 -133 c 0,133,134
 43 -133 43 -133 31.5 -142.5 c 128,-1,135
 20 -152 20 -152 17 -166 c 256,136,137
 14 -180 14 -180 21.5 -190 c 128,-1,138
 29 -200 29 -200 43 -200 c 256,139,140
 57 -200 57 -200 68.5 -190 c 128,-1,141
 80 -180 80 -180 83 -166 c 256,130,131
EndSplineSet
Substitution: 0 65534 'L026' uni0E0F.alt1
Substitution: 0 65534 'L026' uni0E0F.alt1
EndChar
StartChar: uni0E10
Encoding: 3600 3600 227
Width: 418
Flags: W
Fore
288 -206 m 1,0,1
 288 -211 288 -211 275 -224 c 0,2,3
 262 -236 262 -236 254.5 -234 c 128,-1,4
 247 -232 247 -232 246 -230 c 1,5,6
 207 -207 207 -207 158 -237 c 0,7,8
 144 -245 144 -245 140 -242.5 c 128,-1,9
 136 -240 136 -240 128 -235 c 0,10,11
 117 -228 117 -228 115.5 -227 c 128,-1,12
 114 -226 114 -226 119 -219 c 1,13,14
 114 -193 114 -193 103 -181 c 128,-1,15
 92 -169 92 -169 81 -163 c 1,16,17
 79 -178 79 -178 71 -193 c 128,-1,18
 63 -208 63 -208 51 -219.5 c 128,-1,19
 39 -231 39 -231 23 -238 c 128,-1,20
 7 -245 7 -245 -11 -245 c 0,21,22
 -42 -245 -42 -245 -59.5 -223.5 c 128,-1,23
 -77 -202 -77 -202 -70 -170 c 0,24,25
 -65 -148 -65 -148 -52.5 -132 c 128,-1,26
 -40 -116 -40 -116 -24.5 -107 c 128,-1,27
 -9 -98 -9 -98 8 -95.5 c 128,-1,28
 25 -93 25 -93 39 -97 c 1,29,-1
 51 -38 l 1,30,-1
 108 -38 l 1,31,-1
 93 -110 l 1,32,33
 114 -118 114 -118 133.5 -135 c 128,-1,34
 153 -152 153 -152 163 -187 c 1,35,36
 182 -179 182 -179 201 -177 c 128,-1,37
 220 -175 220 -175 237 -177 c 1,38,-1
 243 -146 l 1,39,40
 232 -149 232 -149 219.5 -146.5 c 128,-1,41
 207 -144 207 -144 197 -136 c 128,-1,42
 187 -128 187 -128 182 -115 c 128,-1,43
 177 -102 177 -102 181 -83 c 0,44,45
 186 -57 186 -57 209 -38 c 128,-1,46
 232 -19 232 -19 258 -19 c 0,47,48
 283 -19 283 -19 301.5 -35.5 c 128,-1,49
 320 -52 320 -52 314 -81 c 2,50,-1
 288 -206 l 1,0,1
37 -170 m 0,51,52
 40 -156 40 -156 32.5 -146.5 c 128,-1,53
 25 -137 25 -137 11 -137 c 0,54,55
 -2 -137 -2 -137 -13.5 -146.5 c 128,-1,56
 -25 -156 -25 -156 -28 -170 c 0,57,58
 -30 -184 -30 -184 -23 -193.5 c 128,-1,59
 -16 -203 -16 -203 -2 -203 c 256,60,61
 12 -203 12 -203 23.5 -193.5 c 128,-1,62
 35 -184 35 -184 37 -170 c 0,51,52
271 -83 m 256,63,64
 273 -72 273 -72 267 -65 c 128,-1,65
 261 -58 261 -58 250 -58 c 256,66,67
 239 -58 239 -58 230.5 -65 c 128,-1,68
 222 -72 222 -72 220 -83 c 256,69,70
 218 -94 218 -94 223 -101.5 c 128,-1,71
 228 -109 228 -109 239 -109 c 256,72,73
 250 -109 250 -109 259.5 -101.5 c 128,-1,74
 269 -94 269 -94 271 -83 c 256,63,64
215 159 m 0,75,76
 218 172 218 172 211 181.5 c 128,-1,77
 204 191 204 191 190 191 c 256,78,79
 176 191 176 191 164.5 181.5 c 128,-1,80
 153 172 153 172 150 159 c 0,81,82
 147 145 147 145 154.5 136 c 128,-1,83
 162 127 162 127 176 127 c 256,84,85
 190 127 190 127 201 136 c 128,-1,86
 212 145 212 145 215 159 c 0,75,76
408 218 m 2,87,88
 402 210 402 210 395 202.5 c 128,-1,89
 388 195 388 195 383 184 c 2,90,-1
 332 44 l 2,91,92
 329 38 329 38 320.5 31.5 c 128,-1,93
 312 25 312 25 300.5 18.5 c 128,-1,94
 289 12 289 12 277 6 c 128,-1,95
 265 0 265 0 255 -6 c 0,96,97
 251 -8 251 -8 250 -8 c 128,-1,98
 249 -8 249 -8 245 -10 c 0,99,100
 238 -13 238 -13 232 -9.5 c 128,-1,101
 226 -6 226 -6 221 0 c 128,-1,102
 216 6 216 6 213 13 c 128,-1,103
 210 20 210 20 209 25 c 0,104,105
 207 33 207 33 211 38 c 128,-1,106
 215 43 215 43 223 50 c 1,107,108
 222 58 222 58 219 71 c 128,-1,109
 216 84 216 84 214 103 c 1,110,111
 206 95 206 95 194 91.5 c 128,-1,112
 182 88 182 88 171 87 c 0,113,114
 158 86 158 86 146 90.5 c 128,-1,115
 134 95 134 95 125 104 c 128,-1,116
 116 113 116 113 112 127 c 128,-1,117
 108 141 108 141 112 160 c 0,118,119
 119 195 119 195 146 213.5 c 128,-1,120
 173 232 173 232 200 232 c 0,121,122
 218 232 218 232 233.5 222 c 128,-1,123
 249 212 249 212 254 197 c 0,124,125
 258 188 258 188 262 174 c 128,-1,126
 266 160 266 160 269 143 c 128,-1,127
 272 126 272 126 274 107.5 c 128,-1,128
 276 89 276 89 276 72 c 1,129,-1
 318 192 l 2,130,131
 321 200 321 200 325 209.5 c 128,-1,132
 329 219 329 219 340 230 c 1,133,134
 334 237 334 237 317 245 c 128,-1,135
 300 253 300 253 274 258.5 c 128,-1,136
 248 264 248 264 214.5 265.5 c 128,-1,137
 181 267 181 267 142 262 c 1,138,139
 133 250 133 250 124 246.5 c 128,-1,140
 115 243 115 243 95 254 c 0,141,142
 84 261 84 261 87.5 269.5 c 128,-1,143
 91 278 91 278 105 298 c 0,144,145
 121 322 121 322 143.5 343.5 c 128,-1,146
 166 365 166 365 193 381 c 128,-1,147
 220 397 220 397 251 405.5 c 128,-1,148
 282 414 282 414 317 412 c 0,149,150
 345 410 345 410 369 404.5 c 128,-1,151
 393 399 393 399 413 393.5 c 128,-1,152
 433 388 433 388 449 383.5 c 128,-1,153
 465 379 465 379 477 379 c 1,154,-1
 449 335 l 1,155,156
 441 330 441 330 424.5 333.5 c 128,-1,157
 408 337 408 337 387 343 c 128,-1,158
 366 349 366 349 343 355 c 128,-1,159
 320 361 320 361 301 361 c 0,160,161
 252 361 252 361 227 348.5 c 128,-1,162
 202 336 202 336 186 318 c 1,163,164
 227 320 227 320 259.5 317 c 128,-1,165
 292 314 292 314 316 307.5 c 128,-1,166
 340 301 340 301 357 292.5 c 128,-1,167
 374 284 374 284 384 277 c 1,168,169
 387 280 387 280 397 278.5 c 128,-1,170
 407 277 407 277 416 263 c 0,171,172
 427 246 427 246 423 237.5 c 128,-1,173
 419 229 419 229 408 218 c 2,87,88
EndSplineSet
Substitution: 0 65534 'L026' uni0E10.alt1
Substitution: 0 65534 'L026' uni0E10.alt1
EndChar
StartChar: uni0E11
Encoding: 3601 3601 228
Width: 544
Flags: W
Fore
175 262 m 256,0,1
 177 273 177 273 171 281 c 128,-1,2
 165 289 165 289 154 289 c 256,3,4
 143 289 143 289 133.5 281 c 128,-1,5
 124 273 124 273 122 262 c 256,6,7
 120 251 120 251 125.5 243 c 128,-1,8
 131 235 131 235 142 235 c 256,9,10
 153 235 153 235 163 243 c 128,-1,11
 173 251 173 251 175 262 c 256,0,1
489 0 m 1,12,-1
 420 0 l 1,13,-1
 481 290 l 2,14,15
 482 295 482 295 487 309.5 c 128,-1,16
 492 324 492 324 502 335 c 1,17,18
 500 337 500 337 490.5 340.5 c 128,-1,19
 481 344 481 344 478 344 c 1,20,-1
 265 39 l 2,21,22
 260 32 260 32 245.5 20.5 c 128,-1,23
 231 9 231 9 216 1 c 0,24,25
 211 -1 211 -1 208.5 -2 c 128,-1,26
 206 -3 206 -3 202 -5 c 0,27,28
 195 -8 195 -8 189 -4.5 c 128,-1,29
 183 -1 183 -1 178.5 5 c 128,-1,30
 174 11 174 11 171 18 c 128,-1,31
 168 25 168 25 167 30 c 0,32,33
 165 37 165 37 169 42.5 c 128,-1,34
 173 48 173 48 178.5 54 c 128,-1,35
 184 60 184 60 189.5 66.5 c 128,-1,36
 195 73 195 73 197 82 c 2,37,-1
 226 220 l 1,38,39
 227 237 227 237 241 253.5 c 128,-1,40
 255 270 255 270 272 284 c 0,41,42
 276 288 276 288 284 293.5 c 128,-1,43
 292 299 292 299 299 305 c 128,-1,44
 306 311 306 311 311 316 c 128,-1,45
 316 321 316 321 316 324 c 0,46,47
 315 338 315 338 311 348 c 128,-1,48
 307 358 307 358 298 357 c 0,49,50
 288 356 288 356 274 345 c 1,51,52
 276 334 276 334 269.5 325.5 c 128,-1,53
 263 317 263 317 252 312 c 0,54,55
 245 309 245 309 237.5 310.5 c 128,-1,56
 230 312 230 312 227 323 c 0,57,58
 224 337 224 337 213 347 c 128,-1,59
 202 357 202 357 186 352 c 0,60,61
 172 347 172 347 164.5 339 c 128,-1,62
 157 331 157 331 152 323 c 1,63,64
 170 327 170 327 183 323 c 128,-1,65
 196 319 196 319 204 310 c 128,-1,66
 212 301 212 301 214.5 288 c 128,-1,67
 217 275 217 275 214 262 c 0,68,69
 209 235 209 235 185.5 215.5 c 128,-1,70
 162 196 162 196 134 196 c 0,71,72
 115 196 115 196 102 206 c 128,-1,73
 89 216 89 216 84 232 c 0,74,75
 77 251 77 251 79.5 275.5 c 128,-1,76
 82 300 82 300 92.5 323.5 c 128,-1,77
 103 347 103 347 120.5 367 c 128,-1,78
 138 387 138 387 162 397 c 0,79,80
 189 409 189 409 214.5 405 c 128,-1,81
 240 401 240 401 257 378 c 1,82,83
 286 399 286 399 300 403 c 128,-1,84
 314 407 314 407 324 408 c 0,85,86
 338 409 338 409 348 399.5 c 128,-1,87
 358 390 358 390 364 378 c 128,-1,88
 370 366 370 366 373 355 c 128,-1,89
 376 344 376 344 376 343 c 0,90,91
 377 338 377 338 377.5 335 c 128,-1,92
 378 332 378 332 374 323 c 0,93,94
 371 316 371 316 360.5 307.5 c 128,-1,95
 350 299 350 299 337.5 289.5 c 128,-1,96
 325 280 325 280 314 268 c 128,-1,97
 303 256 303 256 300 243 c 2,98,-1
 277 134 l 1,99,-1
 460 407 l 1,100,101
 484 407 484 407 508 401 c 128,-1,102
 532 395 532 395 543 384 c 1,103,104
 547 389 547 389 558.5 387.5 c 128,-1,105
 570 386 570 386 580 372 c 0,106,107
 591 353 591 353 585.5 344.5 c 128,-1,108
 580 336 580 336 566 322 c 0,109,110
 559 315 559 315 555.5 308 c 128,-1,111
 552 301 552 301 550 287 c 2,112,-1
 489 0 l 1,12,-1
EndSplineSet
EndChar
StartChar: uni0E12
Encoding: 3602 3602 229
Width: 642
Flags: W
Fore
372 126 m 1,0,1
 357 124 357 124 344 110.5 c 128,-1,2
 331 97 331 97 328 80 c 0,3,4
 323 60 323 60 326.5 51.5 c 128,-1,5
 330 43 330 43 336.5 41 c 128,-1,6
 343 39 343 39 349 43 c 128,-1,7
 355 47 355 47 357 53 c 2,8,-1
 372 126 l 1,0,1
305 225 m 0,9,10
 308 238 308 238 301.5 246.5 c 128,-1,11
 295 255 295 255 283 255 c 0,12,13
 270 255 270 255 259.5 246.5 c 128,-1,14
 249 238 249 238 246 225 c 0,15,16
 244 213 244 213 250.5 204.5 c 128,-1,17
 257 196 257 196 270 196 c 0,18,19
 282 196 282 196 292.5 204.5 c 128,-1,20
 303 213 303 213 305 225 c 0,9,10
446 171 m 1,21,22
 470 169 470 169 498 154 c 128,-1,23
 526 139 526 139 548 115 c 1,24,-1
 609 400 l 1,25,-1
 676 400 l 1,26,-1
 591 0 l 1,27,-1
 524 0 l 1,28,-1
 532 41 l 1,29,30
 514 75 514 75 485 93.5 c 128,-1,31
 456 112 456 112 433 117 c 1,32,-1
 422 64 l 2,33,34
 417 41 417 41 405.5 26.5 c 128,-1,35
 394 12 394 12 380.5 4.5 c 128,-1,36
 367 -3 367 -3 352.5 -4.5 c 128,-1,37
 338 -6 338 -6 327 -4 c 0,38,39
 303 1 303 1 287 25 c 128,-1,40
 271 49 271 49 283 89 c 0,41,42
 295 125 295 125 322.5 145.5 c 128,-1,43
 350 166 350 166 379 174 c 1,44,-1
 399 265 l 2,45,46
 401 273 401 273 405.5 282.5 c 128,-1,47
 410 292 410 292 418 298 c 1,48,49
 416.5 305.5 l 130,-1,50
 415 313 415 313 410 322 c 128,-1,51
 405 331 405 331 395.5 339 c 128,-1,52
 386 347 386 347 371 350 c 1,53,54
 368 349 368 349 360 344 c 128,-1,55
 352 339 352 339 342.5 333 c 128,-1,56
 333 327 333 327 325 322 c 128,-1,57
 317 317 317 317 316 316 c 1,58,59
 304 311 304 311 300 314 c 128,-1,60
 296 317 296 317 284 328 c 0,61,62
 275 336 275 336 265.5 341.5 c 128,-1,63
 256 347 256 347 247 351 c 1,64,65
 211 340 211 340 193 315.5 c 128,-1,66
 175 291 175 291 167 256 c 0,67,68
 158 206 158 206 161 169 c 128,-1,69
 164 132 164 132 162 102 c 1,70,71
 169 109 169 109 180.5 119.5 c 128,-1,72
 192 130 192 130 203 139.5 c 128,-1,73
 214 149 214 149 222 156 c 128,-1,74
 230 163 230 163 231 164 c 1,75,76
 214 170 214 170 206 187 c 128,-1,77
 198 204 198 204 203 225 c 0,78,79
 210 255 210 255 236 276.5 c 128,-1,80
 262 298 262 298 292 298 c 0,81,82
 321 298 321 298 338 276.5 c 128,-1,83
 355 255 355 255 348 225 c 0,84,85
 345 210 345 210 336.5 196.5 c 128,-1,86
 328 183 328 183 317.5 171.5 c 128,-1,87
 307 160 307 160 294.5 150.5 c 128,-1,88
 282 141 282 141 272 132 c 0,89,90
 251 116 251 116 228.5 96 c 128,-1,91
 206 76 206 76 186 58 c 128,-1,92
 166 40 166 40 151.5 26 c 128,-1,93
 137 12 137 12 131 8 c 0,94,95
 118 -2 118 -2 108 -5 c 128,-1,96
 98 -8 98 -8 88 5 c 0,97,98
 77 19 77 19 75 26 c 128,-1,99
 73 33 73 33 84 44 c 0,100,101
 91 51 91 51 95.5 57 c 128,-1,102
 100 63 100 63 102 73 c 0,103,104
 105 94 105 94 104 114.5 c 128,-1,105
 103 135 103 135 101.5 157.5 c 128,-1,106
 100 180 100 180 100.5 204.5 c 128,-1,107
 101 229 101 229 107 259 c 0,108,109
 130 371 130 371 244 406 c 0,110,111
 256 410 256 410 268 405 c 0,112,113
 282 400 282 400 295.5 389.5 c 128,-1,114
 309 379 309 379 320 367 c 1,115,116
 345 388 345 388 364 399.5 c 128,-1,117
 383 411 383 411 391 409 c 0,118,119
 426 399 426 399 445.5 383.5 c 128,-1,120
 465 368 465 368 471 348 c 1,121,122
 478 350 478 350 483.5 344 c 128,-1,123
 489 338 489 338 495 330 c 0,124,125
 506 311 506 311 500 302.5 c 128,-1,126
 494 294 494 294 480 280 c 0,127,128
 473 273 473 273 468.5 266 c 128,-1,129
 464 259 464 259 462 245 c 2,130,-1
 446 171 l 1,21,22
EndSplineSet
EndChar
StartChar: uni0E13
Encoding: 3603 3603 230
Width: 664
Flags: W
Fore
222 72 m 0,0,1
 224 85 224 85 217 94 c 128,-1,2
 210 103 210 103 197 103 c 0,3,4
 183 103 183 103 172 94 c 128,-1,5
 161 85 161 85 159 72 c 0,6,7
 156 58 156 58 163 49 c 128,-1,8
 170 40 170 40 184 40 c 0,9,10
 197 40 197 40 208 49 c 128,-1,11
 219 58 219 58 222 72 c 0,0,1
606 77 m 0,12,13
 610 94 610 94 601.5 105 c 128,-1,14
 593 116 593 116 576 116 c 256,15,16
 559 116 559 116 546.5 105 c 128,-1,17
 534 94 534 94 530 77 c 0,18,19
 526 61 526 61 534.5 50 c 128,-1,20
 543 39 543 39 560 39 c 256,21,22
 577 39 577 39 589.5 50 c 128,-1,23
 602 61 602 61 606 77 c 0,12,13
428 126 m 1,24,25
 463 153 463 153 499.5 164 c 128,-1,26
 536 175 536 175 573 173 c 1,27,28
 577 176 577 176 579 186 c 2,29,-1
 619 376 l 1,30,-1
 686 376 l 1,31,-1
 642 168 l 2,32,33
 638 155 638 155 631 149 c 1,34,35
 646 137 646 137 652.5 118 c 128,-1,36
 659 99 659 99 654 77 c 0,37,38
 650 59 650 59 639.5 43 c 128,-1,39
 629 27 629 27 615 15 c 128,-1,40
 601 3 601 3 583.5 -3.5 c 128,-1,41
 566 -10 566 -10 548 -10 c 0,42,43
 511 -10 511 -10 491.5 15 c 128,-1,44
 472 40 472 40 480 77 c 1,45,46
 481 79 481 79 484.5 89 c 128,-1,47
 488 99 488 99 493 106 c 1,48,49
 470 100 470 100 451.5 86.5 c 128,-1,50
 433 73 433 73 417 57 c 128,-1,51
 401 41 401 41 389 26.5 c 128,-1,52
 377 12 377 12 368 4 c 0,53,54
 362 -2 362 -2 355 -0.5 c 128,-1,55
 348 1 348 1 341.5 6 c 128,-1,56
 335 11 335 11 330 17.5 c 128,-1,57
 325 24 325 24 324 29 c 0,58,59
 322 36 322 36 325 40.5 c 128,-1,60
 328 45 328 45 332.5 49.5 c 128,-1,61
 337 54 337 54 342 59 c 128,-1,62
 347 64 347 64 349 73 c 2,63,-1
 388 259 l 2,64,65
 389 267 389 267 395 278 c 128,-1,66
 401 289 401 289 408 297 c 1,67,68
 405 298 405 298 398.5 307 c 128,-1,69
 392 316 392 316 380 326 c 128,-1,70
 368 336 368 336 350 344.5 c 128,-1,71
 332 353 332 353 305 353 c 0,72,73
 272 353 272 353 248.5 345.5 c 128,-1,74
 225 338 225 338 209 327 c 128,-1,75
 193 316 193 316 183 304.5 c 128,-1,76
 173 293 173 293 167 285 c 1,77,-1
 191 264 l 1,78,79
 202 275 202 275 214 282.5 c 128,-1,80
 226 290 226 290 244 296 c 1,81,82
 248 289 l 130,-1,83
 252 282 252 282 256 274 c 128,-1,84
 260 266 260 266 263 259.5 c 128,-1,85
 266 254 266 254 266 253 c 1,86,87
 239 243 239 243 222 223.5 c 128,-1,88
 205 204 205 204 199 178 c 2,89,-1
 192 144 l 1,90,91
 208 149 208 149 223 145.5 c 128,-1,92
 238 142 238 142 249.5 132.5 c 128,-1,93
 261 123 261 123 266 107.5 c 128,-1,94
 271 92 271 92 267 72 c 0,95,96
 260 40 260 40 233 17.5 c 128,-1,97
 206 -5 206 -5 174 -5 c 0,98,99
 163 -5 163 -5 149.5 -1.5 c 128,-1,100
 136 2 136 2 125.5 11.5 c 128,-1,101
 115 21 115 21 109.5 36.5 c 128,-1,102
 104 52 104 52 109 76 c 2,103,-1
 131 181 l 2,104,105
 135 199 135 199 139 208 c 128,-1,106
 143 217 143 217 148 222 c 1,107,-1
 88 267 l 1,108,109
 91 273 91 273 105.5 295.5 c 128,-1,110
 120 318 120 318 147 342 c 128,-1,111
 174 366 174 366 215.5 385.5 c 128,-1,112
 257 405 257 405 314 406 c 0,113,114
 374 406 374 406 406 387 c 128,-1,115
 438 368 438 368 453 346 c 1,116,117
 459 348 459 348 467.5 345 c 128,-1,118
 476 342 476 342 484 330 c 0,119,120
 495 311 495 311 489.5 302.5 c 128,-1,121
 484 294 484 294 470 280 c 0,122,123
 463 273 463 273 459.5 266 c 128,-1,124
 456 259 456 259 454 245 c 2,125,-1
 428 126 l 1,24,25
EndSplineSet
EndChar
